<svg width="544" height="143" viewBox="0 0 544 143" fill="none" xmlns="http://www.w3.org/2000/svg">
<path d="M1 92.5L14.9733 88.7607C26.4673 85.6848 46.3869 83.9006 57.6109 79.9513C63.7293 77.7985 70.5114 75.0232 77 72C93.7999 64.1725 128.053 38.9174 134.823 33.8792C135.619 33.2862 136.439 32.7629 137.312 32.2906L146.341 27.4102C151.156 24.8075 157.118 25.7558 160.888 29.724V29.724C162.895 31.8369 164.074 34.6025 164.207 37.5138L168.297 126.579C168.428 129.442 169.521 132.178 171.399 134.345V134.345C173.697 136.997 176.987 138.584 180.494 138.733L257.5 142L347.563 138.699C351.015 138.573 354.241 136.949 356.399 134.252V134.252C358.083 132.147 359 129.531 359 126.836V18.5943C359 12.632 355.907 7.0965 350.829 3.97167V3.97167C347.693 2.04181 344.02 1.17128 340.351 1.48856L253.5 9L180.34 5.22885C169.693 4.68004 162.408 15.8156 167.176 25.3512V25.3512C168.049 27.0975 169.28 28.6406 170.788 29.8801L244.771 90.6681C246.249 91.8831 247.895 92.8795 249.656 93.627L254.837 95.8247C260.324 98.1525 266.563 97.9118 271.854 95.1682L274.22 93.9416C276.062 92.9864 277.744 91.7502 279.206 90.2775L344.55 24.4602C345.478 23.5256 346.741 23 348.058 23V23C350.787 23 353 25.2128 353 27.9424V58.0403C353 63.4482 355.19 68.6255 359.07 72.3919L370 83L390.943 99.7387C391.979 100.566 392.925 101.494 393.817 102.474C397.424 106.442 407.876 117.148 418 119.983C430.5 123.483 434.5 125.5 439.5 125.5C444.5 125.5 543 118.5 543 118.5" stroke="black" stroke-width="2"/>
</svg>
