<svg width="150" height="150" viewBox="0 0 150 150" fill="none" xmlns="http://www.w3.org/2000/svg">
<path d="M148.157 55.6355C145.594 40.1943 136.697 25.2537 124.52 15.0617C108.744 1.85977 77.2478 -0.190838 77.2049 0.0128297C61.7905 0.120023 46.2796 1.34203 33.202 10.164C32.9769 10.3141 32.8483 10.4953 32.784 10.7C32.7304 10.6679 32.6768 10.6357 32.6232 10.6035C12.6638 23.649 0.851082 43.6834 0.186483 67.1363C0.0417722 72.2719 -2.20071 105.699 13.7336 122.523C18.18 127.218 22.0464 132.456 27.3418 136.197C27.5455 136.341 27.7609 136.475 27.971 136.614C33.3564 140.895 39.5115 144.094 46.3879 146.171C59.7656 150.212 75.641 151.306 89.2974 148.24C89.9427 148.095 90.5837 147.93 91.2258 147.754C100.084 146.652 109.266 141.966 116.625 137.663C116.942 137.479 123.317 133.741 126.159 131.465C135.75 123.783 141.9 111.3 144.086 99.3189C144.163 98.8869 152.203 80.022 148.157 55.6355ZM2.37537 87.4612C3.45588 92.3578 4.84082 97.1965 6.33938 101.932C7.98587 107.154 10.0193 112.388 12.5705 117.348C6.42835 108.572 1.77509 98.2116 2.37537 87.4612ZM90.6084 46.4587C90.8453 46.3097 91.0168 46.0835 91.0693 45.7844C91.8851 46.5562 92.6354 47.4234 93.2989 48.4321C93.5026 49.2242 93.6752 50.04 93.8135 50.8547C92.9034 49.3111 91.8207 47.8211 90.6084 46.4587ZM79.7401 39.7934C78.2715 39.4707 76.8244 39.3432 75.4094 39.385C75.999 39.2992 76.5778 39.2027 77.146 39.1063C78.4634 39.2135 79.7722 39.3742 81.0371 39.5886C81.1539 39.6744 81.2847 39.7483 81.4123 39.8341C80.8645 39.803 80.3082 39.7934 79.7401 39.7934ZM77.0163 90.3018C76.3195 90.2268 75.6442 90.0767 74.9689 89.917C74.9882 89.9116 75.0064 89.9031 75.0257 89.8966C75.6581 90.0456 76.2906 90.1828 76.9423 90.2536C77.7463 90.1464 78.5502 89.9963 79.3542 89.7498C85.7172 87.8396 90.4765 83.226 93.2111 77.5587C93.2775 77.4847 93.3504 77.4183 93.4169 77.3421C90.7049 83.1306 85.8908 87.8578 79.4281 89.798C78.6242 90.0446 77.8202 90.1946 77.0163 90.3018ZM84.4019 94.9326C84.3483 94.9219 84.3054 94.8897 84.2422 94.8897C83.6205 94.8575 83.0095 94.8361 82.3877 94.8157C83.3096 94.5038 84.2325 94.0536 85.1533 93.4319C85.0129 94 84.7781 94.5038 84.4019 94.9326ZM85.2702 91.5881C85.1094 91.4702 84.895 91.3952 84.6377 91.4059C84.0803 91.4284 83.5133 91.4284 82.9441 91.4284C83.6955 91.213 84.4662 91.02 85.2487 90.8699C85.2809 91.0843 85.2916 91.288 85.3034 91.4917C85.2809 91.5238 85.2809 91.556 85.2702 91.5881ZM122.208 131.853C119.292 134.079 116.028 135.688 112.618 137.036C116.159 134.569 119.522 131.951 122.645 129.394C129.996 123.389 135.55 115.565 139.782 107.205C136.41 116.922 130.426 125.581 122.208 131.853ZM145.809 83.2592C143.236 96.7441 137.34 109.136 128.84 119.523C126.942 114.088 120.242 111.707 115.205 109.875C110.371 108.116 103.846 107.001 99.1839 104.761C93.7706 102.156 88.368 99.7123 87.4783 93.7309C87.607 92.123 87.3615 90.3329 87.1568 89.2288C87.1246 88.993 87.0067 88.8333 86.877 88.7154C92.8477 84.6956 96.3754 78.1461 97.4795 71.1131C97.6188 70.7873 97.741 70.4518 97.8622 70.1162C98.1227 70.0069 98.3478 69.8 98.47 69.4752C99.3425 67.1566 100.956 65.1993 101.703 62.7928C102.452 60.3724 101.317 58.6251 99.0402 58.5812C98.664 55.1724 97.7164 51.8676 96.3004 49.1181C95.8287 48.1973 95.3035 47.3602 94.7568 46.5894C93.8885 43.8238 92.5593 41.2608 90.2332 39.1824C85.8801 35.302 79.3424 32.5364 73.3931 33.35C70.9277 33.35 68.4837 34.2622 66.178 35.6021C56.4234 37.2411 50.9351 47.9604 50.1525 58.1234C50.0614 58.4182 49.9982 58.7216 49.9242 59.0206C49.9328 59.1536 49.9435 59.2854 49.9521 59.4183C50.0668 60.0454 50.1761 60.6736 50.2876 61.3007C47.1297 61.5022 46.8338 64.2335 47.9561 67.1095C49.1106 70.068 50.1097 73.1123 52.7991 74.4511C53.154 76.3195 53.5163 78.1858 53.9365 80.0402C56.5348 83.9378 60.0915 87.2747 64.1627 89.4989C64.8273 91.1068 65.2775 92.8005 65.6741 94.4942C65.791 95.2767 65.985 96.071 66.2101 96.8631C65.8767 97.8279 65.299 98.6747 64.5593 99.4465C62.8882 100.776 60.9683 101.967 59.0603 103.027C56.82 104.067 48.744 108.729 45.9356 110.616C43.7274 111.839 41.5299 113.093 39.3753 114.454C38.2927 115.15 37.1564 115.815 36.0202 116.469C32.7829 118.066 29.4492 119.662 26.8551 121.937C26.3835 122.257 25.9118 122.59 25.4616 122.943C23.6072 124.349 22.8354 126.288 22.5245 128.41C20.7451 126.341 19.0943 124.145 17.6043 121.828C7.34593 105.964 1.84691 84.2368 2.37216 65.6484C2.99388 43.4176 15.3854 24.1646 34.2622 12.0292C34.3479 11.9767 34.4015 11.9124 34.4551 11.847C47.9937 2.80093 64.1048 2.08273 80.0027 2.09238C80.4207 2.09238 102.134 3.19969 117.509 12.3937C141.368 26.66 150.74 57.4792 145.809 83.2592ZM51.0165 65.329C50.9136 65.0095 50.8257 64.6847 50.7614 64.3503C50.6531 63.7865 50.234 63.5764 49.8009 63.6042C50.01 63.4917 50.2919 63.4317 50.6692 63.4252C50.7818 64.0609 50.8997 64.6955 51.0165 65.329Z" fill="black"/>
</svg>
