<svg width="100%" height="100%" viewBox="0 0 647 267" fill="none" xmlns="http://www.w3.org/2000/svg">
  <path
    d="M1 171.043C0.999998 163.251 5.87327 155.784 8.73844 152.03C23.6982 132.424 46.8496 127.465 70.6865 125.618C92.667 123.915 115.139 124.155 136.431 130.379C152.702 135.136 168.06 141.62 183.042 148.924M183.042 148.924C198.826 156.619 214.194 165.224 229.777 173.68C237.006 177.603 244.358 181.265 251.832 184.574M183.042 148.924C186.646 130.164 208.296 121.905 225.491 127.707M183.042 148.924C182.849 149.929 182.708 150.965 182.622 152.03C179.965 184.932 214.232 193.466 240.318 187.906C244.273 187.063 248.109 185.941 251.832 184.574M251.832 184.574C257.796 187.215 263.839 189.631 269.959 191.777M251.832 184.574C254.934 183.436 257.957 182.127 260.905 180.668M269.959 191.777C270.28 191.89 270.601 192.001 270.922 192.112M269.959 191.777C270.081 192.294 270.205 192.811 270.331 193.327M269.959 191.777C269.889 191.482 269.82 191.187 269.752 190.891M270.922 192.112C272.923 192.804 274.932 193.466 276.949 194.097M270.922 192.112C271.38 192.584 271.841 193.054 272.305 193.52M270.922 192.112C270.53 191.707 270.139 191.3 269.752 190.891M276.949 194.097C277.121 194.151 277.293 194.205 277.466 194.258M276.949 194.097C277.093 194.117 277.236 194.138 277.38 194.159M276.949 194.097C275.406 193.877 273.859 193.684 272.305 193.52M277.466 194.258C286.308 197.001 295.31 199.152 304.472 200.576M277.466 194.258C285.628 203.655 295.671 212.005 306.862 218.885M277.466 194.258C277.437 194.225 277.408 194.192 277.38 194.159M304.472 200.576C314.411 202.121 324.539 202.81 334.854 202.471C340.422 202.289 346.192 201.906 351.996 201.239M304.472 200.576C320.495 205.605 336.126 212.274 351.744 218.001C354.914 219.163 358.222 220.383 361.629 221.578M304.472 200.576C295.584 197.786 286.574 195.5 277.38 194.159M351.996 201.239C355.922 200.788 359.864 200.207 363.77 199.471M351.996 201.239C342.875 195.279 339.655 188.064 339.518 178.557M351.996 201.239C352.338 201.463 352.688 201.684 353.047 201.905C357.787 204.811 362.747 206.769 367.823 207.933M363.77 199.471C370.872 198.132 377.855 196.277 384.408 193.753M363.77 199.471C359.909 191.866 355.577 184.509 350.84 177.397M363.77 199.471C365.185 202.258 366.537 205.079 367.823 207.933M384.408 193.753C386.153 193.08 387.868 192.36 389.547 191.59C389.718 191.511 389.888 191.432 390.057 191.352M384.408 193.753C381.089 199.055 377.483 204.127 373.556 208.913M384.408 193.753C386.044 191.138 387.61 188.468 389.11 185.748M390.057 191.352C401.445 185.984 408.89 177.716 412.878 167.813M390.057 191.352C389.807 189.471 389.49 187.602 389.11 185.748M390.057 191.352C390.117 191.808 390.174 192.265 390.227 192.723C390.822 197.893 390.839 203.463 389.473 208.578M412.878 167.813C414.022 164.973 414.882 161.998 415.468 158.919M412.878 167.813C414.166 169.901 415.294 172.083 416.241 174.36C419.228 181.535 420.801 194.18 414.371 200.318C411.655 202.91 406.904 204.054 403.489 205.192C398.893 206.724 394.195 207.891 389.473 208.578M412.878 167.813C411.721 165.937 410.434 164.137 409.031 162.413M415.468 158.919C415.851 156.912 416.117 154.86 416.271 152.773M415.468 158.919C418.288 157.246 420.992 155.439 423.554 153.49M415.468 158.919C413.383 160.155 411.234 161.319 409.031 162.413M416.271 152.773C416.5 149.662 416.478 146.472 416.217 143.228M416.271 152.773C412.422 152.007 408.598 150.812 404.842 149.31M416.271 152.773C416.884 152.895 417.497 153.006 418.112 153.106C420.02 153.417 421.833 153.539 423.554 153.49M416.217 143.228C415.928 139.64 415.346 135.987 414.484 132.306C413.809 129.42 413.014 126.592 412.106 123.824M416.217 143.228C413.14 142.989 410 143.045 406.84 143.316M416.217 143.228C417.851 143.354 419.467 143.564 421.059 143.868C424.502 144.527 427.639 145.791 430.499 147.495M412.106 123.824C410.924 120.221 409.55 116.721 407.995 113.327M412.106 123.824C410.723 130.572 408.818 137.182 406.84 143.316M412.106 123.824C413.826 115.434 414.74 106.83 413.986 98.6603M407.995 113.327C405.662 108.235 402.922 103.383 399.815 98.7893M407.995 113.327C403.071 122.186 395.534 129.687 384.786 135.14C383.864 135.608 382.932 136.067 381.99 136.517M407.995 113.327C410.541 108.746 412.388 103.803 413.619 98.5914M399.815 98.7893C391.023 85.7886 379.291 74.8479 365.516 66.3352C364.396 65.6431 363.242 64.9562 362.056 64.2781M399.815 98.7893C398.744 99.0382 397.682 99.3466 396.631 99.7174C384.504 103.998 373.567 111.195 362.654 118.424M399.815 98.7893C404.33 97.7397 409 97.7468 413.619 98.5914M362.056 64.2781C357.041 61.4107 351.468 58.7011 345.609 56.4235M362.056 64.2781C356.501 70.0058 352.212 77.07 348.003 83.6781C347.031 85.204 346.063 86.7319 345.097 88.2602M362.056 64.2781C363.462 62.8281 364.949 61.4638 366.536 60.2141C368.335 58.7982 370.235 57.6408 372.215 56.7095M345.609 56.4235C336.213 52.7711 326.08 50.2299 316.33 49.9309M345.609 56.4235C354.533 55.257 363.633 55.2225 372.215 56.7095M345.609 56.4235C339.258 57.2538 332.995 58.6576 327.072 60.4944M316.33 49.9309C312.066 49.8002 307.876 50.0981 303.852 50.9193C302.792 51.1357 301.776 51.3903 300.803 51.6809M316.33 49.9309C311.84 46.3095 306.937 43.3056 301.587 41.2571M316.33 49.9309C320.213 53.063 323.787 56.657 327.072 60.4944M300.803 51.6809C297.189 52.761 294.177 54.34 291.701 56.3215M300.803 51.6809C300.881 48.1165 301.127 44.6245 301.587 41.2571M300.803 51.6809C300.742 54.4705 300.783 57.3044 300.905 60.1575C301.066 63.9229 301.354 67.6627 301.765 71.3749M291.701 56.3215C287.309 59.837 284.607 64.6191 283.239 70.1284M291.701 56.3215C288.547 50.6951 285.901 44.5925 284.721 38.317M291.701 56.3215C293.44 59.4244 295.334 62.3825 297.221 65.145C298.678 67.2767 300.195 69.3504 301.765 71.3749M283.239 70.1284C281.928 75.4112 281.845 81.3626 282.674 87.5069M283.239 70.1284C280.641 69.0774 277.985 68.2215 275.276 67.5867M283.239 70.1284C287.414 71.817 291.436 74.0092 295.28 76.5972M282.674 87.5069C285.313 107.042 297.187 128.527 308.216 136.67C308.566 136.929 308.918 137.182 309.272 137.429M282.674 87.5069C286.466 83.5476 290.723 79.9114 295.28 76.5972M282.674 87.5069C270.069 100.669 262.602 117.402 266.333 137.747C266.986 141.311 267.936 144.481 269.149 147.291M309.272 137.429C309.577 137.643 309.883 137.852 310.19 138.058M309.272 137.429C310.026 137.042 310.796 136.679 311.58 136.34M309.272 137.429C304.748 139.751 300.78 142.938 297.489 147.098M310.19 138.058C312.494 139.597 314.867 140.912 317.295 142.02M310.19 138.058C308.026 140.713 305.809 143.344 303.533 145.929M310.19 138.058C310.656 137.486 311.119 136.914 311.58 136.34M317.295 142.02C320.874 143.654 324.574 144.838 328.349 145.628M317.295 142.02C312.715 143.588 308.127 144.907 303.533 145.929M317.295 142.02C319.678 141.204 322.058 140.321 324.436 139.376M328.349 145.628C332.113 146.417 335.952 146.814 339.822 146.876M328.349 145.628C327 143.572 325.691 141.491 324.436 139.376M328.349 145.628C331.88 151.013 335.684 156.23 339.496 161.436M339.822 146.876C349.421 147.031 359.208 145.122 368.503 142.001M339.822 146.876C339.248 142.635 338.301 138.36 336.869 133.906M339.822 146.876C340.464 151.614 340.643 156.309 340.519 161.163M368.503 142.001C370.651 141.28 372.772 140.494 374.859 139.654M368.503 142.001C367.097 140.067 365.65 138.164 364.171 136.295M368.503 142.001C370.571 144.845 372.552 147.757 374.42 150.733M374.859 139.654C377.287 138.676 379.669 137.625 381.99 136.517M374.859 139.654C379.988 141.547 384.954 143.813 389.596 146.455M374.859 139.654C371.355 138.361 367.776 137.241 364.171 136.295M381.99 136.517C380.425 135.422 378.9 134.317 377.418 133.213C371.491 128.799 366.731 123.798 362.654 118.424M381.99 136.517C386.301 139.532 390.908 142.462 395.703 145.024M413.619 98.5914C413.705 98.228 413.787 97.8633 413.867 97.4974M413.619 98.5914C413.741 98.6138 413.864 98.6368 413.986 98.6603M413.867 97.4974C415.983 87.8007 416.016 77.2128 414.484 66.3352C414.07 63.391 413.524 60.525 412.843 57.7428M413.867 97.4974C413.911 97.884 413.95 98.2717 413.986 98.6603M413.867 97.4974C413.011 89.8861 410.657 82.6836 406.096 76.4235C397.856 65.1119 385.671 59.0408 372.215 56.7095M412.843 57.7428C408.383 39.52 398.104 24.8923 380.705 15.44C377.344 13.6139 373.88 12.0017 370.335 10.6329M412.843 57.7428C399.714 53.8328 384.443 50.9581 372.215 56.7095M412.843 57.7428C415.167 58.4348 417.424 59.1593 419.585 59.8741C440.682 66.8522 450.003 83.19 448.943 105.442C448.686 110.839 447.872 115.856 446.57 120.515M370.335 10.6329C367.295 9.45867 364.195 8.46359 361.05 7.66633M370.335 10.6329C398.533 20.3712 425.626 36.6489 440.442 62.0845C450.837 79.9313 454.194 104.622 449.49 125.185M370.335 10.6329C367.248 9.56681 364.148 8.57909 361.05 7.66633M361.05 7.66633C352.518 5.50345 343.654 4.79643 334.741 5.91837C312.701 8.69266 304.056 23.1767 301.587 41.2571M361.05 7.66633C354.32 5.68404 347.598 4.05516 341.032 2.7445C321.52 -1.15055 290.402 -0.346801 284.809 24.6215C283.783 29.2009 283.873 33.8037 284.721 38.317M301.587 41.2571C297.24 39.5927 292.598 38.559 287.643 38.3371C286.674 38.2938 285.7 38.2881 284.721 38.317M301.765 71.3749C301.794 71.6363 301.824 71.8975 301.854 72.1586M301.765 71.3749C301.911 71.5634 302.058 71.7515 302.205 71.9391M301.854 72.1586C302.271 75.7659 302.805 79.347 303.453 82.9003M301.854 72.1586C301.971 72.0852 302.088 72.0121 302.205 71.9391M301.854 72.1586C299.608 73.5678 297.411 75.0473 295.28 76.5972M303.453 82.9003C306.287 98.4413 311.3 113.448 318.248 127.775M303.453 82.9003C300.833 80.6141 298.105 78.4988 295.28 76.5972M303.453 82.9003C313.464 91.6347 321.907 102.863 328.175 114.2M318.248 127.775C319.175 129.685 320.135 131.583 321.129 133.468M318.248 127.775C316.083 130.637 313.861 133.5 311.58 136.34M318.248 127.775C320.777 124.434 323.231 121.095 325.616 117.797C326.479 116.604 327.331 115.405 328.175 114.2M321.129 133.468C321.264 133.723 321.399 133.978 321.535 134.233C322.462 135.972 323.432 137.685 324.436 139.376M321.129 133.468C322.772 133.159 324.457 132.924 326.183 132.76C329.42 132.452 332.832 132.326 336.363 132.384M321.129 133.468C317.752 134.103 314.559 135.052 311.58 136.34M324.436 139.376C328.591 137.726 332.736 135.891 336.869 133.906M339.496 161.436C339.819 161.879 340.143 162.321 340.467 162.763M339.496 161.436C322.364 165.983 303.933 169.022 289.725 165M339.496 161.436C339.837 161.346 340.178 161.255 340.519 161.163M340.467 162.763C343.985 167.568 347.492 172.375 350.78 177.307C350.8 177.337 350.82 177.367 350.84 177.397M340.467 162.763C340.488 162.227 340.505 161.694 340.519 161.163M340.467 162.763C340.345 165.93 340.103 169.173 339.785 172.546C339.587 174.648 339.49 176.649 339.518 178.557M350.84 177.397C357.396 176.65 363.924 175.753 370.39 174.587C375.239 173.712 380.091 172.646 384.87 171.362M350.84 177.397C347.073 177.826 343.297 178.205 339.518 178.557M367.823 207.933C368.429 209.279 369.02 210.632 369.597 211.993C369.741 212.333 369.887 212.677 370.036 213.026M367.823 207.933C369.719 208.368 371.632 208.692 373.556 208.913M370.036 213.026C371.58 216.65 373.368 220.777 374.839 225.078M370.036 213.026C367.375 216.008 364.575 218.864 361.629 221.578M370.036 213.026C371.237 211.681 372.41 210.309 373.556 208.913M374.839 225.078C374.929 225.341 375.018 225.605 375.106 225.87M374.839 225.078C377.931 223.623 380.764 221.779 383.199 219.474C386.431 216.416 388.388 212.64 389.473 208.578M374.839 225.078C374.516 225.229 374.191 225.377 373.863 225.52M375.106 225.87C376.572 230.3 377.668 234.89 377.79 239.285M375.106 225.87C389.199 229.777 404.04 231.682 417.261 226.615C430.103 221.695 438.101 209.118 444.069 197.484C447.199 191.383 449.963 184.839 452.054 178.074M375.106 225.87C374.691 225.755 374.277 225.638 373.863 225.52M377.79 239.285C377.859 241.757 377.62 244.167 376.965 246.452C369.136 273.753 326.935 267.591 308.84 257.107C305.921 255.416 303.216 253.497 300.704 251.386M377.79 239.285C399.42 238.951 420.39 232.253 437.268 217.207C450.115 205.754 455.403 192.364 452.054 178.074M377.79 239.285C366.542 239.459 355.116 237.911 343.993 234.922M300.704 251.386C289.552 242.015 282.224 228.879 277.101 215.28C274.401 208.111 272.152 200.776 270.331 193.327M300.704 251.386C273.267 257.373 239.293 257.663 229.267 231.376C225.525 221.566 229.224 207.349 236.634 200.091C243.546 193.321 253.724 192.673 262.762 192.893C265.301 192.955 267.823 193.103 270.331 193.327M300.704 251.386C310.655 249.214 319.747 246.293 326.523 243.618C332.759 241.157 338.571 238.24 343.993 234.922M270.331 193.327C270.99 193.386 271.648 193.45 272.305 193.52M269.752 190.891C269.025 187.75 268.374 184.591 267.796 181.416M269.752 190.891C266.633 187.601 263.678 184.183 260.905 180.668M267.796 181.416C267.722 181.01 267.649 180.603 267.577 180.197M267.796 181.416C267.999 181.484 268.203 181.55 268.408 181.615M267.796 181.416C266.213 180.886 264.687 180.237 263.214 179.486M267.577 180.197C267.409 179.241 267.247 178.285 267.092 177.327M267.577 180.197C267.852 180.672 268.129 181.144 268.408 181.615M267.577 180.197C267.123 179.411 266.676 178.62 266.235 177.824M267.092 177.327C265.435 167.088 264.526 156.713 264.305 146.334M267.092 177.327C266.807 177.494 266.521 177.66 266.235 177.824M267.092 177.327C273.728 173.444 279.97 168.814 285.864 163.685M264.305 146.334C264.061 134.915 264.651 123.493 265.993 112.243C267.481 99.7624 273.529 83.2114 275.276 67.5867M264.305 146.334C256.257 144.479 248.234 141.287 240.262 136.5C239.944 136.31 239.628 136.117 239.315 135.922M264.305 146.334C265.919 146.706 267.533 147.025 269.149 147.291M275.276 67.5867C276.369 57.8103 275.779 48.3966 271.336 40.5695M275.276 67.5867C268.226 65.9345 260.823 65.78 253.184 67.582C225.008 74.2287 227.757 106.761 236.318 133.528M271.336 40.5695C270.328 38.7944 269.122 37.1009 267.693 35.5033C261.023 28.0481 250.616 25.6238 240.942 27.5687C222.867 31.2026 211.295 46.9644 207.843 64.2948C203.423 86.4831 209.835 107.806 224.169 123.423M271.336 40.5695C266.198 42.0548 261.215 44.1235 256.698 46.3285C235.118 56.8616 221.933 78.5391 221.389 102.608C221.229 109.663 222.268 116.641 224.169 123.423M271.336 40.5695C275.75 39.2936 280.277 38.4483 284.721 38.317M224.169 123.423C226.51 125.974 229.063 128.373 231.815 130.598M224.169 123.423C224.572 124.86 225.013 126.289 225.491 127.707M231.815 130.598C233.317 131.813 234.878 132.976 236.497 134.085M231.815 130.598C233.399 131.504 234.897 132.483 236.318 133.528M231.815 130.598C231.205 130.25 230.582 129.912 229.947 129.586C228.507 128.847 227.016 128.222 225.491 127.707M236.497 134.085C237.418 134.715 238.357 135.328 239.315 135.922M236.497 134.085C240.32 145.893 245.248 156.529 249.103 163.251C251.502 167.434 254.168 171.563 257.073 175.591M236.497 134.085C236.437 133.9 236.377 133.714 236.318 133.528M239.315 135.922C251.869 146.783 258.077 163.107 266.235 177.824M239.315 135.922C238.354 135.091 237.356 134.292 236.318 133.528M269.149 147.291C278.581 148.848 288.041 148.645 297.489 147.098M269.149 147.291C272.729 155.589 278.597 160.757 285.864 163.685M297.489 147.098C299.505 146.769 301.519 146.378 303.533 145.929M297.489 147.098C295.895 149.114 294.46 151.359 293.197 153.843C292.324 155.561 291.634 157.251 291.094 158.924M303.533 145.929C299.568 150.436 295.428 154.803 291.094 158.924M336.869 133.906C336.877 133.902 336.886 133.897 336.895 133.893C337.837 133.44 338.773 132.973 339.704 132.493M336.869 133.906C336.706 133.401 336.538 132.894 336.363 132.384M339.704 132.493C344.517 130.01 349.192 127.18 353.816 124.218M339.704 132.493C347.585 132.872 355.943 134.134 364.171 136.295M339.704 132.493C338.58 132.439 337.466 132.403 336.363 132.384M353.816 124.218C356.775 122.322 359.714 120.372 362.654 118.424M353.816 124.218C351.95 122.197 350.064 120.226 348.173 118.307C343.693 113.763 339.05 109.378 334.386 105.017M353.816 124.218C357.368 128.067 360.851 132.098 364.171 136.295M362.654 118.424C355.591 109.115 350.578 98.6877 345.097 88.2602M413.986 98.6603C426.764 101.121 439.1 109.956 446.57 120.515M446.57 120.515C447.649 122.04 448.627 123.602 449.49 125.185M446.57 120.515C443.55 131.326 437.904 140.216 430.499 147.495M449.49 125.185C449.733 125.63 449.966 126.077 450.19 126.525C458.3 142.745 457.298 161.103 452.054 178.074M449.49 125.185C449.041 127.146 448.519 129.07 447.923 130.946C445.269 139.3 440.934 146.421 434.535 150.318M452.054 178.074C450.908 173.187 448.752 168.194 445.543 163.138C442.528 158.389 438.905 153.848 434.535 150.318M373.863 225.52C369.692 224.326 365.593 222.969 361.629 221.578M373.863 225.52C367.137 228.458 359.293 229.645 351.69 229.76M361.629 221.578C358.487 224.472 355.178 227.205 351.69 229.76M277.38 194.159C276.903 193.608 276.432 193.054 275.968 192.496C273.154 189.116 270.687 185.444 268.408 181.615M272.305 193.52C282.446 203.703 294.168 212.506 306.862 218.885M343.993 234.922C346.651 233.296 349.216 231.573 351.69 229.76M343.993 234.922C330.937 231.413 318.299 225.917 306.862 218.885M351.69 229.76C346.35 229.841 341.129 229.394 336.498 228.656C326.249 227.021 316.287 223.621 306.862 218.885M373.556 208.913C378.818 209.517 384.16 209.351 389.473 208.578M389.11 185.748C392.412 179.762 395.394 173.536 398.1 167.14M389.11 185.748C388.107 180.85 386.668 176.049 384.87 171.362M398.1 167.14C399.691 163.38 401.187 159.562 402.595 155.7M398.1 167.14C401.853 165.733 405.511 164.162 409.031 162.413M398.1 167.14C393.795 168.755 389.365 170.155 384.87 171.362M402.595 155.7C403.053 154.443 403.502 153.182 403.943 151.916C404.24 151.062 404.54 150.193 404.842 149.31M402.595 155.7C404.936 157.794 407.094 160.031 409.031 162.413M402.595 155.7C398.711 152.225 394.321 149.145 389.596 146.455M404.842 149.31C405.505 147.374 406.177 145.371 406.84 143.316M404.842 149.31C401.74 148.069 398.685 146.618 395.703 145.024M406.84 143.316C403.133 143.633 399.397 144.245 395.703 145.024M327.072 60.4944C320.317 62.5896 314.002 65.2483 308.5 68.2622C306.37 69.4288 304.267 70.6544 302.205 71.9391M327.072 60.4944C329.157 62.9288 331.126 65.461 332.984 68.0355C337.698 74.5667 341.498 81.4136 345.097 88.2602M302.205 71.9391C311.73 84.093 323.12 94.4845 334.386 105.017M285.864 163.685C287.111 164.188 288.4 164.625 289.725 165M285.864 163.685C287.638 162.141 289.381 160.552 291.094 158.924M289.725 165C289.997 162.986 290.433 160.968 291.094 158.924M289.725 165C288.92 170.975 289.565 176.907 290.119 183.333M340.519 161.163C353.416 157.685 365.51 153.411 374.42 150.733M374.42 150.733C375.018 150.553 375.602 150.381 376.171 150.216C380.417 148.986 384.941 147.642 389.596 146.455M374.42 150.733C378.55 157.315 382.127 164.207 384.87 171.362M389.596 146.455C391.611 145.942 393.651 145.457 395.703 145.024M430.499 147.495C431.911 148.336 433.255 149.283 434.535 150.318M430.499 147.495C428.328 149.629 426.006 151.625 423.554 153.49M434.535 150.318C431.389 152.234 427.744 153.37 423.554 153.49M268.408 181.615C268.66 181.693 268.912 181.769 269.167 181.841C275.639 183.688 282.869 183.825 290.119 183.333M266.235 177.824C265.237 178.395 264.23 178.95 263.214 179.486M225.491 127.707C229.018 138.193 234.486 148.136 240.602 157.074C245.099 163.647 250.472 170.555 257.073 175.591M260.905 180.668C261.68 180.284 262.449 179.89 263.214 179.486M260.905 180.668C259.586 178.996 258.308 177.303 257.073 175.591M263.214 179.486C261.055 178.387 259.011 177.07 257.073 175.591M328.175 114.2C330.295 111.17 332.358 108.105 334.386 105.017M328.175 114.2C331.311 119.873 333.903 125.574 335.874 131.003C336.042 131.465 336.205 131.926 336.363 132.384M334.386 105.017C338.025 99.4772 341.552 93.8658 345.097 88.2602M339.518 178.557C330.467 179.401 321.401 180.09 312.41 180.934C305.547 181.579 297.821 182.811 290.119 183.333M290.119 183.333C290.125 183.403 290.131 183.472 290.137 183.542M289.117 175.38C289.286 185.21 290.566 199.489 303.059 201.224C312.51 202.537 321.554 195.314 328.677 190.343C351.262 174.577 372.614 157.065 395.101 141.148C414.455 127.448 434.239 114.361 455.008 102.891C480.333 88.9058 508.932 74.2426 538.492 73.2497C561.458 72.4782 582.504 80.7704 601.516 93.0863C619.313 104.616 631.604 119.872 645.156 135.593"
    stroke="black" stroke-width="2" stroke-linecap="round" />
</svg>