<svg width="488" height="523" viewBox="0 0 488 523" fill="none" xmlns="http://www.w3.org/2000/svg">
  <path
    d="M29.158 368.618C28.3038 367.622 31.4384 368.987 31.5884 369.05C33.6546 369.916 34.1722 371.421 34.0972 373.558C33.8013 381.992 26.4016 385.637 33.47 393.589C41.4194 402.532 56.8605 405.424 68.1229 406.094C84.1785 407.048 98.7486 403.439 113.477 397.548C123.648 393.48 131.75 387.084 141.231 381.75C151.042 376.232 159.615 369.054 166.28 359.916C171.511 352.744 174.77 343.19 173.453 334.24C173.264 332.951 173.635 328.485 172.395 329.105M175.218 330.516C172.937 327.096 181.356 335.631 184.411 338.727L184.547 338.865C189.453 343.839 194.833 348.79 198.777 354.585C205.206 364.031 210.022 374.993 215.045 385.239C220.714 396.803 220.54 409.709 218.259 422.087C215.881 435 210.953 444.346 203.402 455.015C195.189 466.622 182.51 473.817 173.101 484.337C164.046 494.461 153.379 501.012 142.917 509.425C138.857 512.689 134.913 515.451 130.216 517.657C128.873 518.288 124.959 521.971 123.473 521.42C122.017 520.881 123.709 503.192 123.709 501.507C123.709 491.742 123.405 481.935 122.846 472.185C121.966 456.822 118.819 440.754 115.477 425.772C111.075 406.04 100.078 388.97 90.9374 371.206C87.0463 363.644 82.0513 356.891 77.923 349.489C73.3399 341.271 69.9633 332.52 67.3389 323.499C65.4147 316.884 62.8519 309.378 69.2206 304.526C75.4013 299.817 81.2617 296.399 86.8998 290.806C94.4454 283.321 91.7684 286.03 100.228 277.753C103.625 274.428 112.266 268.088 113.125 262.465C114.009 256.675 104.667 252.893 100.816 251.724C87.457 247.668 75.6769 241.494 61.8901 241.903C48.4306 242.302 46.8305 261.316 49.8849 272.872M49.8849 272.872C50.4232 274.909 51.1061 276.714 51.8941 278.145C55.6831 285.023 64.2621 289.001 70.0829 281.986C70.5109 281.47 71.8579 279.892 73.0725 278.12M49.8849 272.872C51.2986 273.077 52.7484 272.922 54.2069 272.225C59.2393 269.822 62.2932 271.16 68.1229 271.99C68.9126 272.103 82.9786 271.919 79.5694 276.028C78.81 276.943 76.1338 277.72 73.0725 278.12M49.8849 272.872C47.0421 272.46 44.3451 270.591 42.0157 268.737C39.5568 266.779 37.8796 264.014 35.1768 262.465M73.0725 278.12C74.7304 275.7 76.1414 269.097 74.6302 268.167C67.3389 261.582 61.8901 257.903 61.8901 270.99C60.229 274.47 67.3287 278.87 73.0725 278.12ZM35.1768 262.465C34.9305 262.323 34.6756 262.192 34.4109 262.073C30.7058 260.399 34.6024 258.96 35.1768 262.465ZM35.1768 262.465C37.1212 274.325 29.9086 288.28 21.2397 296.647C18.4816 299.309 14.1031 301.538 11.9884 304.801C9.71521 308.308 20.8675 309.844 22.4941 310.21C28.6625 311.6 33.2301 315.238 37.2333 320.089C41.8564 325.691 29.5033 322.509 27.5117 321.186C23.1236 318.272 20.4114 314.96 15.2028 313.425C12.5611 312.646 8.15732 311.701 10.6556 316.404C13.3148 321.409 21.2984 320.215 22.0629 326.713C22.6046 331.319 16.2357 337.11 23.1213 338.513C28.9896 339.708 35.1372 338.239 40.9965 339.532C44.8464 340.381 50.0884 344.912 44.9949 348.273C43.5916 349.2 42.1868 349.659 40.7838 349.773M40.7838 349.773C33.9541 350.331 27.1673 342.729 20.8085 341.139C19.8442 340.898 13.5105 338.525 16.7708 339.14C21.1629 339.969 25.632 341.972 29.9421 343.217C34.0751 344.41 37.8696 346.627 40.7838 349.773ZM40.7838 349.773C41.5138 350.561 42.1886 351.408 42.7997 352.311C44.9465 355.485 41.2059 360.356 38.7229 362.19C33.1078 366.335 26.7322 363.973 23.0429 358.661C20.3665 354.809 17.8085 349.704 15.7516 345.49C14.9031 343.752 15.9218 344.288 16.4572 343.217M10.1068 317.109C7.67237 316.548 4.41737 314.361 2.38436 312.837C-0.0107104 311.04 1.17221 308.672 2.42356 306.447C8.37023 295.875 20.4496 290.426 26.61 279.713C28.7116 276.058 31.3572 269.935 28.4132 266.071C27.0159 264.237 22.7324 263.494 20.73 264.621C20.5854 264.702 20.4465 264.792 20.3123 264.889M20.3123 264.889C18.2668 266.364 17.3175 269.401 14.0268 266.894C12.4665 265.705 7.06401 259.501 5.59877 264.385C3.35354 271.869 16.4007 272.28 19.2012 267.443C19.6886 266.601 20.0503 265.749 20.3123 264.889ZM20.3123 264.889C22.1194 258.957 19.19 252.634 20.1028 246.549C20.5216 243.757 21.8774 240.541 22.7169 237.903C23.4295 235.664 25.9636 232.166 26.61 229.903C30.2169 223.903 31.6616 222.799 35.7828 218.678C38.9439 215.517 40.8643 211.25 42.9215 207.127M42.9215 207.127C45.0402 202.882 47.3038 198.789 51.2169 196.216C52.1611 195.596 61.0741 189.593 64.6997 195.537M42.9215 207.127C43.3863 207.502 43.9312 207.851 44.5636 208.172C46.4611 209.135 48.5232 209.534 50.6555 209.563M42.9215 207.127C36.8155 202.209 44.5203 193.042 48.758 189.16C57.8645 180.82 69.6054 170.847 80.7169 165.719C91.4831 160.75 108.217 152.903 118.217 150.903C128.284 146.731 133.72 148.149 144.445 146.158C152.289 144.702 161.114 142.996 169.27 143.936M64.6997 195.537C64.8284 195.748 64.9505 195.974 65.0653 196.216C65.1685 196.302 67.861 200.575 69.5784 204.975M64.6997 195.537C64.6122 195.607 64.5249 195.677 64.4381 195.746C59.347 199.802 54.7137 204.456 50.6555 209.563M64.6997 195.537C70.7776 190.69 78.6177 184.3 86.7821 184.3C91.4837 184.3 95.9151 187.544 93.2501 192.571C89.2256 200.163 77.6848 202.718 69.5784 204.975M69.5784 204.975C71.4209 209.696 72.1412 214.562 67.3389 214.562C64.2959 218.222 48.8654 216.264 45.5436 219.658C43.7946 221.445 43.5556 219.916 44.6028 218.208C46.4405 215.209 48.4641 212.32 50.6555 209.563M69.5784 204.975C68.7967 205.193 68.0469 205.408 67.3389 205.624C62.4585 207.116 56.3101 209.639 50.6555 209.563M169.27 143.936C170.378 144.063 171.473 144.24 172.552 144.472C181.049 146.303 189.343 151.22 197.13 154.939C205.62 158.994 213.258 164.166 220.219 170.501C226.411 176.136 230.954 182.458 234.998 189.748C239.926 198.633 245.697 207.954 246.562 218.325C248.326 239.495 234.418 259.76 222.022 275.557C210.611 290.1 189.962 302.746 171.141 294.687C156.509 288.422 148.003 275.624 142.995 261.132C139.069 249.771 135.836 237.683 135.312 225.616C134.949 217.261 137.706 209.487 142.301 202.696M169.27 143.936C162.827 150.5 156.543 157.497 152.403 165.719C147.286 175.88 144.789 187.828 142.877 198.96C142.667 200.185 142.473 201.432 142.301 202.696M169.27 143.936C170.337 142.85 171.407 141.775 172.473 140.709C178.074 135.109 183.358 131.271 190.898 128.714C200.287 125.529 209.787 122.817 219.043 119.227C225.592 116.688 232.835 114.285 238.33 109.741C242.945 105.924 248.561 100.938 251.07 95.3938C253.492 90.04 252.834 83.6283 252.834 77.9106M142.301 202.696C148.913 192.924 159.33 185.19 169.729 180.693C194.029 170.185 221.793 190.637 228.373 214.562C238.908 252.87 177.316 268.329 153.893 247.725C141.248 236.602 140.165 218.337 142.301 202.696ZM253.539 80.0273C252.811 79.2081 252.463 78.2092 252.128 77.2049M251.423 81.4385C251.209 79.5173 250.071 77.4151 250.135 75.4142M250.135 75.4142C250.154 74.8239 250.277 74.2424 250.56 73.6769C250.707 73.3835 250.913 73.1974 251.155 73.071M250.135 75.4142C248.09 79.3241 244.535 82.4205 239.506 81.1249C235.658 80.1338 238.265 71.2598 238.8 69.0905C239.971 64.3415 243.998 52.7683 249.306 51.1761C253.45 49.9329 260.818 60.9489 261.732 63.7985C262.862 67.3212 255.942 71.3401 253.304 72.5009C252.596 72.8125 251.762 72.7551 251.155 73.071M250.135 75.4142C250.532 74.6551 250.872 73.8653 251.155 73.071M251.155 73.071C251.251 72.8027 251.34 72.534 251.423 72.2657M252.834 52.5089C256.781 56.4558 261.248 59.4012 266.201 61.8777C269.123 63.339 275.327 43.5704 275.648 40.8665C276.567 33.126 271.798 27.7158 263.731 29.6945C253.991 32.0836 252.93 43.7194 254.951 51.8033M272.591 43.3361C271.226 37.3331 266.229 31.5367 272.042 25.8528C274.574 23.3768 278.841 22.9123 282.077 21.8544C284.418 21.089 288.794 18.4365 291.211 19.7376C293.596 21.0219 293.759 24.6012 293.759 26.872C293.759 33.1166 291.979 36.9807 287.8 41.4937C283.394 46.2527 276.002 52.2766 271.885 44.0417M293.053 24.9904C289.189 20.1601 300.004 18.2163 302.226 17.2288C306.432 15.3593 311.24 16.4838 315.767 18.2921M315.767 18.2921C318.814 19.509 321.733 21.0358 324.256 22.168C331.38 25.3646 337.711 29.7682 345.268 32.0073C348.294 32.904 351.381 33.7796 354.44 34.5553L354.451 34.5579C354.881 34.6671 358.399 35.5591 358.204 35.1041C355.021 27.6782 344.807 24.7208 338.29 21.4624C333.868 19.2513 324.696 12.6537 319.474 14.9944C317.809 15.7406 316.626 16.8954 315.767 18.2921ZM315.767 18.2921C313.394 22.1508 313.503 27.8558 312.81 31.8897C312.238 35.2188 311.64 38.5614 310.693 41.8073C310.179 43.5714 309.048 45.6598 309.321 47.5697C309.573 49.3299 310.501 50.1442 311.814 50.2927M311.814 50.2927C317.504 50.9365 330.425 39.0783 326.844 37.5345C318.048 33.7434 315.321 43.7846 311.814 50.2927ZM311.814 50.2927C311.034 51.7404 310.215 53.0132 309.282 53.9201C304.086 58.9716 297.334 61.658 290.858 64.8961C287.825 66.4128 285.652 68.1398 284.316 70.2217M284.316 70.2217C282.458 73.1179 282.217 76.701 283.527 81.3602C284.086 83.3457 284.78 85.2188 285.61 86.9291M284.316 70.2217C282.158 69.6873 279.832 69.7091 277.373 70.4625C274.064 71.4767 271.75 73.0941 270.116 75.1834M284.316 70.2217C287.831 71.0919 290.9 73.4372 293.367 76.4993C295.311 78.9127 299.118 85.2119 294.386 87.2402C291.091 88.6525 288.049 88.3683 285.61 86.9291M285.61 86.9291C287.098 89.9956 289.023 92.539 291.389 94.2696M285.61 86.9291C283.079 85.4356 281.196 82.6982 280.352 79.3217M291.389 94.2696C292.431 95.0318 293.559 95.6363 294.772 96.0585M291.389 94.2696C291.421 94.2782 291.453 94.2871 291.485 94.2962C292.71 94.6461 293.755 95.3254 294.772 96.0585M291.389 94.2696C287.281 93.1589 280.849 95.4022 276.628 95.5898C269.424 95.91 260.254 96.8057 257.695 88.1026C255.548 80.8034 263.514 75.8705 270.116 75.1834M294.772 96.0585C298.09 97.2132 302.049 97.0035 306.655 94.9234C311.536 92.7191 311.742 90.258 314.221 85.6722C317.454 79.6917 322.815 88.1139 319.984 92.7282C315.351 100.277 307.455 100.617 299.56 98.765C297.702 98.329 296.267 97.1356 294.772 96.0585ZM270.116 75.1834C272.744 74.9099 275.156 75.309 276.628 76.4993C280.14 79.3385 276.432 92.4531 272.159 94.453C266.646 97.0336 265.986 90.2714 266.358 86.6914C266.83 82.1441 267.774 78.1788 270.116 75.1834ZM323.394 84.261L322.688 84.9666M320.571 84.9666C312.916 84.9666 332.899 83.4046 342.815 81.2516M342.815 81.2516C343.882 81.0198 344.833 80.7812 345.62 80.537C348.133 79.7571 346.217 80.2268 342.815 81.2516ZM342.815 81.2516C338.395 82.5833 331.466 84.8522 328.49 86.5346C327.625 87.0235 327.269 87.552 327.294 88.0981M327.294 88.0981C327.375 89.8744 331.482 91.8362 335.186 93.2227M327.294 88.0981C329.996 89.6916 332.596 91.4474 335.186 93.2227M327.294 88.0981C325.352 86.9527 323.358 85.8912 321.277 84.9666M335.186 93.2227C337.871 94.2276 340.343 94.9303 340.916 95.041C350.287 96.8513 360.129 97.2348 369.65 96.9226C374.431 96.7658 379.582 96.0451 384.232 94.845C387.579 93.9813 391.429 92.4403 386.937 96.4914C377.896 104.646 368.364 108.491 356.243 104.802C348.296 102.383 341.775 97.7396 335.186 93.2227ZM301.52 59.5649C300.466 59.6607 295.786 61.5144 296.581 61.6817C304.258 63.2979 313.782 61.4263 320.885 58.3889C329.694 54.6224 336.83 48.9198 344.797 43.8065C350.314 40.2655 355.841 36.4841 362.594 36.0449C370.362 35.5396 377.624 39.0372 385.173 40.0825C397.881 41.8421 410.411 34.6378 421.316 29.0673C433.595 22.7946 446.418 17.5992 458.595 11.1528C467.778 6.29118 476.273 3.24768 486.388 1"
    stroke="black" stroke-width="2" stroke-linecap="round" />
</svg>