<?xml version="1.0" encoding="UTF-8" standalone="no"?>
<!-- Created with Inkscape (http://www.inkscape.org/) -->

<svg
   version="1.1"
   id="svg1"
   width="900.60144"
   height="824.38574"
   viewBox="0 0 900.60144 824.38574"
   xmlns="http://www.w3.org/2000/svg"
   xmlns:svg="http://www.w3.org/2000/svg">
  <defs
     id="defs1" />
  <g
     id="g1"
     transform="translate(-59.293587,-734.09534)">
    <path
       style="fill:#000000"
       d="m 531,1556.7998 c 0,-0.9723 1.06353,-3.3348 2.3634,-5.25 2.65158,-3.9067 5.72906,-10.4922 7.70234,-16.4821 0.86703,-2.6319 1.2657,-8.6459 1.16562,-17.5834 -0.13911,-12.4227 -0.4025,-14.2337 -3.08224,-21.1929 -1.61157,-4.1851 -2.76082,-7.7787 -2.55389,-7.9856 0.20693,-0.2069 -2.58139,-6.3791 -6.19627,-13.716 -7.56159,-15.3472 -17.31284,-29.7866 -27.08859,-40.1122 -3.7457,-3.9563 -8.47742,-8.945 -10.51493,-11.0859 -11.8498,-12.4513 -24.71173,-36.1909 -27.25555,-50.3063 -0.39472,-2.1903 -1.57767,-5.7623 -2.62878,-7.9378 -1.05111,-2.1756 -1.92484,-4.6586 -1.94162,-5.5178 -0.0507,-2.5978 -7.16627,-12.1611 -12.17835,-16.3676 -4.26094,-3.5762 -5.45,-4.031 -12.5,-4.781 -4.28513,-0.4558 -15.89114,-1.1285 -25.79114,-1.4949 -20.07114,-0.7429 -20.57436,-0.6628 -40.12196,6.3866 -21.13453,7.6216 -35.0479,8.9057 -47.64698,4.3972 -7.92383,-2.8355 -12.8181,-7.0123 -16.65755,-14.2159 -3.35815,-6.3005 -4.79969,-7.3433 -11.6566,-8.432 -21.63366,-3.4351 -61.75961,-24.259 -85.75501,-44.5037 -3.36486,-2.8389 -16.5954,-16.6918 -19.72157,-20.6492 -9.35209,-11.8389 -9.80838,-12.2324 -15.57002,-13.4285 -3.0376,-0.6307 -8.07608,-1.5296 -11.19661,-1.9977 -20.06553,-3.0098 -58.16996,-11.8353 -66.325129,-15.3618 -1.841714,-0.7964 -4.872236,-2.0152 -6.734493,-2.7084 -1.862256,-0.6933 -6.996582,-3.4305 -11.409612,-6.0828 -4.413029,-2.6524 -8.381252,-4.8224 -8.818271,-4.8224 -1.59783,0 -7.917492,-9.4025 -8.985502,-13.3688 -1.280881,-4.7569 -0.460588,-12.6478 1.761468,-16.9448 3.468035,-6.7065 17.756113,-19.4245 30.92688,-27.5286 6.33437,-3.8976 23.195119,-11.4155 31.932859,-14.2384 6.20867,-2.0058 6.56173,-2.2827 6.08776,-4.7744 -3.0529,-16.0491 -3.16986,-40.4486 -0.27391,-57.145 0.81087,-4.675 1.76089,-10.5793 2.11116,-13.1207 l 0.63686,-4.6208 -8.13622,-3.2797 c -13.93378,-5.6167 -24.34392,-14.7118 -31.518446,-27.537 -2.135818,-3.818 -3.95402,-7.3918 -4.04045,-7.9418 -0.08643,-0.55 -0.695874,-2.9842 -1.35432,-5.4093 -0.658445,-2.425 -0.949036,-5.8 -0.645757,-7.5 0.303278,-1.6999 0.804545,-4.5998 1.113926,-6.4443 C 90.595941,993.23353 107.25419,974.20174 128,960.58885 c 13.34592,-8.75726 35.66023,-19.19665 47.20582,-22.08448 7.30183,-1.82636 10.32084,-4.19616 18.85432,-14.79986 l 8.56013,-10.63683 -1.17464,-4 c -0.64606,-2.2 -1.25206,-8.28212 -1.34667,-13.51581 -0.15177,-8.39531 0.20077,-10.5652 2.99389,-18.42764 8.25241,-23.22998 24.56001,-40.11272 52.92144,-54.78788 9.21871,-4.77007 23.87298,-9.88837 42.61449,-14.88398 11.39729,-3.03799 12.74952,-3.17445 33.87122,-3.41812 12.1,-0.13959 22.35672,-0.0382 22.7927,0.22523 0.43599,0.26346 3.36099,0.647 6.5,0.85231 6.24158,0.40823 10.74399,-0.91886 20.7073,-6.10347 20.66432,-10.75312 33.1638,-17.46231 41.5,-22.27544 5.225,-3.0168 12.2,-7.02688 15.5,-8.91129 3.3,-1.88441 6.45,-3.79298 7,-4.24128 1.96508,-1.6017 23.30698,-11.9573 31.08146,-15.08146 25.41574,-10.21328 46.1293,-14.3614 71.91854,-14.40249 15.52744,-0.0247 20.26652,0.37181 34.5,2.88683 9.075,1.60353 17.4,2.87519 18.5,2.82592 29.28676,-1.31181 35.45966,-1.26636 43.04417,0.31686 4.37571,0.91341 9.30583,1.88105 10.95583,2.1503 1.65,0.26926 3.675,0.83574 4.5,1.25886 0.825,0.42311 3.21667,1.07939 5.31483,1.4584 4.39436,0.79379 20.75144,6.78976 25.18517,9.23208 22.57377,12.4347 36.8635,28.5114 48.35117,54.39761 1.30077,2.93113 5.45656,7.92322 11.65466,14 5.29816,5.19445 11.51314,11.91946 13.81107,14.94446 2.29793,3.025 4.54539,5.7693 4.99436,6.09844 1.33362,0.97768 15.2166,24.39634 19.82835,33.44767 3.37179,6.61771 4.91087,8.62122 7.3153,9.52277 39.17718,14.68967 65.03828,32.63422 84.45476,58.60165 5.03628,6.73547 5.98945,7.4758 15.70987,12.20182 5.69156,2.7672 13.00677,6.83662 16.25602,9.04315 9.4484,6.41628 18.91017,18.90048 22.48694,29.67007 2.73999,8.25005 2.95042,9.48675 3.21837,18.91445 0.23327,8.2071 -0.006,9.548 -2.72096,15.2208 -3.80009,7.9413 -11.58306,16.097 -21.83728,22.8829 -2.21245,1.4641 -4.02263,3.3975 -4.02263,4.2965 0,2.1523 -6.35208,23.4872 -8.51508,28.5998 -3.16068,7.4707 -9.3429,19.9836 -12.00749,24.3034 l -2.65453,4.3035 3.33855,1.1687 c 5.97078,2.0901 25.65051,12.533 34.60139,18.361 12.57649,8.1885 25.48939,21.5812 30.03307,31.1489 6.87561,14.4781 5.08678,26.9197 -5.25442,36.5456 -5.24673,4.8838 -15.97084,11.4696 -23.14415,14.2131 -7.52329,2.8774 -21.9901,6.22 -29.89734,6.9079 -2.75,0.2393 -9.05,0.9067 -14,1.4833 -4.95,0.5765 -12.53057,1.0519 -16.84571,1.0564 -5.47562,0.01 -8.68739,0.5054 -10.63195,1.654 l -2.78623,1.6459 7.17049,5.6981 c 9.59115,7.6218 13.88441,12.8442 18.86934,22.9533 4.05121,8.2156 4.17414,8.7579 4.19873,18.5254 0.0235,9.334 -0.20734,10.5351 -3.19005,16.5992 -2.88074,5.8567 -11.19846,15.7361 -16.78462,19.9359 -10.03259,7.5428 -17.44207,10.5493 -37.5,15.2159 -12.48248,2.9042 -14.70595,3.126 -29.5,2.9434 -14.13567,-0.1745 -24.07722,-1.1084 -29.80543,-2.7998 -2.57696,-0.7609 2.30056,8.1286 11.24424,20.4931 17.31862,23.9428 26.12314,35.6017 32.59207,43.1582 7.28613,8.5111 8.65336,10.9856 6.06979,10.9856 -2.94567,0 -23.26973,-24.1177 -43.44377,-51.5529 -7.66508,-10.4239 -7.84112,-10.6932 -12.87946,-19.6994 -2.0818,-3.7213 -4.67521,-7.0263 -5.77744,-7.3627 -8.39033,-2.5606 -36.65829,-18.038 -43.7317,-23.9442 -2.3904,-1.9959 -3.14005,-2.1439 -6,-1.1841 -4.67235,1.568 -21.50215,7.9357 -33.7683,12.7764 -10.18013,4.0175 -13.45233,5.0413 -26.82809,8.394 -3.48045,0.8723 -7.08045,1.988 -8,2.4793 -0.91955,0.4913 -3.24691,1.146 -5.17191,1.4549 -1.925,0.3089 -6.2,1.519 -9.5,2.689 -3.3,1.17 -8.475,2.7261 -11.5,3.458 -10.65751,2.5787 -24.56004,5.6108 -29.84676,6.5095 -2.94071,0.4998 -6.09071,1.1318 -7,1.4044 -0.90928,0.2726 -3.45324,0.7174 -5.65324,0.9884 -2.2,0.271 -8.95,1.2069 -15,2.0798 -6.05,0.8729 -17.525,1.7885 -25.5,2.0347 -7.975,0.2463 -18.775,0.6973 -24,1.0023 -5.40128,0.3153 -16.83455,-0.105 -26.5,-0.9742 -9.35,-0.8408 -17.37531,-1.5342 -17.83403,-1.5409 -0.45872,-0.01 0.50318,1.676 2.13754,3.7396 2.68625,3.3917 9.54065,16.2481 8.66267,16.2481 -0.19918,0 0.0346,1.2375 0.5195,2.75 0.4849,1.5125 2.31522,7.475 4.06737,13.25 1.75216,5.775 3.54191,10.95 3.97722,11.5 0.43531,0.55 1.58894,3.025 2.5636,5.5 3.46795,8.8062 12.14047,20.3697 25.76663,34.3557 11.44268,11.7449 14.08471,15.0214 20.90549,25.926 11.96266,19.1251 17.05142,30.6783 20.35741,46.2183 0.23401,1.1 0.7033,6.3193 1.04287,11.5984 0.80219,12.4716 -0.80538,21.2409 -5.75644,31.4016 C 537.71602,1554.7265 531,1561.9062 531,1556.7998 Z M 346.11351,1342.5343 c 2.96257,-0.5684 6.96149,-1.2812 8.88649,-1.584 6.51489,-1.0249 4.95227,-1.8845 -2.79523,-1.5378 -8.27881,0.3705 -28.10223,-1.4751 -32.07754,-2.9866 -2.17286,-0.8261 -2.28382,-0.7518 -1.06721,0.7141 1.52023,1.8318 4.11528,2.9522 11.43998,4.9395 6.21375,1.6859 8.80348,1.7613 15.61351,0.4548 z M 508.5,1339.2966 c 8.35196,0.2391 30.49972,-1.591 51,-4.2142 17.96252,-2.2984 49.78545,-8.4958 56.22647,-10.9498 2.07544,-0.7907 8.49853,-2.6231 14.27353,-4.0719 5.775,-1.4488 10.9275,-3.0524 11.45,-3.5636 0.5225,-0.5112 1.77511,-0.9294 2.78358,-0.9294 1.00846,0 10.25596,-3.19 20.55,-7.089 10.29403,-3.8989 23.35,-8.6958 29.01326,-10.6598 l 10.29685,-3.571 -3.40795,-3.5901 c -8.31995,-8.7647 -16.88693,-23.4026 -18.18161,-31.0657 -0.37396,-2.2134 -1.20287,-4.0134 -1.84203,-3.9998 -0.63915,0.014 -3.8621,0.9448 -7.1621,2.0696 -3.3,1.1248 -6.675,2.1915 -7.5,2.3705 -0.825,0.1789 -5.775,1.7797 -11,3.5572 -5.225,1.7776 -11.75,3.8136 -14.5,4.5246 -2.75,0.7109 -10.4,2.919 -17,4.9069 -6.6,1.9879 -14.25,4.255 -17,5.038 -2.75,0.783 -9.05,2.578 -14,3.9889 -4.95,1.4109 -9.675,2.7366 -10.5,2.9459 -0.825,0.2093 -6,1.5758 -11.5,3.0365 -5.5,1.4608 -10.8615,2.8427 -11.91443,3.0709 -1.05294,0.2282 -4.01645,1.113 -6.58557,1.9664 -2.56912,0.8533 -5.53263,1.7273 -6.58557,1.9422 -3.12579,0.6379 -9.40234,2.2319 -17.91443,4.5494 -28.86054,7.8575 -69.43572,17.9627 -86.37648,21.5119 -9.14294,1.9155 -19.06788,4.2096 -22.05543,5.0981 -4.54912,1.3527 -5.13846,1.7795 -3.62623,2.6258 0.99313,0.5558 3.81014,0.7358 6.26002,0.4 5.23245,-0.7172 20.16159,2.2572 25.96583,5.1734 4.88589,2.4547 44.32393,6.5667 50.33229,5.2479 1.375,-0.3018 6.1,-0.4457 10.5,-0.3198 z M 383,1330.8097 c 7.39068,-1.9555 22.24494,-7.2381 33,-11.7357 3.025,-1.265 10,-4.1305 15.5,-6.3678 13.04198,-5.3052 35.57344,-15.1731 47.33121,-20.7291 5.13216,-2.4252 9.51846,-4.4094 9.74733,-4.4094 0.68866,0 13.44342,-5.958 20.92146,-9.7728 14.01699,-7.1506 22.7499,-14.6919 27.72152,-23.939 6.43074,-11.9611 12.37588,-40.7289 13.62333,-65.9216 0.23586,-4.7634 3.38619,-5.0636 6.75726,-0.6439 3.81136,4.997 10.33656,7.6666 17.04625,6.9741 11.40411,-1.177 18.24578,-7.317 39.43651,-35.3923 12.39575,-16.4229 28.38512,-51.2718 33.35303,-72.693 2.09556,-9.0359 1.97124,-23.8817 -0.24377,-29.1115 -4.46256,-10.5366 -12.04992,-17.2193 -22.69413,-19.9884 -8.19955,-2.1331 -14.39669,-1.7362 -25.02495,1.6028 -9.69214,3.0449 -14.44359,6.3874 -28.49673,20.0467 -8.44695,8.2102 -11.43487,11.7679 -17.29175,20.5892 -4.59893,6.9266 -7.68657,9.1678 -7.68657,5.5794 0,-0.9186 3.01287,-6.4311 6.69526,-12.25 4.7962,-7.5789 9.54721,-13.3829 16.75,-20.4624 12.30841,-12.0978 19.47608,-16.9046 30.18729,-20.2442 7.085,-2.209 9.58946,-2.5085 18.04705,-2.1585 9.78951,0.4052 11.76961,0.9905 21.53378,6.3657 6.18704,3.406 12.76187,13.9457 15.42072,24.7201 1.40137,5.6787 1.4858,7.8915 0.53316,13.9734 -1.81062,11.5594 -4.61712,22.7197 -7.49506,29.8046 -1.46971,3.6182 -2.6722,6.9747 -2.6722,7.4589 0,0.4842 -1.59731,4.5993 -3.54957,9.1447 -3.00596,6.9985 -3.3711,8.6129 -2.38422,10.5411 1.59109,3.1087 9.47088,13.4296 13.84619,18.1357 4.90273,5.2733 18.36103,16.4918 25.30035,21.0897 l 5.71276,3.7852 4.78724,-2.7755 c 7.25824,-4.2081 25.51999,-17.128 40.93133,-28.9582 11.16212,-8.5684 30.51793,-27.9618 40.89186,-40.9711 2.18023,-2.7341 4.78084,-5.937 5.77912,-7.1175 3.58449,-4.2386 13.68494,-19.7304 13.68494,-20.9895 0,-2.3463 -5.3733,-5.0965 -16.5,-8.4452 -6.05,-1.8208 -13.37533,-4.3604 -16.27851,-5.6436 -2.90319,-1.2832 -5.77192,-2.3331 -6.37496,-2.3331 -0.60304,0 -3.62771,-1.0649 -6.72148,-2.3664 -3.09378,-1.3015 -9.22505,-3.8548 -13.62505,-5.674 -14.64675,-6.0558 -50.58084,-23.6357 -81,-39.6273 -19.78448,-10.4009 -42.17463,-21.48114 -55.07595,-27.25554 -10.48573,-4.69322 -25.07384,-10.09366 -25.66606,-9.50144 -0.3154,0.3154 -10.5748,3.05471 -18.25799,4.87498 -0.55,0.13031 -2.125,0.50344 -3.5,0.82919 -13.74044,3.25522 -29.34903,6.38129 -36,7.21003 -2.475,0.3084 -9,1.21247 -14.5,2.00904 -5.5,0.79658 -13.375,1.93554 -17.5,2.53103 -12.98583,1.87464 -55.07808,2.93013 -73.88045,1.85258 -9.55925,-0.54783 -18.10925,-0.66929 -19,-0.26992 -2.36816,1.06176 -9.12363,3.04969 -22.11955,6.50912 -8.6119,2.29243 -14.56849,3.19743 -23.71828,3.60373 -11.07702,0.4918 -12.80504,0.3264 -18.5,-1.7704 -11.34223,-4.17613 -21.26284,-12.57992 -26.52994,-22.47365 -0.62816,-1.17992 -3.08555,-2.5915 -5.9133,-3.39673 -12.67011,-3.60791 -11.27465,-4.67486 -15.58451,11.91566 -3.85586,14.84282 -6.73087,31.92392 -6.74566,40.07762 -0.008,4.6309 2.47728,11.7977 7.83919,22.6024 4.55763,9.184 5.57433,16.2402 3.71587,25.7895 -1.25063,6.4261 -3.56892,11.9455 -11.97063,28.5 -14.69658,28.9576 -17.02619,33.4639 -17.59274,34.0305 -0.81576,0.8157 -2.82608,4.2594 -4.67025,8 -0.94905,1.925 -1.97399,3.725 -2.27765,4 -0.57273,0.5187 -1.98159,2.9989 -6.53245,11.5 -6.27908,11.7294 0.78592,20.9509 19.91529,25.9939 3.81421,1.0056 10.78333,3.4654 15.48692,5.4662 6.88377,2.9283 9.08644,4.4087 11.29179,7.5889 4.28526,6.1796 3.8572,13.4528 -1.28402,21.8167 -6.06531,9.8673 0.49635,15.5469 18.07037,15.6414 6.34734,0.034 11.82301,0.7129 16.5,2.0452 10.4589,2.9794 19.59259,4.9108 23.31574,4.9303 4.34708,0.023 7.18426,1.6157 7.18426,4.0335 0,3.3036 -4.41423,3.5284 -13.88969,0.7072 -12.78096,-3.8053 -26.2615,-6.7233 -31.06037,-6.7233 -5.41268,0 -9.32966,2.7425 -11.4362,8.0073 -2.10529,5.2616 -2.03108,7.796 0.34226,11.6883 2.40483,3.9441 5.47777,6.0181 10.044,6.7789 4.27732,0.7128 11.0193,5.2318 12.7807,8.5667 1.41928,2.6872 0.97817,17.8252 -0.64424,22.1088 -1.36302,3.5988 -2.4181,18.2235 -1.64488,22.8002 0.82814,4.9017 1.8483,5.5363 13.95228,8.6791 8.4121,2.1842 10.54959,2.3247 30.05614,1.9743 16.87694,-0.3031 22.47252,-0.7668 28.5,-2.3616 z m -92,-139.1308 c -1.375,-0.4474 -5.2,-2.2704 -8.5,-4.051 -5.4835,-2.9588 -6.52753,-3.1855 -12.12817,-2.6335 -6.70146,0.6605 -9.37183,0.091 -9.37183,-1.9985 0,-2.3243 4.23196,-3.7963 11,-3.8262 5.58857,-0.025 7.53262,0.5018 13.8643,3.7548 4.05037,2.0809 8.6384,3.8197 10.19563,3.8639 6.65714,0.1893 11.7067,-6.8604 9.81677,-13.7051 -0.7334,-2.6561 -0.71866,-4.0737 0.0503,-4.8427 1.64405,-1.644 3.7524,1.0226 5.24057,6.6283 1.17609,4.4301 1.0997,5.1258 -0.98829,9 -1.2446,2.3093 -3.31037,4.963 -4.5906,5.897 -2.73064,1.9922 -11.00909,3.0778 -14.58872,1.913 z m 290.357,-43.072 c -3.31395,-1.385 -5.357,-5.0726 -5.357,-9.6691 0,-3.7581 0.512,-4.6451 5.02194,-8.6999 2.79638,-2.5142 5.92051,-6.5466 7.04954,-9.0989 1.77418,-4.0108 1.89606,-5.2952 0.97518,-10.2768 -0.57883,-3.1311 -1.97759,-7.468 -3.10835,-9.6374 -1.34711,-2.5845 -2.2539,-6.7495 -2.63011,-12.0804 -0.55351,-7.8434 -0.43451,-8.4554 3.30882,-17.0157 2.69096,-6.1538 5.30495,-10.3149 8.51503,-13.5548 12.51534,-12.6316 30.16275,-13.1204 36.3309,-1.0062 1.86939,3.6714 1.89958,17.6576 0.0678,31.4284 -0.88314,6.6394 -1.99044,14.9966 -2.46067,18.5716 -1.38408,10.5228 -4.4776,17.2657 -10.89976,23.758 -5.1793,5.2359 -16.11215,12.8368 -23.67036,16.4566 -3.51951,1.6856 -10.09577,2.0982 -13.143,0.8246 z m 14.48477,-7.0958 c 2.01202,-1.102 7.02201,-4.3525 11.1333,-7.2235 12.05183,-8.4159 15.69682,-15.6982 17.09823,-34.1606 0.50068,-6.596 1.64462,-15.6902 2.54209,-20.2092 2.94458,-14.8269 -0.1,-24.4124 -8.23889,-25.9393 -2.6392,-0.4951 -5.09175,0.018 -9.9465,2.0814 -5.51101,2.3422 -7.15388,3.6871 -11.35162,9.2923 -7.54965,10.0811 -10.87689,22.2456 -7.73262,28.2706 2.70883,5.1907 4.72825,12.6334 5.27595,19.4449 0.67408,8.3831 -0.89482,12.88 -6.16756,17.6781 -3.19013,2.903 -7.45415,8.6911 -7.45415,10.1185 0,0.3083 0.7523,1.3128 1.67177,2.2323 2.06388,2.0639 7.75855,1.3783 13.17,-1.5855 z M 329,1100.1901 c 0,-0.7576 0.70467,-1.9624 1.56594,-2.6771 0.86126,-0.7148 2.26582,-2.6824 3.12124,-4.3725 l 1.55531,-3.0728 -2.87124,2.6358 c -3.86213,3.5455 -8.84902,5.9626 -12.15448,5.8912 -13.64121,-0.2946 -21.75012,-2.4736 -20.57745,-5.5295 0.28525,-0.7433 2.49528,-2.2807 4.91119,-3.4163 5.8629,-2.7559 7.89695,-5.9408 6.91261,-10.824 -0.41656,-2.0665 -0.67224,-9.002 -0.56818,-15.4122 l 0.1892,-11.655 -4.1117,-0.6947 c -4.16956,-0.7044 -6.07159,-2.7962 -4.22327,-4.6445 1.16407,-1.1641 21.12059,1.4739 24.39097,3.2242 2.16517,1.1587 1.95237,3.6339 -0.26514,3.0839 -0.75625,-0.1875 -3.76252,-0.5906 -6.68061,-0.8956 -5.18493,-0.542 -5.29404,-0.5001 -4.79712,1.841 0.27967,1.3176 0.8,8.1332 1.1563,15.1457 l 0.64782,12.75 h 6.34029 c 3.48716,0 6.6184,-0.45 6.95832,-1 0.33992,-0.55 2.10785,-1 3.92875,-1 4.20058,0 12.88434,-2.8125 22.87665,-7.4093 8.06494,-3.7101 11.11052,-4.3448 12.22167,-2.5469 1.08389,1.7537 -1.32707,3.6803 -10.21408,8.1619 -6.18624,3.1196 -8.93054,5.1149 -10.03237,7.2943 -2.78339,5.5054 -6.13818,9.211 -11.65295,12.8714 -5.73566,3.8072 -8.62767,4.5617 -8.62767,2.251 z m 30.83674,-56.2406 c -3.6648,-1.2852 -9.9648,-2.8537 -14,-3.4855 -9.15549,-1.4334 -27.81162,-0.5851 -33.71247,1.533 -5.04174,1.8097 -10.40242,2.0274 -13.19001,0.5355 -3.07528,-1.6458 -2.5076,-6.3046 1.14247,-9.3759 2.89684,-2.4376 3.71191,-2.5889 13.94098,-2.5889 6.16415,0 11.13163,0.4326 11.48229,1 0.33992,0.55 2.72898,1.007 5.30902,1.0156 2.58004,0.01 8.96598,0.9371 14.19098,2.0632 12.45441,2.6843 11.53892,2.4362 19,5.1492 5.03088,1.8294 6.57222,2.8618 6.81955,4.5678 0.41178,2.8403 -1.95771,2.751 -10.98281,-0.414 z m -41.44369,-8.4297 c 1.66323,-1.7457 -11.73825,-0.7405 -13.88538,1.0415 -1.59796,1.3262 -1.5933,1.4502 0.0765,2.0359 2.18735,0.7673 12.29113,-1.4844 13.80889,-3.0774 z M 319,1027.2199 c 0,-2.9259 20.1325,-20.1991 22.4888,-19.2949 2.36449,0.9073 1.77821,3.4285 -1.2388,5.3272 -1.5125,0.9519 -5.675,4.2707 -9.25,7.3752 -8.51896,7.3977 -12,9.3101 -12,6.5925 z m 487.86117,297.8274 c 12.29357,-0.6959 35.4612,-6.1865 43.33398,-10.27 6.34568,-3.2914 19.3048,-15.0136 23.00082,-20.8054 11.46732,-17.9698 4.47655,-38.795 -19.41376,-57.8328 -2.59479,-2.0678 -5.06979,-3.6031 -5.5,-3.4118 -0.43022,0.1913 -5.95721,3.749 -12.28221,7.9062 -12.85046,8.4459 -41.5108,24.4904 -51.78798,28.9916 -3.69161,1.6169 -7.45612,3.3671 -8.36557,3.8894 -2.20856,1.2684 -23.23727,9.3994 -28.61146,11.063 -5.14174,1.5916 -5.17716,1.377 2.54844,15.4378 12.83335,23.357 10.30485,20.8082 23.71657,23.9069 8.52848,1.9704 12.62617,2.4173 18.5,2.0177 2.475,-0.1683 9.16252,-0.57 14.86117,-0.8926 z m -504.53328,-9.7296 c 0.67518,-7.9393 0.86787,-9.2994 3.06756,-21.6543 2.08771,-11.726 0.52541,-14.5332 -10.88536,-19.5594 -3.29445,-1.4512 -7.04625,-3.628 -8.33732,-4.8374 C 283.34408,1266.6168 281,1261.3271 281,1257.5935 v -2.7299 l -16.75,-0.7369 c -9.2125,-0.4053 -19.45,-0.8559 -22.75,-1.0014 -9.96603,-0.4395 -34.35499,-2.5525 -45.18213,-3.9146 l -10.18213,-1.281 2.94564,4.069 c 3.79141,5.2373 22.97239,24.968 29.26987,30.1088 18.19571,14.8535 52.09577,31.7796 78.64875,39.2688 1.925,0.543 3.77255,1.0331 4.10566,1.0893 0.33312,0.056 0.88312,-3.1604 1.22223,-7.1479 z m 443.00704,-11.75 c -4.60491,-8.8792 -8.37203,-15 -9.23192,-15 -1.74139,0 -15.87789,4.6448 -18.33944,6.0258 -0.95504,0.5358 -2.46654,0.9742 -3.35888,0.9742 -3.60569,0 8.78207,8.4828 20.59531,14.103 6.875,3.2709 13.625,6.5697 15,7.3306 1.375,0.7609 2.6382,1.4247 2.8071,1.4749 0.16891,0.05 -3.19357,-6.6585 -7.47217,-14.9085 z M 463,1311.8972 c 14.14201,-3.5732 31.03265,-7.969 42,-10.9306 0.825,-0.2228 7.125,-1.909 14,-3.7472 6.875,-1.8381 17,-4.573 22.5,-6.0774 5.5,-1.5044 12.475,-3.394 15.5,-4.1992 3.025,-0.8052 7.075,-1.9196 9,-2.4764 1.925,-0.5567 5.3,-1.4581 7.5,-2.003 5.27308,-1.3061 33.6725,-9.4901 39.85022,-11.4838 2.66762,-0.861 5.59262,-1.7258 6.5,-1.922 0.90738,-0.1961 8.39978,-2.4523 16.64978,-5.0136 8.25,-2.5614 17.7,-5.4827 21,-6.4918 3.3,-1.0091 9.825,-3.1477 14.5,-4.7525 l 8.5,-2.9177 0.13651,-7.2663 c 0.34175,-18.1908 7.40463,-32.8048 19.48336,-40.3133 4.45693,-2.7706 4.65567,-3.0802 3.71319,-5.7838 -0.74657,-2.1416 -3.37771,-4.251 -10.51355,-8.4287 l -9.51778,-5.5723 -5.15086,2.6201 c -2.83298,1.441 -7.62587,3.9817 -10.65087,5.6459 -10.29774,5.6655 -40.849,20.7841 -41.99995,20.7841 -2.56406,0 -0.2267,-3.4841 3.74672,-5.5849 7.35405,-3.8882 27.22581,-14.7889 32.65885,-17.9151 2.86755,-1.65 7.49338,-4.3199 10.27962,-5.933 l 5.0659,-2.933 -4.12557,-3.4077 c -2.26906,-1.8743 -6.15057,-5.0539 -8.62557,-7.066 -10.18682,-8.2813 -30.96231,-28.8345 -30.98668,-30.655 -0.007,-0.5471 -2.37582,3.1743 -5.26332,8.2697 -6.64379,11.7239 -22.08788,32.561 -31.06033,41.9065 -9.26586,9.6511 -15.52742,12.752 -25.68967,12.7223 -5.73952,-0.017 -8.48826,-0.5362 -11.71016,-2.2129 -2.31559,-1.205 -4.42552,-2.1909 -4.68873,-2.1909 -0.26321,0 -0.70751,1.9125 -0.98732,4.25 -0.27982,2.3375 -1.01372,8.525 -1.63089,13.75 -0.61717,5.225 -1.8453,12.875 -2.72916,17 -2.1024,9.8119 -1.85955,8.8902 -3.62292,13.75 -0.84816,2.3375 -1.33059,4.25 -1.07207,4.25 0.25852,0 -0.93622,2.7858 -2.65497,6.1906 -5.14473,10.1916 -17.86402,21.3711 -31.90378,28.0415 -11.05878,5.2541 -34.69633,16.1041 -42,19.2788 -4.125,1.7929 -10.425,4.6176 -14,6.2769 -3.575,1.6593 -9.2,4.1984 -12.5,5.6424 l -6,2.6253 4.5,-0.6522 c 2.475,-0.3588 12.375,-2.642 22,-5.0738 z m 261.77749,-24.4505 c 8.19674,-2.6266 10.14591,-3.6057 9.62756,-4.8362 -0.35746,-0.8486 -2.18892,-5.8178 -4.06991,-11.0428 -1.88099,-5.225 -4.24273,-11.3 -5.24832,-13.5 -1.00559,-2.2 -2.84679,-6.8125 -4.09157,-10.25 -1.24478,-3.4375 -2.68946,-6.25 -3.2104,-6.25 -0.52094,0 -7.21386,2.475 -14.87315,5.5 -7.65929,3.025 -14.42003,5.5 -15.02388,5.5 -2.9325,0 2.6038,17.4938 8.03411,25.3865 1.76846,2.5704 5.40421,6.8971 8.07945,9.6149 4.39723,4.4672 5.13445,4.8565 7.68134,4.0562 1.5495,-0.4868 7.44215,-2.3672 13.09477,-4.1786 z m 24.33916,-7.987 c 2.96084,-1.1594 7.85835,-3.128 10.88335,-4.3746 3.025,-1.2466 7.075,-2.8825 9,-3.6353 13.3815,-5.2333 52.6352,-26.4904 68.67137,-37.1877 l 6.17137,-4.1168 -3.17243,-2.1557 c -2.90076,-1.9711 -4.88514,-2.2063 -23.17138,-2.746 -10.99941,-0.3247 -21.79893,-0.8465 -23.99893,-1.1596 -8.55888,-1.2181 -16.20136,-2.7012 -20.76189,-4.0291 -4.67166,-1.3602 -4.88098,-1.3233 -11.0467,1.9477 -3.45664,1.8338 -12.11379,5.8807 -19.23811,8.9931 -7.12431,3.1124 -14.0783,6.187 -15.4533,6.8324 -1.375,0.6453 -2.58565,1.1989 -2.69034,1.2301 -0.41865,0.1249 3.90268,12.4545 6.83776,19.5095 1.71613,4.125 3.47065,8.4 3.89892,9.5 6.02726,15.4806 5.24542,14.8476 14.07031,11.392 z m -467.15561,-31.0806 c 1.12143,-1.2037 2.03896,-2.7412 2.03896,-3.4167 0,-0.6754 0.5152,-1.3998 1.1449,-1.6097 0.62969,-0.2099 -0.73341,-0.9444 -3.02913,-1.6322 C 276.83451,1240.1382 272,1233.9463 272,1228.7645 c 0,-1.9267 1.39339,-6.4523 3.09642,-10.0567 4.23382,-8.9609 4.6055,-11.9781 1.89938,-15.4183 -2.94611,-3.7454 -7.30685,-5.8072 -21.4958,-10.1632 -20.80886,-6.3884 -25.5481,-9.4222 -27.51282,-17.6121 -1.80419,-7.5207 -0.63294,-14.8207 3.64185,-22.6987 2.01384,-3.7113 4.03764,-7.2337 4.49732,-7.8275 0.53383,-0.6896 -1.77668,-2.924 -6.39528,-6.1846 -3.97709,-2.8077 -8.93948,-6.3461 -11.02753,-7.8631 -2.92589,-2.1257 -4.76037,-2.7051 -8,-2.5267 -4.26741,0.235 -23.85969,3.9125 -35.70354,6.7016 -3.575,0.8419 -7.85,1.7644 -9.5,2.05 -2.61285,0.4523 -11.18194,2.6658 -21,5.4245 -7.49066,2.1048 -7.39749,2.0372 -7.01163,5.0861 0.38073,3.0083 4.92942,19.4922 6.59291,23.8919 0.51989,1.375 1.13893,3.4 1.37566,4.5 2.03298,9.4466 12.0875,30.7647 20.5164,43.5 2.00212,3.025 6.03621,9.168 8.96466,13.6511 l 5.32445,8.1512 5.61878,0.8095 c 3.09032,0.4452 6.26144,0.7514 7.04692,0.6803 0.78548,-0.071 3.93548,0.2905 7,0.8035 7.02696,1.1765 29.75374,3.6139 46.07185,4.9413 6.875,0.5592 13.175,1.1774 14,1.3739 0.825,0.1964 5.64497,0.4094 10.71104,0.4732 8.27022,0.1041 9.41931,-0.1076 11.25,-2.0726 z m 417.54148,-5.3644 c 6.59861,-2.5042 13.2039,-5.1117 14.67842,-5.7946 l 2.68095,-1.2416 -2.29152,-6.9554 c -1.26034,-3.8255 -3.5301,-10.7804 -5.04392,-15.4554 -1.51382,-4.675 -2.89918,-8.6601 -3.07859,-8.8559 -0.1794,-0.1957 -2.29276,1.0565 -4.69636,2.7826 -4.78569,3.4369 -11.90994,13.4948 -14.35579,20.2673 -2.24127,6.2061 -3.12437,19.806 -1.28608,19.806 0.76747,0 6.79428,-2.0489 13.39289,-4.553 z m -528.72334,-6.3533 c -1.25355,-2.1485 -5.11905,-8.561 -8.59001,-14.25 -3.47095,-5.6891 -7.86288,-13.4937 -9.75983,-17.3437 -1.89696,-3.85 -3.86212,-7.675 -4.36703,-8.5 -1.07199,-1.7516 -2.33422,-5.4801 -1.87686,-5.544 0.173,-0.024 -0.45681,-1.2212 -1.39959,-2.6601 -0.94277,-1.4388 -1.90726,-3.6811 -2.14329,-4.9827 -0.23604,-1.3017 -1.12921,-4.0422 -1.98484,-6.09 -0.85562,-2.0478 -1.34208,-3.7232 -1.08102,-3.7232 0.26106,0 -0.13237,-1.2375 -0.87429,-2.75 -0.74191,-1.5125 -2.40624,-7.25 -3.69849,-12.75 -1.29226,-5.5 -2.677,-10.3827 -3.07721,-10.8505 -0.98614,-1.1526 -12.56862,2.882 -25.92672,9.0312 -20.444318,9.4111 -41,29.318 -41,39.7058 0,1.2214 1.146337,4.5212 2.547416,7.3328 5.033583,10.1011 21.266835,19.073 45.773724,25.2986 4.49837,1.1428 9.75386,2.4856 11.67886,2.9841 1.925,0.4985 9.32868,2.0817 16.45261,3.5183 7.12394,1.4367 13.28472,2.8173 13.69064,3.0682 0.40591,0.2509 3.35223,0.7178 6.54738,1.0376 3.19516,0.3197 5.99687,0.7597 6.22604,0.9776 0.22916,0.218 1.4798,0.3963 2.77918,0.3963 h 2.36252 z m 562.75285,-7.1428 c 3.83239,-1.7525 11.32277,-5.227 16.64531,-7.7212 l 9.67733,-4.5348 -13.88621,-4.7401 c -7.63742,-2.607 -17.62896,-6.3476 -22.20341,-8.3124 -5.21932,-2.2417 -9.14554,-3.3557 -10.54112,-2.9907 -1.22316,0.3198 -2.22393,0.6966 -2.22393,0.8373 0,0.4352 5.02528,15.9223 5.68202,17.511 0.34103,0.825 0.76773,1.95 0.94821,2.5 3.87064,11.7952 3.77388,11.6271 6.4018,11.1229 1.39262,-0.2671 5.66762,-1.9196 9.5,-3.672 z m 88.89311,-8.8298 c 0.6441,-1.0422 -10.51558,-4.7309 -26.22103,-8.6671 -10.99631,-2.7559 -11.37526,-2.7841 -14.28848,-1.0633 -1.64593,0.9723 -4.10855,2.3468 -5.47251,3.0544 -2.47666,1.2849 -2.47496,1.2874 1.28848,1.8638 2.07262,0.3174 6.6934,1.0971 10.2684,1.7327 6.06743,1.0787 26.7743,3.5911 31.69098,3.8452 1.20504,0.062 2.43541,-0.2823 2.73416,-0.7657 z m 41.88778,-5.6493 c 3.68613,-3.0405 8.72526,-8.103 11.19807,-11.25 12.73717,-16.2099 18.98412,-44.1938 14.44434,-64.705 -0.6107,-2.7593 -1.34333,-6.1418 -1.62805,-7.5168 -0.28473,-1.375 -0.61279,-2.95 -0.72904,-3.5 -0.11624,-0.55 -0.82553,-2.6508 -1.57618,-4.6684 l -1.36482,-3.6684 -5.97113,7.6684 c -14.94993,19.1994 -58.90399,58.4728 -85.45577,76.3556 -2.18321,1.4704 -1.89751,1.6306 7.5,4.2059 12.70763,3.4824 34.50398,10.6519 35.71966,11.7493 0.5225,0.4717 5.49744,0.8576 11.05543,0.8576 h 10.10543 z m 33.18708,3.582 c 12.96235,-1.4294 22.38944,-3.9065 31.47235,-8.2697 15.93004,-7.6523 27.37052,-22.1216 25.68813,-32.4889 -1.42513,-8.7821 -11.88945,-24.4504 -20.70219,-30.9975 -14.86964,-11.047 -40.47668,-26.0034 -42.97713,-25.1018 -0.46387,0.1672 0.0619,2.7791 1.16844,5.8041 2.79264,7.6346 5.09413,27.1155 3.95771,33.5 -0.48949,2.75 -0.94561,6.457 -1.0136,8.2377 -0.15917,4.1691 -5.51286,20.1682 -9.12261,27.2623 -2.93533,5.7686 -8.41196,12.5715 -15.9711,19.8388 l -4.5,4.3262 12,-0.6145 c 6.6,-0.338 15.6,-1.0115 20,-1.4967 z m -124.75,-8.0834 c 2.8875,-1.656 5.25,-3.1949 5.25,-3.4198 0,-0.3278 -5.76304,-1.758 -12.5,-3.1021 -0.55,-0.1097 -4.375,-0.945 -8.5,-1.8562 -6.41164,-1.4163 -29.95908,-3.7937 -30.77498,-3.1071 -0.79763,0.6712 36.70487,14.2687 39.77498,14.4214 0.825,0.041 3.8625,-1.2803 6.75,-2.9362 z m 16.52144,-9.6993 c 11.40181,-7.3579 33.43196,-24.833 51.22856,-40.6361 12.74162,-11.3144 34.5,-34.0418 34.5,-36.0365 0,-0.3772 1.125,-1.8991 2.5,-3.382 1.375,-1.4828 2.5,-2.9771 2.5,-3.3204 0,-0.3434 -2.1375,-1.4213 -4.75,-2.3953 -2.6125,-0.974 -7.225,-2.8637 -10.25,-4.1994 -9.23267,-4.0765 -16.12966,-6.9705 -24.5,-10.28 -4.4,-1.7397 -9.8,-3.9662 -12,-4.9478 -2.2,-0.9815 -6.4434,-2.8622 -9.42977,-4.1791 -2.98638,-1.317 -9.48666,-4.9543 -14.44508,-8.083 -4.95842,-3.1286 -9.38073,-5.4626 -9.82734,-5.1866 -0.44662,0.2761 -1.54828,1.9359 -2.44813,3.6885 -5.08165,9.8974 -33.74782,43.6862 -45.59837,53.7467 -3.98822,3.3858 -8.60131,7.3855 -10.25131,8.8884 -4.98946,4.5443 -23.36429,18.0904 -35.27905,26.008 -6.17152,4.1011 -11.22095,7.7633 -11.22095,8.1383 0,0.9984 12.8732,8.9052 14.49874,8.9052 0.76077,0 1.66756,0.46 2.01509,1.0224 0.34753,0.5623 3.18658,2.2949 6.30902,3.8502 5.26347,2.6218 6.33296,2.7952 14.67715,2.3798 9.46622,-0.4712 32.24882,2.7803 47,6.7078 9.35129,2.4898 9.88411,2.4649 14.77144,-0.6891 z M 146,1136.9969 c 6.5798,-2.0373 39.32382,-9.1906 57.06378,-12.4663 l 5.56377,-1.0274 -11.3958,-11.2178 c -6.26769,-6.1697 -14.437,-14.8177 -18.15403,-19.2177 C 172.00415,1084.6944 164,1073.3599 164,1071.7164 c 0,-0.5286 -2.3625,-1.2727 -5.25,-1.6536 -2.8875,-0.3808 -8.7375,-1.4908 -13,-2.4665 l -7.75,-1.774 -0.15231,2.1227 c -0.0838,1.1675 -0.25687,2.5727 -0.38465,3.1227 -0.12779,0.55 -0.33754,1.45 -0.46611,2 -0.12858,0.55 -0.20346,1.2686 -0.1664,1.5968 0.037,0.3283 -0.62008,4.6033 -1.46029,9.5 -1.84502,10.7528 -2.05412,38.42 -0.36599,48.4284 1.32163,7.8355 0.70743,7.5895 10.99575,4.404 z m 98.70266,-5.9716 c 2.36354,-3.7989 4.29734,-7.3061 4.29734,-7.7937 0,-0.4876 -1.4625,-0.6451 -3.25,-0.35 -1.7875,0.2951 -7.8244,1.3072 -13.41534,2.2492 l -10.16535,1.7127 4.86842,3.8482 c 6.23848,4.9313 11.20431,7.953 12.41493,7.5545 0.52396,-0.1725 2.88646,-3.4219 5.25,-7.2209 z M 233.5,1120.5753 c 1.65,-0.4546 5.74707,-1.0785 9.1046,-1.3865 3.35753,-0.3081 7.19345,-0.974 8.52426,-1.48 3.44635,-1.3103 17.98549,-30.1079 20.42498,-40.4557 1.8539,-7.8638 1.71769,-9.3185 -1.76794,-18.8794 l -0.98215,-2.694 -5.65187,2.5295 c -19.14571,8.5689 -55.19205,14.9787 -79.40188,14.1193 -7.5625,-0.2684 -13.75,-0.2819 -13.75,-0.03 0,3.822 28.91075,36.0549 41.5,46.2688 l 5,4.0566 7,-0.6111 c 3.85,-0.336 8.35,-0.9829 10,-1.4375 z m 644.47459,-14.7576 c -5.88783,-10.526 -12.0046,-19.0944 -18.84061,-26.3922 l -6.76658,-7.2236 -9.62528,1.1829 c -10.94746,1.3454 -25.95503,1.4588 -36.24212,0.2739 -3.85,-0.4434 -7.14177,-0.6911 -7.31505,-0.5503 -0.17328,0.1408 2.15886,2.0276 5.18253,4.1928 5.55518,3.9779 15.13927,8.9584 26.13252,13.5799 3.3,1.3873 8.25,3.5418 11,4.7876 2.75,1.2458 7.025,3.0232 9.5,3.9496 2.475,0.9264 9.9,3.9727 16.5,6.7695 6.6,2.7968 12.38046,5.1064 12.84546,5.1325 0.465,0.026 -0.60189,-2.5401 -2.37087,-5.7026 z m 14.8184,-10.25 c 2.22732,-4.675 4.98528,-10.6952 6.1288,-13.3782 2.17246,-5.0971 6.57369,-22.4597 5.87133,-23.162 -0.22286,-0.2229 -4.42998,0.889 -9.34916,2.4709 -10.17985,3.2736 -22.51728,6.7078 -26.94396,7.5 -1.65,0.2953 -4.42863,0.9531 -6.17473,1.4617 -1.7461,0.5086 -3.52378,0.6284 -3.9504,0.2662 -0.42662,-0.3623 1.71617,2.2664 4.76175,5.8414 7.14012,8.3813 12.47136,15.7358 17.87716,24.6616 4.30079,7.1014 4.35163,7.1435 6.03344,5 0.93286,-1.1889 3.51846,-5.9866 5.74577,-10.6616 z m -59.10159,-27.1465 c 6.21973,-0.6306 11.3086,-1.4369 11.3086,-1.7918 0,-1.1426 -8.2986,-8.636 -15.5,-13.996 -3.85,-2.8656 -7.72062,-5.7909 -8.60137,-6.5009 -2.96045,-2.3862 -9.35655,-6.5648 -10.04864,-6.5648 -0.37716,0 -1.91297,3.7125 -3.41292,8.25 -1.49994,4.5375 -3.79273,10.6816 -5.09507,13.6537 -1.30235,2.972 -2.24957,5.5193 -2.10495,5.6607 0.45644,0.4461 14.08937,2.1743 18.20435,2.3078 2.16777,0.07 9.03027,-0.3881 15.25,-1.0187 z M 221.5,1065.1304 c 16.74887,-3.1481 44.5,-11.9946 44.5,-14.1857 0,-0.262 -0.67751,-1.7865 -1.50557,-3.3878 -0.82807,-1.6013 -2.17026,-6.0713 -2.98265,-9.9332 -2.75455,-13.0947 -0.62959,-26.8302 9.52303,-61.55602 0.9648,-3.3 1.68917,-6.04696 1.60969,-6.10435 -0.0795,-0.0574 -5.18304,-2.39998 -11.34125,-5.20576 -14.28748,-6.5096 -30.8597,-16.90797 -38.8313,-24.36501 -3.42475,-3.20368 -6.71646,-5.82488 -7.31492,-5.82488 -0.59846,0 -5.04112,4.64719 -9.87257,10.32708 -13.76107,16.17762 -19.00764,23.15303 -32.09649,42.67292 -2.02838,3.025 -4.02547,5.65 -4.43797,5.83333 -0.4125,0.18334 -0.75,0.8229 -0.75,1.42126 0,0.59836 -0.61524,1.79836 -1.36719,2.66667 -0.75196,0.86831 -3.18473,5.00566 -5.40615,9.19406 -3.55441,6.7018 -4.06305,8.5012 -4.23987,15 -0.11052,4.0616 -0.10093,7.8347 0.0213,8.3847 0.12223,0.55 0.1425,1.7852 0.0451,2.745 -0.0975,0.9598 0.72746,5.0425 1.83312,9.0727 1.10567,4.0301 2.22568,8.5153 2.48892,9.967 0.26324,1.4517 1.68686,5.3317 3.1636,8.6223 3.22048,7.1762 1.4601,6.7726 28.46122,6.5256 13.41913,-0.1227 22.30656,-0.7058 28.5,-1.8699 z m 642.64194,-0.595 c 5.69693,-1.1177 12.60806,-2.6822 15.35806,-3.4765 2.75,-0.7944 8.375,-2.4208 12.5,-3.6143 4.125,-1.1936 9.18403,-3.1167 11.2423,-4.2735 l 3.7423,-2.1034 0.25051,-8.5 c 0.55758,-18.9187 -0.0959,-22.6143 -8.39911,-47.50002 -5.14205,-15.4113 -8.27254,-23.38831 -12.41913,-31.64602 -3.28534,-6.54256 -3.44298,-6.6848 -10.12708,-9.13752 -8.289,-3.04165 -20.0271,-6.58786 -24.48783,-7.39806 -6.82008,-1.23872 -32.90545,-1.17834 -35.90557,0.0831 -1.61133,0.67751 -2.68133,1.48021 -2.37777,1.78377 0.30356,0.30355 1.25891,6.79855 2.12301,14.43331 1.97632,17.46175 1.23921,43.27384 -1.66334,58.24704 -1.08806,5.6129 -1.97829,10.8271 -1.97829,11.5871 0,0.76 2.5875,3.1207 5.75,5.2461 9.91667,6.6646 20.94809,15.1155 28.48593,21.8223 3.99524,3.5548 7.32794,6.4668 7.40601,6.4711 0.0781,0 4.80307,-0.9068 10.5,-2.0245 z m -705.54991,-4.3484 c -3.13823,-9.2435 -5.6591,-20.312 -6.28215,-27.5835 -0.54461,-6.356 -0.7916,-7.0983 -1.66378,-5 -0.56333,1.3553 -1.82924,4.2642 -2.81314,6.4642 -2.23866,5.0056 -6.71474,18.98 -7.39305,23.0811 -0.49679,3.0037 -0.36422,3.1236 5.27525,4.7718 6.44852,1.8847 13.61414,3.4484 14.10669,3.0784 0.17701,-0.1329 -0.3764,-2.2983 -1.22982,-4.812 z m 637.23698,3.1307 c 2.0055,-3.8668 7.22492,-19.0824 7.80392,-22.75 0.3039,-1.925 0.62331,-3.9217 0.70981,-4.437 0.16183,-0.9643 -8.5152,-7.2786 -13.84274,-10.0735 -1.65,-0.8656 -4.575,-2.5208 -6.5,-3.6784 -4.79356,-2.8824 -23.59273,-12.8111 -24.25683,-12.8111 -0.54431,0 -0.33385,3.4667 0.61847,10.1874 0.28738,2.0281 1.67357,6.2039 3.08043,9.2796 1.40686,3.0758 2.55793,5.7526 2.55793,5.9487 0,0.8611 8.8692,13.6599 13.57129,19.5843 6.00606,7.5672 8.1783,9.6107 10.92871,10.2807 3.63792,0.8863 4.152,0.7386 5.32901,-1.5307 z m -19.14091,-3.1204 c -0.28923,-0.7538 -3.4827,-5.4142 -7.09662,-10.3565 -3.61391,-4.9424 -7.68382,-11.4174 -9.04424,-14.389 C 757.71736,1029.2706 755,1017.4093 755,1011.2382 c 0,-4.6919 1.41877,-3.7105 -16.5,-11.41329 -14.30863,-6.15089 -47.07833,-16.5703 -62,-19.71345 -1.1,-0.23171 -6.275,-1.38825 -11.5,-2.57009 -5.225,-1.18185 -12.2,-2.57639 -15.5,-3.099 -3.3,-0.5226 -6.9,-1.09793 -8,-1.2785 -4.82369,-0.79186 -22.01049,-2.62986 -33.5,-3.58257 -15.83564,-1.3131 -22.7842,-1.23855 -26.23674,0.28148 -2.64064,1.16259 -2.30873,1.37893 9.45119,6.16046 6.70336,2.72555 26.8349,12.355 44.73674,21.39877 47.53447,24.01379 89.88903,45.14569 90.48527,45.14569 0.28582,0 3.79204,1.5168 7.79161,3.3707 3.99956,1.8539 9.07193,3.938 11.27193,4.6313 2.2,0.6933 4.45,1.539 5,1.8793 0.74938,0.4636 24.27876,8.5266 26.35699,9.0319 0.19634,0.048 0.12034,-0.5299 -0.16889,-1.2836 z m -639.35368,-9.393 c 1.10479,-6.0372 5.01649,-16.3661 13.15524,-34.7366 0.731,-1.65 1.62408,-5.475 1.98463,-8.5 0.57696,-4.8408 2.51108,-12.9647 5.35676,-22.50002 3.05773,-10.24585 11.99476,-28.351 19.35161,-39.2036 l 2.84957,-4.2036 -3.26611,1.07204 c -15.51438,5.09226 -36.36664,14.99747 -46.53404,22.10453 -16.49102,11.52731 -31.353169,28.21626 -35.141083,39.46055 -2.743799,8.1448 -2.638208,11.8583 0.568968,20.0096 5.130065,13.0385 14.114045,22.4594 27.799945,29.1522 4.42205,2.1625 8.71509,4.1361 9.54009,4.3858 1.45338,0.4399 3.60508,-3.0553 4.33442,-7.0409 z m 785.92022,-11.1184 c 9.3038,-8.7241 13.03047,-18.8144 10.85539,-29.392 C 930.8054,994.22305 923.37759,981.05929 913,972.88209 c -4.76417,-3.75401 -21,-13.0725 -21,-12.05286 0,0.19953 0.84413,2.13481 1.87585,4.30062 1.03172,2.16581 3.31422,8.43783 5.07223,13.93783 1.758,5.5 4.27237,12.925 5.58747,16.5 1.31511,3.575 2.88576,8.52502 3.49032,11.00002 3.80078,15.5597 4.194,18.3247 4.22612,29.7161 l 0.0344,12.2161 3.10678,-2.1778 c 1.70873,-1.1978 5.24637,-4.1841 7.86142,-6.6362 z m -115.76376,-13.1486 c 0.32823,-1.9083 0.99864,-5.0446 1.4898,-6.9696 0.49116,-1.925 1.19145,-8.45 1.55619,-14.5 0.36474,-6.05002 1.08152,-11.51223 1.59284,-12.13826 0.51132,-0.62603 0.68238,-2.87603 0.38013,-5 -0.30224,-2.12397 -0.72608,-6.56176 -0.94187,-9.86176 -0.81204,-12.41872 -1.73167,-21.14633 -2.69726,-25.59816 l -0.99734,-4.59816 -6.40125,1.77501 c -15.99474,4.43521 -31.02202,16.24493 -36.75812,28.88769 -2.57666,5.67913 -5.57255,17.95707 -5.67911,23.27454 -0.0241,1.2046 2.96848,3.2942 9.71511,6.7837 5.3625,2.7735 12.25467,6.4901 15.31593,8.2591 3.06127,1.7689 9.02162,5.1683 13.24523,7.554 4.22361,2.3858 7.9515,4.7783 8.2842,5.3166 0.85392,1.3816 1.21421,0.7763 1.89552,-3.1847 z m -51.97843,-29.71962 c 1.60764,-12.02566 2.74211,-15.92517 7.07201,-24.30866 6.82062,-13.20599 15.1938,-20.22691 31.91554,-26.76123 2.75,-1.07462 5.225,-1.94429 5.5,-1.93261 1.84869,0.0785 7,-1.55334 7,-2.21748 0,-1.00362 -4.26522,-17.25547 -6.83145,-26.03002 -1.04556,-3.575 -3.64871,-10.69447 -5.78478,-15.82103 l -3.88377,-9.32104 -10,-3.54162 c -8.70527,-3.08308 -28.06418,-8.71246 -34,-9.88687 -1.1,-0.21764 -3.15741,-0.64646 -4.57202,-0.95294 -2.25773,-0.48914 -2.86049,0.004 -4.93272,4.03271 -2.10403,4.09092 -7.69429,10.25215 -14.99526,16.52686 -11.29905,9.71078 -32.64146,16.2699 -51.68973,15.8857 l -9.54481,-0.19252 -4.71508,7.78952 c -5.74254,9.48693 -14.66619,19.74254 -22.05038,25.34165 -5.36141,4.06533 -25.48777,14.55884 -33.5,17.46628 l -4,1.4515 9,0.60887 c 8.3669,0.56604 27.0903,2.28832 34,3.12751 12.16577,1.47755 42.54357,7.83903 55,11.51768 7.01156,2.07066 12.68957,3.68711 15.5,4.41262 3.35313,0.86562 27.06215,10.08117 35,13.6043 4.675,2.07495 8.80993,3.81274 9.18873,3.86174 0.3788,0.049 0.97447,-2.04842 1.32372,-4.66092 z m -591.57329,-4 c 2.29275,-3.7125 5.72597,-8.94621 7.6294,-11.63047 7.40981,-10.44951 13.78804,-19.14197 14.39614,-19.61953 0.35018,-0.275 3.22115,-3.96083 6.37995,-8.19074 3.1588,-4.22991 7.79019,-9.96741 10.29198,-12.75 2.50179,-2.78259 4.16951,-5.04345 3.70604,-5.02413 -0.46347,0.0193 -3.76767,0.66202 -7.34267,1.42821 -3.575,0.7662 -6.5,1.38858 -6.5,1.38307 0,-0.005 -1.14574,0.27756 -2.54608,0.62902 -4.18314,1.0499 -18.2342,23.82804 -24.88067,40.33401 -2.81033,6.97922 -6.45105,20.19056 -5.56402,20.19056 0.14372,0 2.13719,-3.0375 4.42993,-6.75 z m 188.77538,2.78812 c 10.65202,-2.13561 18.04279,-4.47339 16.66012,-5.26978 -0.48106,-0.27708 -4.69966,-1.04905 -9.37466,-1.71549 -7.12808,-1.01613 -15.07909,-2.38289 -39,-6.70399 -1.375,-0.24838 -5.03996,-1.10349 -8.14434,-1.90023 -7.74718,-1.98832 -9.17882,-1.92099 -7.95061,0.37396 1.8678,3.49002 8.88852,9.71981 13.61281,12.07923 10.82901,5.40827 19.08697,6.16563 34.19668,3.1363 z M 481.5,985.75253 c 18.14168,-2.10939 31.79554,-4.36818 47.5,-7.85803 18.49065,-4.10899 16.82265,-3.72171 25.47188,-5.91417 l 6.97189,-1.76727 -5.97189,-1.41817 c -4.79384,-1.13842 -12.48162,-1.31043 -38.97188,-0.87199 -47.02846,0.77838 -72.46013,3.82756 -102.29333,12.26464 -4.78867,1.35427 -9.51363,2.64674 -10.49992,2.87214 -3.64006,0.83189 -8.70675,2.9307 -8.70675,3.60666 0,1.14443 75.67372,0.34499 86.5,-0.91381 z m -90.38889,-3.16605 c 7.53142,-2.74863 23.86889,-7.48723 29.81882,-8.64879 1.33646,-0.26091 2.72397,-0.65611 3.08335,-0.87822 0.62854,-0.38846 14.99054,-3.22108 27.48672,-5.42121 15.46745,-2.72327 36.15095,-4.17241 58.94287,-4.1297 14.115,0.0265 23.55585,-0.32233 23,-0.84971 -0.51858,-0.49201 -5.21787,-1.88037 -10.44287,-3.08523 -5.225,-1.20486 -11.525,-2.79185 -14,-3.52664 -2.475,-0.73478 -7.72483,-2.04004 -11.66628,-2.90056 -3.94146,-0.86052 -8.21646,-1.96332 -9.5,-2.45067 C 485.56635,949.83486 464.047,945.2041 457,944.06063 c -1.925,-0.31236 -6.2,-1.18764 -9.5,-1.94508 -3.3,-0.75743 -8.925,-1.90316 -12.5,-2.54605 -3.575,-0.6429 -9.60498,-1.82704 -13.39995,-2.63143 -7.23596,-1.53375 -26.1314,-3.88534 -38.1993,-4.75401 -3.90459,-0.28106 -12.67959,-1.26315 -19.5,-2.18241 -6.82041,-0.91927 -18.70075,-1.68918 -26.40075,-1.71093 -15.41208,-0.0435 -43.26096,1.70048 -44.32507,2.77581 -0.37121,0.37512 -0.63419,5.25384 -0.5844,10.8416 0.0714,8.01129 0.65368,11.97045 2.7538,18.72362 1.4648,4.71024 3.22406,9.24872 3.90947,10.0855 1.77297,2.16454 24.23901,6.82087 58.54966,12.13505 21.11457,3.27031 23.67438,3.24988 33.30765,-0.26582 z M 289.9523,966.31768 c -1.12657,-4.13017 -1.95485,-10.14014 -2.79081,-20.25 l -0.66149,-8 -2.27796,8.5 c -1.25287,4.675 -2.27556,8.725 -2.27263,9 0.003,0.275 -0.66029,2.71169 -1.47383,5.41488 -0.81354,2.70318 -1.36585,4.99476 -1.22737,5.09239 0.13848,0.0976 2.72679,0.88714 5.75179,1.75445 3.025,0.86732 5.57623,1.61325 5.66939,1.65761 0.0932,0.0444 -0.22953,-1.38183 -0.71709,-3.16933 z m -15.50074,-4 c 1.71244,-5.50568 5.82106,-19.30514 6.00563,-20.17089 0.27438,-1.28703 1.54869,-6.4087 2.17357,-8.73593 0.409,-1.52322 -1.83607,-1.61257 -27.84295,-1.10799 -15.55829,0.30186 -29.16518,0.86561 -30.23752,1.25277 -1.67585,0.60506 -1.06792,1.39279 4.32798,5.60799 9.41652,7.35606 24.50734,16.2997 34.62173,20.51872 10.27707,4.28687 10.42668,4.32287 10.95156,2.63533 z m 315.38047,-1.3763 c 9.66412,-3.31 30.50688,-13.16082 36.84889,-17.41573 C 632.54599,939.59072 644,928.59284 644,926.89626 c 0,-0.67606 0.64081,-1.58906 1.42402,-2.02889 C 646.87646,924.05172 654,912.84569 654,911.37651 c 0,-0.44486 -0.96029,-0.80883 -2.13398,-0.80883 -1.17369,0 -3.76119,-0.423 -5.75,-0.94001 -1.98881,-0.517 -6.54102,-1.67989 -10.11602,-2.58419 -15.20867,-3.84706 -30.22578,-10.22526 -70.5,-29.94342 -31.09485,-15.22395 -54.19899,-25.81487 -65.79911,-30.16224 -2.31049,-0.8659 -6.90089,-2.62417 -10.20089,-3.90726 -17.51605,-6.81049 -62.28438,-8.6491 -96,-3.94266 -37.22052,5.1957 -43.41362,7.35251 -60.69665,21.13823 -3.68316,2.93785 -7.13587,5.34155 -7.67268,5.34155 -2.8887,0 -20.05204,24.17137 -22.01214,31 -0.71043,2.475 -2.31366,6.3 -3.56274,8.5 -1.24908,2.2 -2.54107,5.575 -2.8711,7.5 -0.33003,1.925 -1.29196,5.70192 -2.13762,8.39316 l -1.53758,4.89316 7.24526,-0.71552 c 21.40621,-2.11401 27.28517,-2.50104 38.24525,-2.5178 6.6,-0.0101 16.275,0.43784 21.5,0.99541 5.225,0.55756 12.2,1.22463 15.5,1.48238 3.3,0.25774 7.575,0.7022 9.5,0.98767 1.925,0.28548 6.2,0.72055 9.5,0.96682 3.3,0.24627 11.4,1.36245 18,2.48042 11.34236,1.92126 14.14055,2.46732 25.83549,5.04172 2.65952,0.58544 9.63452,1.92635 15.5,2.9798 14.61953,2.62569 39.03949,8.20698 54.66451,12.4938 7.15,1.96165 13.96168,3.7419 15.13706,3.95611 1.17539,0.21421 4.55039,1.09122 7.5,1.94892 2.94962,0.8577 9.86294,2.86974 15.36294,4.47121 8.5722,2.49602 11.83215,2.92825 22.83203,3.02725 11.41782,0.10276 13.67711,-0.17395 20.5,-2.51081 z m 283.62793,-17.1237 C 867.09011,935.81527 858.8631,927.62827 851,921.46696 c -4.125,-3.23223 -7.95,-6.23666 -8.5,-6.6765 -6.61648,-5.29127 -44.5,-23.75311 -44.5,-21.68625 0,0.18941 1.78353,5.65867 3.9634,12.15392 2.17987,6.49525 4.87125,15.63455 5.98083,20.30955 1.10958,4.675 2.58855,10.08814 3.2866,12.0292 l 1.26917,3.5292 4.5,-0.83887 c 11.05594,-2.06102 36.08806,0.87861 52.5,6.16529 8.2541,2.65885 8.20152,2.69383 3.95996,-2.63482 z M 202.91809,931.45419 c 3.62005,-0.61241 6.96571,-1.46871 7.4348,-1.90288 0.46908,-0.43417 -0.6291,-3.05316 -2.44042,-5.81998 -3.1253,-4.77395 -3.37286,-4.93624 -4.85288,-3.18132 -6.8136,8.07909 -9.42221,12.01767 -7.9596,12.01767 0.6799,0 4.19804,-0.50107 7.8181,-1.11349 z m 63.48866,-4.4891 c 0.8898,-0.34145 3.52479,-0.35098 5.85553,-0.0212 4.91366,0.69528 11.64798,-0.63959 12.88427,-2.5539 0.46969,-0.72728 1.34827,-3.11033 1.9524,-5.29568 0.60413,-2.18534 1.92601,-5.56034 2.93751,-7.5 1.0115,-1.93965 3.04311,-6.22664 4.51468,-9.52664 4.16713,-9.34478 8.24186,-17.13716 12.19673,-23.32462 3.65821,-5.72333 14.62764,-17.38831 19.25213,-20.47287 l 2.5,-1.66751 -2.8773,1.00615 c -6.8319,2.38901 -33.73523,16.23379 -41.6227,21.41954 -1.925,1.26562 -6.76063,4.39413 -10.74583,6.95224 -13.97894,8.97309 -35.89325,26.27571 -47.58117,37.56808 l -4.827,4.66365 21.97147,-0.31322 c 12.08431,-0.17227 22.69948,-0.59258 23.58928,-0.93403 z m -47.33106,-4.00831 c 4.11949,-4.43655 25.94211,-22.61312 35.55873,-29.61771 18.38186,-13.38903 39.58659,-26.11186 57.86558,-34.71932 18.91557,-8.90723 21.49733,-10.05207 22.66867,-10.05207 0.69363,0 11.62693,-5.12519 24.29623,-11.38931 12.66931,-6.26412 27.85748,-13.10424 33.7515,-15.20027 5.89402,-2.09602 10.53189,-3.99547 10.30637,-4.22098 -0.99295,-0.99295 -28.41386,-6.14215 -32.86239,-6.17101 -3.80448,-0.0247 -40.06318,17.91144 -62.88747,31.10861 -12.72007,7.35483 -37.36316,21.24326 -40.27291,22.69713 -3.91891,1.9581 -23.0237,15.07775 -27.17486,18.66155 -0.64618,0.55785 -3.34228,2.81428 -5.99135,5.01428 -2.64906,2.2 -9.6156,8.64254 -15.4812,14.31675 -9.81111,9.491 -10.57028,10.49151 -9.48487,12.5 2.07008,3.83056 6.11219,9.65806 6.70797,9.67087 0.31662,0.007 1.66662,-1.16252 3,-2.59852 z m 14.54548,-40.09337 c 15.43177,-12.09028 30.87557,-22.1478 48.41652,-31.53045 4.69573,-2.51175 10.82736,-5.91685 13.62583,-7.56688 2.79847,-1.65004 7.73151,-4.47314 10.96231,-6.27354 3.23079,-1.80041 8.57417,-4.78245 11.87417,-6.62676 3.3,-1.84431 13.875,-7.27148 23.5,-12.06037 l 17.5,-8.70709 -5,-0.84335 c -2.75,-0.46384 -12.65,-0.88626 -22,-0.93871 -19.45334,-0.10912 -29.12484,1.48492 -50.2538,8.28274 -22.6089,7.27395 -47.93683,22.63561 -58.94767,35.75239 -2.63919,3.14396 -5.08242,5.94129 -5.42939,6.21629 -0.34698,0.275 -2.68838,4.55 -5.20312,9.5 -5.67199,11.16473 -8.1508,21.46404 -7.25956,30.16307 1.07455,10.48821 0.78501,10.5018 11.9719,-0.56165 5.5669,-5.50547 12.87617,-12.16803 16.24281,-14.80569 z m 424.93443,15.09895 c 1.94116,-8.72514 1.40925,-16.97797 -1.53731,-23.85202 l -1.87228,-4.36784 -6.323,-0.56758 c -8.03481,-0.72124 -32.2188,-2.38834 -36.82301,-2.53836 -6.43063,-0.20952 -33.39584,-4.04708 -42,-5.97724 -4.675,-1.04873 -14.125,-3.57662 -21,-5.61753 -6.875,-2.04091 -17.675,-5.01015 -24,-6.5983 -12.88401,-3.23507 -18.46634,-3.49512 -10.5,-0.48914 2.75,1.03768 8.375,3.45232 12.5,5.36589 4.125,1.91356 11.99621,5.56456 17.49158,8.11332 5.49537,2.54877 15.5439,7.44617 22.33009,10.88311 6.78618,3.43695 15.56497,7.66096 19.50842,9.3867 3.94345,1.72574 10.31991,4.59558 14.16991,6.37741 6.02297,2.78751 15.83737,6.75531 29.5,11.92636 6.25264,2.3665 14.58054,4.55209 19.59005,5.14126 2.69518,0.31697 5.07775,0.75375 5.29461,0.97061 1.08001,1.08001 2.13994,-1.2751 3.67094,-8.15665 z m 32.48489,7.19017 c 4.14727,-0.73996 10.89727,-2.92002 15,-4.8446 7.11817,-3.3391 18.02063,-11.93319 22.42504,-17.677 1.08103,-1.40979 2.27356,-2.78825 2.65005,-3.06325 0.37648,-0.275 0.842,-1.37197 1.03447,-2.4377 0.27335,-1.51359 -0.41612,-2.10102 -3.15005,-2.68386 -3.45022,-0.73554 -24.89188,-2.51417 -40.5,-3.35956 -4.4,-0.23832 -12.32505,-0.69508 -17.61122,-1.01503 l -9.61122,-0.58172 2.36122,8.15224 c 2.73816,9.45362 2.85827,12.23771 0.88122,20.42563 -0.79682,3.3 -1.46479,6.5625 -1.48438,7.25 -0.049,1.71997 18.03703,1.61331 28.00487,-0.16515 z m 94.69386,-25.33485 c -8.03536,-18.07144 -21.81607,-38.18965 -34.7631,-50.75 l -7.21549,-7 0.7384,5 c 1.6654,11.2769 1.49614,24.85233 -0.42387,33.997 -2.09889,9.99663 -2.09392,10.00906 4.40925,11.04556 5.27512,0.84076 15.74441,3.60835 27.52046,7.27513 5.225,1.62693 9.82785,3.00852 10.22856,3.07019 0.40071,0.0617 0.17832,-1.12538 -0.49421,-2.63788 z m -47.05256,-18 c 2.64415,-11.27052 2.44614,-29.35665 -0.42836,-39.1253 -1.19363,-4.05641 -2.97646,-8.27623 -3.96183,-9.37737 -5.6126,-6.27198 -56.11699,-38.97498 -69.7916,-45.192 -2.2,-1.0002 -5.8,-2.68886 -8,-3.75257 -5.82742,-2.81757 -23.00377,-9.31009 -38.49632,-14.55128 -11.92888,-4.03559 -14.57921,-4.58151 -22.7262,-4.6812 -7.36769,-0.0902 -9.47944,-0.45034 -10.5,-1.79088 -0.98567,-1.29471 -4.81814,-2.05877 -16.77748,-3.34485 -17.17242,-1.84669 -26.51118,-1.51885 -43.79244,1.53736 -5.88916,1.0415 -12.28256,2.13231 -14.20756,2.42401 -1.925,0.29171 -6.425,1.49595 -10,2.6761 -3.575,1.18014 -7.53755,2.33507 -8.80566,2.5665 -3.97227,0.72494 -29.31574,11.9533 -37.83848,16.76425 -4.47928,2.52847 -8.49384,4.59723 -8.92126,4.59723 -0.42741,0 -1.48755,0.62205 -2.35586,1.38233 -2.5546,2.23678 -33.3188,19.28839 -49.79226,27.59824 l -15.21352,7.67429 11.21352,2.13957 c 6.16744,1.17676 14.65016,2.86131 18.8505,3.74346 l 7.63698,1.60389 15.36302,-3.63255 c 23.22661,-5.49187 27.91595,-6.47019 33.36302,-6.96041 2.75,-0.24749 10.625,-0.97814 17.5,-1.62366 11.31406,-1.06232 20.81689,-0.92484 43.5,0.62932 3.3,0.2261 10.5,1.10875 16,1.96143 43.60782,6.76065 55.47182,10.02736 79,21.75236 18.27842,9.10885 23.27635,13.46797 34.82798,30.37645 l 4.82798,7.06686 9.07564,0.64421 c 4.99161,0.35432 12.49402,0.64095 16.67202,0.63696 8.90431,-0.008 35.39348,1.84542 42.59638,2.98122 9.75437,1.53814 9.15951,1.89585 11.18179,-6.72397 z m -89.3397,-2 C 644.82286,851.98957 638.10222,844.30743 632.12921,840.1422 622.43259,833.38035 597.68939,821.89238 589,820.11784 c -1.925,-0.39312 -5.75,-1.31692 -8.5,-2.05289 -8.98409,-2.40437 -18.92999,-4.57024 -22.5,-4.89973 -1.925,-0.17767 -6.425,-0.82603 -10,-1.4408 -14.2305,-2.44712 -28.26037,-4.16279 -39.10711,-4.7823 -15.72121,-0.8979 -43.82354,1.39355 -62.89289,5.12826 -7.18288,1.40676 -9.11717,1.81272 -16.5,3.46296 l -6,1.34115 5,1.34007 c 2.75,0.73704 5.9,1.52319 7,1.747 2.80656,0.57104 29.99721,9.04934 42.06633,13.11667 5.53649,1.86581 13.08548,3.8747 16.77553,4.46419 11.56582,1.84765 28.44626,5.74551 50.15814,11.58201 24.26575,6.52302 30.98698,8.1329 39,9.34131 4.4,0.66355 10.475,1.60743 13.5,2.09751 3.025,0.49009 13.825,1.42104 24,2.06879 10.175,0.64774 18.6875,1.34825 18.91667,1.55668 0.22916,0.20843 3.06063,0.37896 6.29215,0.37896 h 5.87549 z M 389,834.42965 c 7.54419,-1.65359 22.37937,-2.36795 46.5,-2.23914 l 23,0.12283 -5,-1.78368 c -2.75,-0.98103 -8.825,-2.77779 -13.5,-3.99281 -9.7529,-2.53474 -12.50461,-3.30344 -19.66263,-5.49281 l -5.16263,-1.57905 -12.33737,4.18335 c -6.78555,2.30085 -16.16237,6.1506 -20.83737,8.55501 l -8.5,4.37165 5.5,-0.57951 c 3.025,-0.31872 7.525,-1.02335 10,-1.56584 z m 339.10625,-36.65149 c -3.67045,-7.27113 -13.58776,-20.69771 -18.39217,-24.90031 -5.22076,-4.56679 -14.25206,-10.55142 -21.23887,-14.07402 -8.22457,-4.14665 -25.26971,-10.54108 -31.08262,-11.66054 -1.04521,-0.20129 -3.69863,-0.82932 -5.89649,-1.39561 -6.60831,-1.70269 -28.79254,-3.53526 -33.03509,-2.72893 l -3.96101,0.75282 10,3.45091 c 5.5,1.89801 11.125,3.82598 12.5,4.28439 12.3556,4.11923 39.97033,17.30282 51.81593,24.73752 12.20436,7.65987 24.98798,16.15334 35.18407,23.37639 3.025,2.14295 5.84398,3.90767 6.2644,3.92159 0.42041,0.0139 -0.55075,-2.57998 -2.15815,-5.76421 z"
       id="path1" />
  </g>
</svg>
