<?xml version="1.0" encoding="UTF-8" standalone="no"?>
<!-- Created with Inkscape (http://www.inkscape.org/) -->

<svg
   version="1.1"
   id="svg1"
   width="983.65381"
   height="779.73749"
   viewBox="0 0 983.65381 779.73749"
   xmlns="http://www.w3.org/2000/svg"
   xmlns:svg="http://www.w3.org/2000/svg">
  <defs
     id="defs1" />
  <g
     id="g1"
     transform="translate(39.384617,633.20184)">
    <path
       style="fill:#000000"
       d="m 458.91774,145.68045 c -3.43813,-1.3846 -5.63087,-6.5748 -4.93195,-11.6739 0.72388,-5.2813 2.2495,-8.4403 9.08639,-18.8143 2.89977,-4.4 9.66764,-15.424996 15.0397,-24.499996 5.37207,-9.075 10.32993,-17.175 11.01748,-18 2.08181,-2.498 8.39725,-17.7255 10.51047,-25.3424 4.19866,-15.1336 6.24248,-27.8793 5.67632,-35.3987 -0.45204,-6.0037996 -1.15288,-8.2251996 -4.10145,-12.9999996 -4.55971,-7.3838 -12.7985,-18.2362004 -23.91024,-31.4953004 l -8.81092,-10.5136 -7.68908,-0.6344 c -4.22899,-0.3489 -9.59964,-0.9022 -11.93476,-1.2296 -3.71921,-0.5214 -5.51722,0.035 -14.5,4.4859 -21.67171,10.7384 -35.97398,13.3824 -49.75197,9.1975 -6.05667,-1.8397 -8.12891,-3.0749 -12.39626,-7.3891 -4.92339,-4.9775 -9.55232,-13.056 -12.99566,-22.6803 -2.39733,-6.7005 -13.68998,-20.9989 -23.92464,-30.2925 -22.99261,-20.878604 -35.21092,-33.929504 -42.7878,-45.703604 -4.06889,-6.3228 -9.23767,-13.7646 -11.48617,-16.5372 -2.24851,-2.7726 -4.41421,-6.34 -4.81267,-7.9277 -0.39847,-1.5876 -1.97997,-4.7208 -3.51444,-6.9627 -21.95006,-32.0698 -24.67398,-38.2966 -26.69658,-61.0276 -0.46436,-5.2188 -2.60018,-12.5487 -3.6565,-12.5487 -0.20373,0 -2.76561,1.7871 -5.69307,3.9713 -2.92746,2.1841 -5.70873,3.7326 -6.1806,3.441 -1.57152,-0.9713 -0.88558,-4.2256 1.49347,-7.0855 5.73399,-6.893 5.86402,-9.2177 1.05944,-18.9414 -3.72821,-7.5453 -12.75394,-17.3854 -15.94664,-17.3854 -3.19362,0 -7.46423,-3.9666 -7.46423,-6.933 0,-2.3292 -0.79408,-3.2025 -4.75,-5.2238 -7.9725,-4.0735 -13.22808,-13.7871 -17.26482,-31.9097 -3.24295,-14.5589 -2.32308,-30.0804 3.18113,-53.677 3.71468,-15.925 3.43213,-16.8881 -4.6275,-15.7735 -11.37155,1.5727 -18.88208,-0.351 -39.0177,-9.994 -9.9603,-4.7699 -12.8893,-6.7574 -19.95394,-13.5398 -4.55404,-4.372 -8.68216,-7.9505 -9.17362,-7.9522 -0.49145,0 -15.51855,7.3629 -33.393548,16.3656 -17.874999,9.0026 -38.124999,18.9659 -44.999999,22.1405 -6.875,3.1747 -16.93909,7.9602 -22.36465,10.6345 -5.42557,2.6744 -10.4438997,4.8624 -11.1518597,4.8624 -0.70796,0 -6.16886003,2.0888 -12.13534,4.6417 -9.4185703,4.03 -31.5855603,12.3583 -32.8934403,12.3583 -0.25009,0 -0.45471,-0.8651 -0.45471,-1.9224 0,-1.3409 1.13446,-2.2865 3.75,-3.126 2.0625,-0.6619 5.55,-2.0023 7.75,-2.9785 2.2,-0.9762 9.85,-4.0394 17,-6.807 7.1500003,-2.7677 17.9500003,-7.3381 24,-10.1566 6.05,-2.8185 15.05,-6.9893 20,-9.2685 9.57823,-4.4103 81.533037,-40.4407 82.305937,-41.2136 0.25185,-0.2518 -2.06269,-4.636 -5.14343,-9.7426 -8.47738,-14.052 -10.2146,-19.9641 -10.07439,-34.2848 0.22687,-23.1724 13.29687,-44.7195 39.44233,-65.0243 l 6.46955,-5.0243 2.70388,-9.4495 c 1.48713,-5.1972 4.18713,-12.3088 6,-15.8035 3.93808,-7.5916 12.43599,-18.1924 17.61372,-21.9724 2.05371,-1.4993 7.5474,-5.6857 12.20821,-9.3032 18.9316,-14.6937 34.34528,-21.362 48.69065,-21.0645 9.13502,0.1895 16.04931,1.9915 25.06793,6.5332 8.20736,4.1331 5.79871,4.5758 25.97862,-4.7744 21.6169,-10.016 34.55348,-14.0776 48.62788,-15.2673 18.86983,-1.5951 30.26125,4.4812 42.6884,22.7703 3.92501,5.7764 6.2927,7.1468 10.8194,6.262 1.43072,-0.2796 8.35943,0.3773 15.39714,1.4598 14.30744,2.2008 20.0386,4.4949 29.38496,11.7624 3.20057,2.4887 8.12486,5.8463 10.94287,7.4614 7.0804,4.058 13.09056,10.8002 13.9015,15.5946 1.19496,7.0647 1.48482,7.5821 3.82124,6.821 1.18448,-0.3858 14.5286,-0.9258 29.6536,-1.2 22.90418,-0.4152 28.9757,-0.2217 36.33011,1.1574 16.1228,3.0234 33.55602,9.4088 41.16989,15.0795 3.3686,2.5088 7.85064,4.0439 14.5,4.9662 5.13878,0.7127 20.55187,4.9573 26.5,7.2977 5.26878,2.0732 19.02487,11.1841 23.73827,15.7224 8.2698,7.9625 12.2053,18.6454 11.5513,31.356 -0.6311,12.2668 -3.1179,17.4322 -12.5976,26.1671 l -7.51893,6.9283 5.35153,11.5974 c 5.0203,10.8795 8.4451,15.4467 11.5829,15.4467 2.6954,0 12.6254,5.3929 16.0451,8.7139 6.6286,6.4372 7.8269,10.738 7.8813,28.2861 l 0.048,15.5 4.2871,11.5 c 12.2415,32.8369 11.8568,71.0148 -0.8751,86.858 -2.0941,2.6059 -5.7276,5.3625 -9.5458,7.2422 l -6.1647,3.0349 0.8232,4.1825 c 3.4464,17.5098 18.5505,46.1245 36.7817,69.6824 13.357,17.2595 24.0285,28.0777 35.8859,36.3791 5.8437,4.0912 9.8468,7.8971 13.628,12.9569 2.9446,3.9402 7.0962,8.8276 9.2258,10.8609 7.8371,7.4826 43.4852,25.8186 58.848,30.269 4.9369,1.430204 13.2619,4.130604 18.5,6.001004 5.2382,1.8704 12.5343,4.1923 16.2135,5.1599 6.6755,1.7556 6.713,1.7537 18,-0.8741 9.992,-2.3264 20.2283,-4.3677 26.3105,-5.2468 18.798,-2.717 20.4876,-2.8113 29.1455,-1.6259 18.4517,2.5263 30.4225,7.1733 28.8739,11.2087 -1.9052,4.965 -34.634,12.8658 -53.4219,12.8962 -9.3778,0.015 -24.7651,-3.069 -38.9583,-7.8085 -6.4101,-2.1406 -10.5823,-1.5009 -32.1392,4.927 -24.1558,7.203 -27.2785,8.3765 -60,22.5483 -27.2408,11.7981 -74.551,39.0157 -103.7369,59.6800004 -9.4525,6.6925996 -26.0882,18.0182996 -36.96826,25.1682996 -23.29166,15.3065 -37.9714,26.6096 -50.15391,38.6174 -1.99228,1.9637 -22.88367,19.041 -29.14093,23.8207 -12.88656,9.843696 -27.12903,21.601196 -34.99136,28.886396 -4.13501,3.8315 -31.11346,21.4434 -34.94766,22.8144 -4.14105,1.4807 -7.66504,1.5951 -10.75862,0.3493 z m 11.41013,-6.1392 c 6.17476,-2.2949 15.86236,-8.3223 20.78751,-12.9336 1.65,-1.5449 7.33814,-6.0953 12.6403,-10.1121 16.84571,-12.7619 49.71088,-39.650996 74.13605,-60.655296 11.4523,-9.8483 25.02016,-19.6995 52.72362,-38.2807 15.125,-10.1445996 29.8175,-20.0863996 32.65,-22.0928996 2.8325,-2.0065 12.7325,-8.2273004 22,-13.8240004 19.7521,-11.9284 20.1845,-12.1752 46.1956,-26.37 12.6889,-6.9246 55.2018,-25.2421 68.1544,-29.3656 5.225,-1.6634 14.9,-4.6702 21.5,-6.6818 6.6,-2.0117 12.7929,-3.967 13.7619,-4.3453 1.8969,-0.7404 -9.8886,-5.3449 -33.7095,-13.1702 -12.3205,-4.047304 -38.3627,-16.424304 -50.0524,-23.788304 l -5,-3.1498 -0.2574,5.7103 c -0.354,7.8549 -1.0137,10.2103 -2.8593,10.2103 -0.8682,0 -5.3285,-1.832 -9.9118,-4.0711 -13.6512,-6.6694 -26.8005,-19.1389 -38.5692,-36.5753 -5.5008,-8.15 -26.5465,-49.8211 -37.55,-74.3502 -4.0701,-9.0732 -9.8072,-20.5482 -12.749,-25.5 -2.9418,-4.9518 -5.6914,-10.1284 -6.1101,-11.5034 -0.4187,-1.375 -2.9771,-6.775 -5.6854,-12 -2.7083,-5.225 -4.9937,-10.5125 -5.0788,-11.75 -0.085,-1.2375 -0.3316,-2.25 -0.5479,-2.25 -0.2163,0 -2.17773,1.4134 -4.35876,3.1408 -4.68233,3.7085 -14.15817,7.802 -18.13805,7.8355 -1.54866,0.013 -3.7247,-0.4627 -4.83565,-1.0573 -1.11095,-0.5945 -2.17485,-0.9261 -2.36422,-0.7367 -0.18938,0.1894 -1.0641,7.5384 -1.94383,16.331 -2.71215,27.1073 -6.42839,45.0808 -12.50639,60.4867 -2.89638,7.3415 -12.79436,25.8901 -19.89497,37.2826 -3.1597,5.0696 -8.61839,14.6174 -12.13044,21.2174 l -6.38554,12 3.93839,-3.3495 c 2.16611,-1.8423 5.90891,-5.4423 8.31732,-8 17.38752,-18.4656 23.12994,-28.78 30.14749,-54.1505 1.74952,-6.325 3.65827,-12.0852 4.24167,-12.8005 1.71846,-2.107 6.18037,-1.0622 6.54925,1.5336 0.58451,4.1133 -10.95654,34.4324 -16.65998,43.7669 -4.16362,6.8144 -14.79913,19.9887 -18.31241,22.6837 -1.83972,1.4113 -7.88665,7.034 -13.43762,12.4949 -8.03661,7.9063 -12.29425,13.2794 -20.89963,26.3752 -20.15192,30.667604 -31.38933,44.417904 -41.7577,51.095504 -2.6125,1.6826 -4.7355,3.3498 -4.71777,3.705 0.0177,0.3552 3.28022,5.6533 7.25,11.7736 6.2256,9.5982 15.2723,21.1557 23.83865,30.4548004 11.13656,12.0891 13.262,16.4108996 12.2911,24.9925996 -0.41555,3.6729 -0.21411,6.4259 0.57854,7.907 2.88092,5.383 2.1441,26.2386 -1.18515,33.5455 -1.38467,3.0391 -4.80537,3.3523 -4.80537,0.4401 0,-1.1177 0.74867,-3.7052 1.66372,-5.75 2.09926,-4.6912 2.12868,-21.6446 0.0489,-28.1983 -1.14518,-3.6086 -1.98517,-4.6153 -4.31723,-5.1741 -1.59247,-0.3815 -3.8875,-1 -5.10006,-1.3743 -1.78058,-0.5498 -2.29386,-0.2277 -2.66843,1.6741 -4.4897,22.7957 -8.55939,36.9569 -13.26396,46.1545 -2.38646,4.6655 -15.10549,26.3728 -18.86725,32.200196 -18.03069,27.9318 -21.02763,34.8252 -16.92428,38.9286 2.05563,2.0556 3.23154,1.9884 10.14106,-0.5796 z M 513.11538,16.692254 c -0.33992,-0.55 -1.15398,-0.9931 -1.80902,-0.9846 -0.71561,0.01 -0.59227,0.4022 0.30902,0.9846 1.92112,1.2416 2.2673,1.2416 1.5,0 z m 7.96995,-3.25 C 520.3491,9.9693544 518.37442,7.1306544 511.17245,-0.80774562 l -4.53618,-4.99999998 1.48956,3.7179 c 0.81925,2.04489998 1.48955,4.8112 1.48955,6.1474 0,3.0349 7.82472,12.5922996 10.32946,12.6167996 1.54047,0.015 1.72062,-0.4954 1.14049,-3.2321 z m -22.0088,-26.5 c -0.97287,-1.5125 -4.77939,-6.8 -8.45891,-11.75 -3.67952,-4.95 -8.3297,-11.5875 -10.33372,-14.75 -3.47518,-5.484 -4.96022,-6.705 -6.03671,-4.9632 -0.48239,0.7805 2.45959,4.7524 17.86819,24.1236 8.05511,10.1266 10.22633,12.4159004 6.96115,7.3396 z m -87.10186,-22.4107 c 7.03481,-1.847 10.68076,-3.5917 5.14071,-2.4601 -6.48962,1.3256 -17.70943,2.6094 -18.50534,2.1175 -0.46227,-0.2857 -3.01173,-0.7748 -5.66545,-1.0869 -6.13025,-0.7209 -13.47085,-3.8715 -19.18767,-8.2352 l -4.47016,-3.4122 3.83683,4.6824 c 6.16663,7.5255 13.31958,10.4857 24.94,10.321 3.82152,-0.054 10.0815,-0.9211 13.91108,-1.9265 z m -0.0567,-6.4209 c 13.11976,-2.8832 16.89731,-4.5979 36.09338,-16.3837 7.39859,-4.5426 20.77912,-14.4427 32.10403,-23.7536 8.54233,-7.0232 45.40806,-43.752404 55.01961,-54.815904 20.46634,-23.5581 25.90815,-32.9193 35.43975,-60.9652 7.39412,-21.7565 7.63105,-22.6098 13.04935,-47 1.49242,-6.718 1.92968,-10.328 3.49076,-28.8193 0.82739,-9.8006 1.9638,-18.6778 2.52536,-19.727 0.88639,-1.6563 3.95921,-3.9537 5.28811,-3.9537 0.72645,0 2.55661,5.2175 3.27271,9.3299 0.86701,4.9791 2.82661,5.6074 6.5031,2.0851 3.40461,-3.2618 6.50026,-9.4827 10.40474,-20.9091 1.50241,-4.3968 4.65357,-11.8218 7.00256,-16.5 3.79102,-7.5501 7.25282,-16.972 9.13322,-24.8576 1.0664,-4.4718 1.2354,-25.1416 0.233,-28.4895 -0.5202,-1.7373 -1.1145,-4.2838 -1.3208,-5.6588 -1.4178,-9.4501 -8.34265,-31.8505 -10.73887,-34.7378 -2.95475,-3.5603 -13.93056,0.9897 -19.01545,7.8827 -3.36963,4.5678 -7.50618,15.0977 -8.75593,22.2888 -1.36008,7.826 -1.41387,7.5663 1.56757,7.5663 3.38102,0 8.13632,5.0711 8.98188,9.5784 0.95137,5.0712 -0.40537,12.349 -3.20116,17.1716 -1.3551,2.3375 -2.81066,4.25 -3.23457,4.25 -1.62209,0 -6.22969,-5.8025 -7.20638,-9.0752 -2.87802,-9.6439 -3.30927,-17.5781 -1.4914,-27.4394 3.74943,-20.3394 10.28951,-31.296 21.14648,-35.4266 l 4.90636,-1.8667 -3.81263,-0.719 c -4.44829,-0.839 -13.08938,-0.077 -27.46537,2.423 -8.3925,1.4592 -11.05254,2.3699 -14.5,4.9642 -16.87585,12.6995 -22.58755,15.2011 -36.222,15.8649 -8.45194,0.4115 -10.92884,0.1594 -16,-1.6286 -16.41232,-5.7867 -26.64065,-19.2742 -23.5823,-31.0966 1.32213,-5.1108 2.87113,-6.5967 8.43986,-8.0962 3.92373,-1.0566 4.90014,-1.0016 38.64244,2.1755 22.30937,2.1006 46.04296,-1.7144 65.25,-10.4885 7.14741,-3.265 7.75,-3.7726 7.75,-6.528 0,-4.7247 -3.63755,-13.2145 -7.73798,-18.0601 -7.59745,-8.9779 -14.94272,-16.3789 -22.26202,-22.4308 -10.96543,-9.0667 -47.35238,-35.3374 -52.81075,-38.1283 -4.17444,-2.1345 -15.28251,-5.1983 -35.18925,-9.7057 -3.69001,-0.8355 -12.41933,-1.5473 -20.19247,-1.6466 -15.73183,-0.2008 -15.09124,-0.5715 -16.25868,9.4087 -0.38602,3.3 -1.18551,8.025 -1.77664,10.5 -1.70576,7.1418 -9.12997,21.061 -15.52475,29.1063 -11.68273,14.6983 -21.96083,22.0161 -39.74746,28.2995 -28.00911,9.8947 -27.07495,9.4051 -33.19818,17.3975 -3.0774,4.0168 -7.48214,8.8495 -9.7883,10.7392 -2.30616,1.8897 -12.92763,7.5404 -23.60327,12.5571 -17.7095,8.3221 -26.23337,11.5612 -43.41025,16.4962 -5.37514,1.5443 -7.01383,2.7333 -15.73488,11.4166 -16.36127,16.2906 -24.60743,19.4876 -50.26512,19.4876 -11.06675,0 -12.43549,-0.2138 -17.59967,-2.75 -3.07982,-1.5125 -5.77982,-2.7505 -6,-2.7512 -0.63623,0 0.69343,30.5349 1.37779,31.6422 0.33921,0.5489 0.90185,3.2167 1.25032,5.9285 2.09518,16.3048 5.76773,38.172 7.71393,45.9305 l 2.25763,9 12.5,0.049 c 11.30164,0.044 15.46527,0.4952 20,2.1658 0.825,0.304 3.14872,0.4608 5.16382,0.3487 4.45503,-0.248 7.39692,1.2734 15.80903,8.1759 13.30356,10.916 15.32767,18.2513 15.63304,56.6535 0.11543,14.5161 0.48653,28.2411 0.82466,30.5 0.33812,2.2589 0.18724,6.3588 -0.33531,9.1109 -2.09088,11.012 2.74554,22.2833 9.71052,22.6305 8.95026,0.4462 11.8362,-0.4332 27.18966,-8.285 12.67861,-6.4838 16.59818,-8.0323 21.50458,-8.4956 5.16719,-0.4879 6.3817,-0.2641 8.75,1.6125 1.5125,1.1984 2.73999,2.9338 2.72776,3.8564 -0.0546,4.1194 -8.4758,10.1774 -14.14758,10.1774 -1.70994,0 -5.25221,1.3188 -7.87171,2.9306 -2.6195,1.6118 -6.59022,3.478 -8.82383,4.1473 l -4.0611,1.2167 2.09664,2.9444 c 2.99108,4.2006 5.82982,14.0469 5.82982,20.221 v 5.2817 l 6.08506,0.6885 c 4.73835,0.536 6.61951,0.3382 8.5,-0.8939 1.32821,-0.8703 2.41494,-1.9702 2.41494,-2.4443 0,-1.8074 5.31043,-4.2238 10.30064,-4.6872 2.85965,-0.2655 9.20553,-0.064 14.10196,0.4475 9.74025,1.0176 27.379,-0.5185 38.14077,-3.3215 8.7243,-2.2724 11.45663,-2.0702 11.45663,0.8479 0,2.6835 -1.92989,3.6919 -11.5,6.009 -9.17206,2.2208 -16.05097,4.1007 -27,7.3789 -5.5,1.6467 -11.72933,3.2514 -13.84296,3.566 -2.11363,0.3145 -5.4287,1.7814 -7.36682,3.2597 -1.93812,1.4782 -5.38379,3.2307 -7.65704,3.8942 -4.64864,1.357 -7.20757,5.0889 -6.21128,9.0584 0.92369,3.6803 3.62109,4.490704 15.10426,4.537904 12.52854,0.052 19.94669,-2.003504 29.48396,-8.167704 7.70975,-4.983 8.39317,-5.0987 8.50126,-1.4384 0.20406,6.91 -13.51772,15.705604 -27.75981,17.793904 -18.30838,2.6846 -30.75157,-3.9228 -30.75157,-16.329304 0,-4.0698 -0.0584,-4.1405 -2.75,-3.3317 -1.5125,0.4546 -4.8875,0.8409 -7.5,0.8585 -2.6125,0.018 -4.75,0.3413 -4.75,0.7194 0,0.3781 2.3625,2.7071 5.25,5.1757 24.73256,21.143904 26.79328,23.382004 33.63185,36.526604 2.46702,4.742 6.82517,10.9309 10.35302,14.7022 6.5819,7.036 7.96595,8.0312 12.3774,8.8992 1.58825,0.3125 5.13773,1.1995 7.88773,1.9711 6.64734,1.8649 11.16182,1.8549 19.80259,-0.044 z M 366.36538,-276.05225 c -9.38422,-0.3575 -9.81937,-0.682 -7.32506,-5.4632 1.33699,-2.5628 1.31124,-2.6444 -0.4812,-1.525 -2.98549,1.8644 -4.35184,-0.2555 -2.47917,-3.8465 0.83771,-1.6064 1.52588,-4.1325 1.52927,-5.6136 0.006,-2.5973 -2.84054,-8.5343 -5.73596,-11.9636 -1.79827,-2.1299 -1.27009,-8.2394 0.74212,-8.5841 2.56716,-0.4397 4.04791,1.2503 4.6624,5.3215 0.32535,2.1555 1.7719,5.8307 3.21457,8.1673 2.46064,3.9852 2.90162,4.2473 7.12303,4.2335 2.475,-0.01 10.575,-1.3522 18,-2.9869 15.80415,-3.4796 24.1825,-7.2489 35.42665,-15.9382 8.74295,-6.7563 12.98893,-8.1409 16.96866,-5.5333 1.43258,0.9387 2.58426,1.9924 2.5593,2.3417 -0.025,0.3492 -2.38747,1.7599 -5.25,3.1349 -4.06649,1.9534 -6.44075,4.1558 -10.85742,10.0719 -7.88864,10.5667 -18.51631,21.2389 -23.84719,23.9471 -6.43163,3.2674 -13.65225,4.9872 -20,4.7635 -3.025,-0.1065 -9.4375,-0.3437 -14.25,-0.527 z m 27.25,-4.8285 c 2.4752,-1.4874 2.46528,-1.4952 -1,-0.7888 -1.925,0.3924 -5.3,1.028 -7.5,1.4125 l -4,0.699 5,0.09 c 2.82612,0.051 6.08694,-0.5634 7.5,-1.4125 z m -15,-5.427 c -0.5887,-1.1 -1.2637,-2 -1.5,-2 -0.2363,0 -0.9113,0.9 -1.5,2 -0.94133,1.7589 -0.76049,2 1.5,2 2.26049,0 2.44133,-0.2411 1.5,-2 z m -8,-2 c 0.93954,-1.7555 0.76049,-2 -1.46482,-2 -2.38579,0 -3.39732,1.8046 -1.86851,3.3334 1.1586,1.1586 2.22878,0.7305 3.33333,-1.3334 z m 23.75,-3.6302 c 1.2375,-0.3317 2.25,-0.9381 2.25,-1.3477 0,-0.989 -4.87787,-0.029 -5.57379,1.0973 -0.63347,1.025 0.19916,1.0877 3.32379,0.2504 z m 14.27889,-6.0217 c 5.42756,-5.5793 5.90669,-6.3274 2.97111,-4.6394 -1.925,1.1069 -4.9625,2.8473 -6.75,3.8676 -2.44438,1.3951 -3.25,2.5452 -3.25,4.6394 0,1.5314 0.1255,2.7843 0.27889,2.7843 0.15339,0 3.19089,-2.9933 6.75,-6.6519 z m -91.82614,-3.2761 0.42974,-2.928 -2.43378,1.9144 c -1.33858,1.0529 -2.83211,1.6682 -3.31895,1.3673 -1.62616,-1.005 1.30296,-4.8428 11.01015,-14.4257 8.11837,-8.0144 11.49532,-10.5164 21.59488,-16 25.53313,-13.8631 45.74513,-21.6654 65.01521,-25.0972 12.99618,-2.3145 42.5,-3.7929 42.5,-2.1296 0,1.7241 -5.05322,5.2268 -7.54063,5.2268 -1.24901,0 -7.94815,1.11 -14.88698,2.4666 -21.50028,4.2035 -33.64074,8.5456 -55.89348,19.9906 -16.93039,8.7076 -27.92311,15.6389 -38.67891,24.3885 -4.125,3.3555 -8.0625,6.113 -8.75,6.1277 -1.73171,0.037 -1.57265,-1.9123 0.21193,-2.5971 0.80407,-0.3086 1.72497,-1.3898 2.04645,-2.4027 1.13817,-3.586 23.76313,-19.0104 39.74162,-27.0936 3.1625,-1.5998 5.75,-3.0994 5.75,-3.3325 0,-0.7935 -21.48858,8.5162 -24.20951,10.4885 -1.49023,1.0802 -3.01019,1.964 -3.37768,1.964 -0.3675,0 -3.64822,2.2186 -7.2905,4.9301 -7.06623,5.2606 -13.41633,11.5305 -17.03504,16.8199 -2.87676,4.205 -5.4796,4.3765 -4.88452,0.322 z m 68.02109,-42.1186 c 8.40189,-2.8211 19.32616,-6.1927 24.27616,-7.4922 4.95,-1.2996 7.875,-2.379 6.5,-2.3988 -6.24603,-0.09 -49,13.5393 -49,15.6205 0,0.2921 0.66323,0.2766 1.47384,-0.034 0.81062,-0.3111 8.34812,-2.8738 16.75,-5.695 z m 37.02616,-10.6156 c -0.6875,-0.2774 -1.8125,-0.2774 -2.5,0 -0.6875,0.2774 -0.125,0.5044 1.25,0.5044 1.375,0 1.9375,-0.227 1.25,-0.5044 z m 41.46898,302.306504 c -1.22044,-2.2794 -2.31878,-4.3191 -2.44077,-4.5327 -0.30789,-0.5393 -9.20914,6.2364 -9.24729,7.0391 -0.0508,1.0683 7.12236,2.4298 10.63851,2.0194 l 3.26853,-0.3816 z m 10.28102,1.4154 c 0,-1.3919 -6.8053,-8.5547 -7.49141,-7.885 -1.83458,1.7906 3.62333,10.0957 6.0282,9.1729 0.80476,-0.3089 1.46321,-0.8884 1.46321,-1.2879 z m -25.86078,-2.1091 2.36078,-2.0495 -3.25,1.5752 c -3.19805,1.5499 -4.10897,2.5237 -2.36078,2.5237 0.48906,0 1.95156,-0.9222 3.25,-2.0494 z m 36.1806,-1.8666 c 9.05519,-6.3168 27.53894,-28.6656 39.04093,-47.204704 l 3.86076,-6.2227 -4.04642,3.2048 c -2.22553,1.7626 -6.93031,5.777404 -10.45508,8.921704 -9.17249,8.1824 -14.4829,12.4765 -28.71191,23.2169 -6.92213,5.225 -12.79323,9.8383 -13.0469,10.2517 -0.44711,0.7287 7.62961,10.7483 8.66411,10.7483 0.28288,0 2.39542,-1.3122 4.69451,-2.916 z m 434.18015,-26.475 c 19.4819,-4.3119 22.6798,-6.1195 15.7394,-8.8965 -13.7401,-5.4977 -38.9919,-4.9323 -65.5155,1.467 l -12.9223,3.1177 3.3492,1.4208 c 1.8421,0.7814 7.6242,2.5174 12.8492,3.8578 8.3987,2.1545 11.007,2.3808 22.5,1.9524 8.469,-0.3157 16.834,-1.3332 24,-2.9192 z m -551.24997,-14.2712 c -0.6875,-0.2774 -1.8125,-0.2774 -2.5,0 -0.6875,0.2774 -0.125,0.5044 1.25,0.5044 1.375,0 1.9375,-0.227 1.25,-0.5044 z m 5.47917,-0.9419 c -0.33229,-0.3323 -1.1948,-0.3678 -1.91667,-0.079 -0.79773,0.3192 -0.56078,0.5562 0.60417,0.6041 1.05416,0.043 1.64479,-0.1929 1.3125,-0.5252 z m 133.27083,-2.8959 c 1.29175,-1.375004 2.12363,-2.500004 1.84863,-2.500004 -0.275,0 -1.55688,1.125 -2.84863,2.500004 -1.29175,1.375 -2.12363,2.5 -1.84863,2.5 0.275,0 1.55688,-1.125 2.84863,-2.5 z m -122.86326,-0.5697 c 2.23139,-1.138404 3.86636,-2.260504 3.63326,-2.493604 -0.23309,-0.2331 -2.6392,0.6746 -5.3469,2.017104 -2.70771,1.3425 -4.34267,2.4646 -3.63326,2.4936 0.70941,0.029 3.11552,-0.8787 5.3469,-2.0171 z m 150.3194,-21.508904 c 2.22412,-2.2433 6.20066,-8.3183 8.83674,-13.5 2.63609,-5.1818 3.83266,-8.2964 2.65904,-6.9214 -8.20576,9.6138 -23.55292,26.5244 -29.20192,32.1768 -3.7125,3.7147 -6.75,7.0022 -6.75,7.3056 0,0.9649 20.24627,-14.8149 24.45614,-19.061 z m -211.98665,-3.6723 c -0.0325,-14.1156 -1.59856,-21.8564 -5.41163,-26.7491 -1.87254,-2.4027 -2.3883,-2.5005 -13.25311,-2.5132 -6.21761,-0.01 -12.65359,-0.4215 -14.30218,-0.9205 l -2.99744,-0.9073 2.82027,3.4205 c 1.55115,1.8813 5.6,7.3045 8.99744,12.0516 8.38821,11.7204 20.43867,26.6272 22.49448,27.8265 0.92548,0.5399 1.68268,0.9949 1.68268,1.0111 0,0.016 -0.0137,-5.9326 -0.0305,-13.2196 z m 8.708,8.6369 c -7.1969,-3.1427 -0.81316,-4.9707 8.65631,-2.4787 5.51551,1.4515 9.43492,0.4011 15.34963,-4.1138 3.76476,-2.8737 5.46284,-3.4948 9.92901,-3.6319 2.96316,-0.091 6.73756,-0.4187 8.38756,-0.7283 3.65899,-0.6866 16.50096,-3.6589 16.49752,-3.8185 -0.004,-0.2004 -37.44257,-0.019 -38.72327,0.1875 -0.67416,0.1088 -2.64461,1.757 -4.37878,3.6627 -3.76635,4.1389 -8.46862,5.8933 -13.34415,4.9787 -4.18442,-0.785 -6.55132,0.6946 -6.55132,4.0955 0,2.5149 1.19589,3.3043 5,3.3003 2.29003,0 2.22095,-0.1245 -0.82251,-1.4535 z m 411.82248,-4.4406 v -6.0546 l -11.75,-12.2201 c -11.9162,-12.393 -13.2005,-13.7808 -28.3815,-30.6707 -12.5518,-13.9647 -29.6663,-37.4135 -37.2435,-51.0279 -8.0458,-14.4564 -2.6868,-2.6302 12.8647,28.3895 9.0611,18.0739 19.0482,36.7489 22.1935,41.5 3.1452,4.7511 10.0157,12.9433 15.2677,18.2047 7.7025,7.7163 11.1669,10.3753 17.9149,13.75 4.6012,2.3011 8.5387,4.1837 8.75,4.1837 0.2113,0 0.3842,-2.7245 0.3842,-6.0546 z m -7.1917,-21.1198 c -1.3464,-1.7459 -3.5416,-3.8548 -4.8782,-4.6863 -1.4267,-0.8877 -0.5894,0.4229 2.0281,3.1744 5.1633,5.4275 6.3587,6.0616 2.8501,1.5119 z m -433.80827,-16.8877 c 0,-0.5158 -0.9,-0.9379 -2,-0.9379 -1.1,0 -2,0.3543 -2,0.7872 0,0.433 0.9,0.855 2,0.9379 1.1,0.083 2,-0.2714 2,-0.7872 z m 14.5,-1.8485 c 1.65,-0.5046 2.25,-0.9561 1.33333,-1.0034 -0.91666,-0.047 -1.84382,-0.6174 -2.06034,-1.267 -0.27436,-0.8231 -1.75913,-0.52 -4.89905,1 -2.47797,1.1996 -5.26331,2.181 -6.18966,2.181 -0.92636,0 -1.68428,0.3819 -1.68428,0.8487 0,0.8939 8.40567,-0.2015 13.5,-1.7593 z m 16.42829,-7.3721 c 3.16218,0.4241 5.42328,-0.01 9.13689,-1.7478 2.71415,-1.2712 4.93482,-2.6844 4.93482,-3.1404 0,-2.6321 -18.99913,1.7445 -22.36912,5.153 -0.84798,0.8576 -0.47719,0.8971 1.48223,0.1577 1.43721,-0.5424 4.50404,-0.7325 6.81518,-0.4225 z m -57.09044,-43.2173 c 1.04403,-9.2015 0.88715,-21.724 -0.36538,-29.1657 l -0.70115,-4.1658 -3.13566,1.912 c -3.80615,2.3209 -5.96059,2.408 -9.07583,0.3668 -2.21349,-1.4503 -2.70758,-1.3679 -7.4905,1.25 -4.1032,2.2458 -5.01325,3.2002 -4.57995,4.8027 0.29741,1.1 0.98688,5.3727 1.53216,9.4948 2.13039,16.1048 5.0845,23.4081 17.39523,43.0052 l 4.08323,6.5 0.65834,-12.5 c 0.36208,-6.875 1.11786,-16.55 1.67951,-21.5 z m 306.6195,0.6556 c 2.02785,-6.7895 3.44011,-12.5914 3.13836,-12.8932 -0.30175,-0.3017 -0.82641,0.3033 -1.16591,1.3445 -0.3395,1.0412 -1.02116,3.0181 -1.5148,4.3931 -0.49365,1.375 -1.05768,3.4 -1.25342,4.5 -0.19573,1.1 -0.91102,3.35 -1.58952,5 -1.13404,2.7578 -5.24406,14.651 -6.60457,19.1116 -0.31678,1.0387 0.74677,-0.5866 2.36345,-3.6116 1.61668,-3.025 4.59857,-11.055 6.62641,-17.8444 z m -301.75009,4.6061 c -0.23919,-1.2439 -0.44398,-0.4617 -0.45508,1.7383 -0.0111,2.2 0.18461,3.2178 0.4349,2.2617 0.25029,-0.9561 0.25937,-2.7561 0.0202,-4 z m 309.76599,-37.7617 c 0.25355,-1.925 0.69305,-6.2 0.97664,-9.5 l 0.51564,-6 -1.44344,7 c -0.7939,3.85 -1.67442,10.15 -1.95671,14 -0.46128,6.291 -0.414,6.5442 0.46679,2.5 0.53904,-2.475 1.18752,-6.075 1.44108,-8 z m 62.59572,-5.5931 c -1.0728,-2.6988 -2.9179,-7.6657 -4.1002,-11.0376 -1.5236,-4.3449 -2.8653,-6.4567 -4.6063,-7.25 -3.384,-1.5418 -3.3985,-1.5274 -2.1431,2.1307 1.2185,3.5507 11.9306,21.9334 12.4681,21.396 0.1826,-0.1827 -0.5457,-2.5403 -1.6185,-5.2391 z m -399.00323,2.558 c 1.06384,-0.5694 1.93426,-1.7059 1.93426,-2.5257 0,-1.3072 -0.36906,-1.2997 -3,0.061 -2.94351,1.5221 -4.03656,3.5 -1.93426,3.5 0.58616,0 1.93616,-0.4658 3,-1.0352 z m 14.47538,-7.0314 c 1.05993,-1.715 0.11074,-1.8833 -1.98382,-0.3517 -1.62209,1.1861 -1.67241,1.4182 -0.30745,1.4182 0.89767,0 1.92873,-0.4799 2.29127,-1.0665 z m -4.04112,-5.5609 c 4.17633,-1.9995 6.09163,-3.5145 6.30148,-4.9846 0.92934,-6.5108 -13.64823,-14.0373 -29.16141,-15.0564 -5.1547,-0.3386 -10.56574,-0.316 -12.02453,0.05 l -2.65235,0.6657 3.4371,3.7264 c 4.60339,4.9907 6.98698,8.1264 8.91386,11.7263 1.97591,3.6915 2.19417,1.6523 0.30667,-2.8651 -0.75855,-1.8155 -2.80252,-4.4148 -4.54216,-5.7762 -2.19248,-1.7159 -2.96379,-2.9945 -2.51382,-4.1671 2.45441,-6.3961 13.40157,7.2173 13.42539,16.6953 l 0.01,3.8869 6.25,-0.5144 c 3.95089,-0.3251 8.45715,-1.571 12.25,-3.3869 z m 329.78216,-20.3726 c 0.40485,-6.0076 0.32999,-7.1409 -0.25533,-3.865 -0.45547,2.5493 -1.07292,8.6243 -1.37211,13.5 -0.38306,6.2425 -0.30753,7.3859 0.25532,3.865 0.43962,-2.75 1.05707,-8.825 1.37212,-13.5 z m 51.24451,7.25 c -0.3779,-0.9625 -0.8749,-3.55 -1.1043,-5.75 -0.2294,-2.2 -0.5943,-4.9 -0.8109,-6 -0.2166,-1.1 -0.7271,-6.4649 -1.1344,-11.9222 -0.6583,-8.8179 -0.8803,-9.6526 -1.9947,-7.5 -1.8906,3.652 -2.8549,17.8252 -1.5439,22.6936 0.6128,2.2757 2.2673,5.5082 3.6767,7.1832 2.8827,3.4258 3.9314,3.8924 2.9115,1.2954 z m 16.3964,-2.058 c 9.5995,-7.7227 12.6002,-17.9919 12.4748,-42.692 -0.053,-10.4195 -0.6267,-16.5574 -2.2433,-24 -2.4442,-11.2521 -7.1044,-24.6499 -8.7669,-25.2041 -0.6399,-0.2133 -1.6468,2.2604 -2.4091,5.9189 -0.7203,3.4569 -4.2327,14.8352 -7.8052,25.2852 -5.7937,16.9473 -6.5289,19.9724 -6.8053,28 -0.2727,7.9179 2.2233,28.3631 4.2562,34.8641 0.8322,2.6612 6.6909,1.5349 11.2988,-2.1721 z m -49.92307,-7.192 c 1.33333,-0.8616 1.33333,-0.9632 0,-0.9144 -0.825,0.03 -2.4,0.4418 -3.5,0.9144 l -2,0.8595 2,0.055 c 1.1,0.03 2.675,-0.3813 3.5,-0.9144 z m -363,-2.1758 c -5.56232,-0.8355 -20.47239,-0.8085 -24.43755,0.044 -1.61566,0.3474 4.23434,0.6317 13,0.6317 9.30171,0 14.06391,-0.2815 11.43755,-0.6759 z m 374.57645,-10.0405 c 7.30102,-8.0813 16.91742,-32.2619 18.20782,-45.7837 1.3223,-13.8561 0.7422,-39.8782 -1.07,-48 -1.9628,-8.7965 -7.636,-20.5928 -11.8414,-24.6217 l -2.9634,-2.8392 1.526,3.6523 c 1.9534,4.675 7.9592,28.1325 9.6045,37.5129 1.4805,8.4413 0.8269,21.1617 -1.5609,30.3766 -0.8989,3.4687 -4.2415,12.1922 -7.4281,19.3854 -3.18655,7.1933 -6.96179,16.3168 -8.38937,20.2744 -1.42759,3.9576 -3.73547,9.445 -5.12861,12.1942 -1.39314,2.7493 -2.53299,5.2674 -2.53299,5.5959 0,1.3653 8.45707,-4.2943 11.57645,-7.7471 z m 11.32382,-3.0927 c 0.055,-0.9949 -0.3503,-1.5309 -0.9003,-1.191 -0.55,0.34 -0.9551,2.279 -0.9003,4.3091 0.089,3.3153 0.1812,3.4365 0.9003,1.1909 0.4404,-1.375 0.8455,-3.314 0.9003,-4.309 z m -426.48752,-0.441 c -0.34394,-1.5125 -1.9654,-5.3918 -3.60324,-8.6207 -6.31521,-12.4503 -9.76595,-29.3795 -9.91187,-48.6273 -0.1141,-15.05 -0.99128,-13.8937 -2.9574,3.8985 -1.86254,16.855 1.6231,36.8532 8.45546,48.5118 4.01464,6.8504 9.1841,9.9699 8.01705,4.8377 z m 432.12232,-15.3177 c 0.8725,-1.6873 1.4263,-3.5483 1.2305,-4.1354 -0.1957,-0.5872 -1.0868,0.7933 -1.9803,3.0678 -1.9098,4.8619 -1.5081,5.4338 0.7498,1.0676 z m -435.85196,-5.1198 c -0.31922,-0.7977 -0.55618,-0.5607 -0.60416,0.6042 -0.0434,1.0542 0.19292,1.6448 0.52522,1.3125 0.33229,-0.3323 0.36781,-1.1948 0.0789,-1.9167 z m -1.1198,-6.0625 c -0.38077,-2.3375 -1.57324,-10.2974 -2.64995,-17.6888 -1.0767,-7.3913 -2.17268,-13.6538 -2.4355,-13.9166 -0.86244,-0.8625 -0.49966,9.3705 0.52901,14.9218 2.91411,15.7263 4.08122,20.9336 4.69184,20.9336 0.3063,0 0.24537,-1.9125 -0.1354,-4.25 z m 450.10726,-24.75 c 7.5945,-25.4842 7.6414,-28.0277 0.7684,-41.6123 -5.3428,-10.5602 -19.3358,-32.3877 -20.7628,-32.3877 -1.0006,0 -1.4235,-1.0042 5.0536,12 3.5009,7.0289 6.2938,14.6323 8.4482,23 2.9287,11.3745 3.2232,13.8958 3.2703,28 0.029,8.525 -0.2966,17.525 -0.7222,20 -1.0398,6.0451 0.5246,2.4758 3.9445,-9 z m -53.95621,-15.8951 c 0.41905,-4.7125 0.15149,-6.0427 -1.68056,-8.3549 -1.19843,-1.5125 -3.10412,-2.75 -4.23487,-2.75 -1.93722,0 -2.02937,0.4474 -1.59626,7.75 0.27823,4.6914 1.1669,9.1071 2.2517,11.1887 l 1.79208,3.4386 1.48476,-2.8338 c 0.81662,-1.5586 1.70904,-5.3559 1.98315,-8.4386 z m -356.09172,-21.1377 c 4.17224,-1.1181 9.45147,-2.9736 11.73162,-4.1235 4.37351,-2.2054 15.29223,-10.7411 19.84517,-15.5139 l 2.69943,-2.8298 -8.5227,0.1999 c -8.17373,0.1916 -8.6775,0.3397 -12.30335,3.6154 -9.55351,8.631 -25.66497,13.005 -39.68632,10.7741 -4.33757,-0.6902 -9.23649,-1.4565 -10.88649,-1.7029 -4.20377,-0.628 -6.03066,0.7535 -4.58033,3.4635 3.78432,7.071 25.98923,10.3282 41.70297,6.1172 z m 418.12023,-7.6656 c 0.3985,-6.1086 -2.2043,-15.9067 -5.3056,-19.9727 -2.7028,-3.5436 -9.2277,-7.6954 -13.7397,-8.7428 -2.6178,-0.6076 -2.7269,-0.5094 -1.6563,1.4911 0.6304,1.1778 3.5248,5.8048 6.432,10.2822 2.9072,4.4773 6.9439,11.4493 8.9705,15.4931 2.0265,4.0439 3.9805,7.0566 4.3422,6.6949 0.3617,-0.3617 0.7923,-2.7223 0.9569,-5.2458 z m -474.74287,-3.0562 c 0,-0.4417 -2.8125,-3.581 -6.25,-6.9761 -5.85564,-5.7835 -6.56549,-6.1854 -11.25,-6.3703 -15.08015,-0.5951 -32.42317,-6.703 -40.23502,-14.17 -1.77926,-1.7008 -3.45985,-2.8674 -3.73465,-2.5926 -0.86626,0.8662 10.74848,12.0449 15.96967,15.3701 5.13746,3.2719 20.51009,10.4917 28.5,13.3852 4.78012,1.7312 17,2.7042 17,1.3537 z m 54,-2.7304 c 2.475,-0.8679 6.73376,-3.2131 9.4639,-5.2114 5.55549,-4.0665 5.79586,-3.7003 -4.4639,-6.8002 -3.025,-0.914 -7.34233,-2.729 -9.59407,-4.0334 l -4.09408,-2.3715 -6.62783,5.8834 c -3.64531,3.2359 -8.77798,7.365 -11.40593,9.1758 l -4.77809,3.2923 5.5,1.229 c 6.82641,1.5253 20.01479,0.9349 26,-1.164 z m -46,0.5999 c 0,-1.1225 -9.02974,-12.139 -9.87248,-12.0446 -0.34514,0.039 -1.42642,0.3861 -2.40284,0.772 -1.52711,0.6036 -1.06153,1.5025 3.32998,6.4297 4.50512,5.0546 8.94534,7.4585 8.94534,4.8429 z m 15.65952,-6.5715 c 5.58832,-3.7634 17.34048,-14.2884 17.34048,-15.5297 0,-0.4241 -1.25781,-1.292 -2.79514,-1.9288 -2.45355,-1.0163 -3.7673,-0.7147 -10.75,2.4675 -4.37517,1.9939 -10.87986,4.5339 -14.45486,5.6444 -3.575,1.1105 -7.175,2.2321 -8,2.4925 -2.13285,0.6733 8.46024,10.3107 11.3331,10.3107 1.20648,0 4.50337,-1.5554 7.32642,-3.4566 z m 327.60636,1.414 c 6.83146,-1.2326 16.85401,-6.0776 23.48168,-11.3511 l 4.24755,-3.3797 -20.74755,-0.4871 c -22.75347,-0.5342 -28.70607,-1.6513 -41.82311,-7.8488 -3.60389,-1.7027 -6.7934,-2.855 -7.08778,-2.5607 -1.46408,1.4641 1.18476,9.1501 4.67524,13.5659 8.21073,10.3873 21.92482,14.8275 37.25397,12.0615 z m -371.60035,-15.2074 c -1.9764,-2.3375 -6.17878,-7.9155 -9.33863,-12.3957 -4.93801,-7.0013 -6.03191,-8.032 -7.78604,-7.336 -1.12247,0.4454 -5.80577,2.5643 -10.40734,4.7088 l -8.36647,3.8991 3.2042,2.6962 c 7.94372,6.6842 22.12088,11.9324 33.90823,12.5525 2.29621,0.1208 2.25373,-0.024 -1.21395,-4.1249 z m 16.33447,3.5658 c 0,-0.3764 -0.94143,-2.6291 -2.09208,-5.006 -2.67561,-5.527 -4.7861,-13.1216 -5.87452,-21.1393 -0.47259,-3.4813 -1.11513,-6.5855 -1.42786,-6.8982 -0.74857,-0.7486 -15.88547,6.0675 -16.31126,7.3449 -0.42444,1.2733 3.93125,7.7682 12.16045,18.1328 5.96448,7.5123 6.86302,8.25 10.04776,8.25 1.92363,0 3.49751,-0.3079 3.49751,-0.6842 z m 101.80318,-2.6153 c 1.82469,-1.4473 8.93134,-13.7945 9.69817,-16.8498 0.61148,-2.4363 0.45262,-2.5351 -4.35147,-2.7051 -2.74237,-0.097 -6.87954,-0.8445 -9.19373,-1.661 -5.57487,-1.967 -5.95615,-1.9038 -5.95615,0.9867 0,2.026 -3.22619,11.8595 -6.46031,19.6913 -0.47194,1.1428 -0.11656,1.7911 1.13688,2.0739 2.9773,0.6718 13.71822,-0.4189 15.12661,-1.536 z m -88.08813,-0.3009 c 7.71665,-2.5811 19.28646,-7.5309 19.26701,-8.2429 -0.01,-0.3611 -4.62237,-3.3512 -10.25,-6.6445 -5.62763,-3.2933 -13.7447,-8.8168 -18.03793,-12.2745 -4.29323,-3.4576 -8.28951,-5.9877 -8.88061,-5.6224 -2.90486,1.7953 2.41766,24.6111 7.37981,31.6347 2.24317,3.1751 3.91864,3.3582 10.52172,1.1496 z m 65.85789,0.8351 c 0.59012,-0.404 1.37437,-1.5505 1.74277,-2.5476 0.58728,-1.5895 0.27019,-1.537 -2.57294,0.4262 -1.78352,1.2315 -3.43027,2.3848 -3.65944,2.5629 -0.87877,0.683 3.47226,0.2552 4.48961,-0.4415 z m 47.87563,-6.85 c 6.39497,-2.3487 12.8243,-5.6343 17.67392,-9.032 11.04931,-7.7413 11.52984,-8.684 3.21443,-6.306 -4.84406,1.3853 -9.91278,1.9533 -17.42875,1.9533 -12.20983,0 -11.06682,-0.7122 -18.6573,11.6263 l -4.99916,8.1263 5.07271,-1.3381 c 2.79,-0.736 9.59586,-2.9994 15.12415,-5.0298 z m -49.577,1.3239 c 3.66534,-1.713 4.83646,-3.0258 7.24921,-8.1258 3.04823,-6.4433 3.68951,-10.5828 1.63948,-10.5828 -0.68186,0 -5.67397,1 -11.09358,2.2223 -9.82549,2.2158 -9.86795,2.2385 -14.76026,7.8858 -2.69853,3.1149 -4.90642,5.9295 -4.90642,6.2547 0,1.0675 4.9849,3.8844 8.27505,4.6761 4.0316,0.9701 7.98405,0.2927 13.59652,-2.3303 z m 366.10837,1.7673 c -0.69572,-0.8383 -1.47088,-1.3183 -1.72258,-1.0666 -0.69349,0.6935 0.71555,2.5907 1.9241,2.5907 0.66311,0 0.58721,-0.5737 -0.20152,-1.5241 z m -58.98967,-2.474 c 3.76487,-0.714 6.39193,-2.0179 9.22795,-4.58 2.18059,-1.9701 6.03665,-4.8959 8.56902,-6.5019 5.4087,-3.4301 5.54686,-3.4137 -10.11718,-1.2002 -13.08091,1.8485 -27.92568,2.2374 -39.17006,1.0263 -19.84476,-2.1375 -25.49713,-2.4476 -30.85565,-1.6929 -3.2206,0.4537 -6.0598,1.029 -6.30933,1.2785 -0.24952,0.2495 1.93552,1.8147 4.85565,3.4781 6.14953,3.503 16.78931,7.1074 24.17116,8.1883 7.74925,1.1348 33.65181,1.1372 39.62844,0 z m 37.50973,-3.4718 c 8.8,-0.043 15.97107,-0.2919 15.93571,-0.5538 -0.0354,-0.262 -1.5182,-5.0043 -3.29519,-10.5386 l -3.23089,-10.0624 -11.54141,4.5624 c -10.44012,4.127 -11.19918,4.592 -7.95482,4.8727 2.31086,0.2 3.5866,0.8224 3.5866,1.75 0,0.7918 -0.61832,1.4396 -1.37405,1.4396 -1.8328,0 -10.37919,4.7432 -14.12595,7.8397 l -3,2.4794 4.5,-0.8557 c 2.475,-0.4706 11.7,-0.8906 20.5,-0.9333 z m -369.94937,-5.0301 0.69216,-3 -2.26034,2.1668 c -1.48081,1.4195 -2.02868,2.7704 -1.58861,3.9172 0.85446,2.2267 2.24493,0.8683 3.15679,-3.084 z m 393.60154,-1.676 c -1.0809,-2.3782 -3.08209,-6.8538 -4.44708,-9.9459 -3.04194,-6.8909 -5.28321,-8.7951 -4.45326,-3.7835 0.9714,5.8657 4.92423,15.1724 7.56624,17.8145 3.2806,3.2806 3.8664,1.4867 1.3341,-4.0851 z m -405.49033,2.676 c 0.18016,-0.55 -0.69395,-2.2767 -1.94248,-3.8371 -1.64645,-2.0577 -3.63662,-3.0868 -7.24471,-3.746 -6.42723,-1.1744 -17.80035,-6.7799 -23.27247,-11.4705 -2.36379,-2.0263 -4.53049,-3.4514 -4.81488,-3.167 -0.85836,0.8584 14.65588,12.4783 21.6127,16.1875 3.575,1.9062 7.85,4.3537 9.5,5.4391 3.13191,2.0602 5.60353,2.2984 6.16184,0.594 z m -102.24228,-4.25 c -4.59993,-10.7322 -4.80646,-11.7343 -4.79181,-23.25 0.0123,-9.6481 0.3899,-12.4602 2.345,-17.463 4.87632,-12.4777 11.61877,-21.7469 21.68867,-29.8164 l 6.41144,-5.1378 -0.13854,-12.2868 -0.13853,-12.2867 -2.6479,1.8979 c -7.45024,5.3402 -18.33628,15.5689 -22.58753,21.2236 -6.64825,8.843 -12.10967,20.1447 -14.67239,30.3625 -1.98661,7.9209 -2.06907,9.3889 -0.97351,17.3303 1.29051,9.3546 6.09124,20.8281 12.1034,28.9264 3.90087,5.2545 5.54295,5.4959 3.4017,0.5 z m 226.95524,-2.4312 c 4.19289,-2.129 17.6252,-14.9572 17.6252,-16.8325 0,-2.7557 -17.37406,8.4078 -25.88875,16.6345 l -6.59338,6.3703 5.36586,-2.0389 c 2.95123,-1.1214 7.22221,-2.9814 9.49107,-4.1334 z m -209.05364,-1.0403 c 10.14631,-4.926 10.78405,-5.4103 10.22616,-7.766 -1.83379,-7.7434 -1.72536,-14.8471 0.35193,-23.056 1.17696,-4.6511 2.84605,-10.081 3.70909,-12.0665 1.46657,-3.374 1.43881,-3.8971 -0.42452,-8 -1.09652,-2.4145 -2.74461,-6.9816 -3.6624,-10.1492 l -1.66871,-5.7592 -4.48678,3.2221 c -14.13854,10.1535 -24.5126,31.2646 -22.87553,46.5513 0.84567,7.8967 5.61723,22.2119 7.42012,22.2611 0.32421,0.01 5.459,-2.348 11.41064,-5.2376 z m 103.26954,2.4789 c -0.6935,-0.6935 -2.5907,0.7156 -2.5907,1.9241 0,0.6631 0.57378,0.5872 1.52417,-0.2015 0.83829,-0.6957 1.31823,-1.4709 1.06653,-1.7226 z m -11.5907,0.2426 c 1.06136,-1.2788 0.78457,-1.5 -1.87756,-1.5 -2.97517,0 -3.90533,0.8838 -2.45577,2.3334 1.11551,1.1155 3.01987,0.7493 4.33333,-0.8334 z m 65.5,-5.4217 c 1.76218,-0.6882 1.49687,-1.0379 -2.23126,-2.9404 -3.79504,-1.9368 -4.64558,-2.0301 -8.25,-0.9051 -2.21031,0.6898 -4.01874,1.5307 -4.01874,1.8686 0,0.7012 7.49086,2.6333 10.5,2.7083 1.1,0.027 2.9,-0.3017 4,-0.7314 z m -54.20935,-5.6607 c 3.69902,-3.0703 6.4917,-5.9607 6.20595,-6.4231 -0.28574,-0.4623 -1.93831,-1.1522 -3.67237,-1.5331 -1.73407,-0.3808 -6.1164,-2.0308 -9.73854,-3.6665 l -6.58569,-2.974 -5,1.7449 c -2.75,0.9597 -5.99735,2.1081 -7.21634,2.552 l -2.21633,0.8071 3.04161,5.7876 c 4.62123,8.7932 5.2774,9.2875 12.32862,9.2875 5.96851,0 6.3022,-0.1449 12.85309,-5.5824 z m 7.35573,1.8324 c 6.12878,-7.7095 5.68868,-8.1894 -1.14638,-1.25 -3.00503,3.0509 -4.32253,5 -3.37977,5 0.84977,0 2.88654,-1.6875 4.52615,-3.75 z m 87.07379,-0.2062 c 5.60399,-2.6224 14.10465,-9.5523 13.03259,-10.6243 -0.18695,-0.187 -5.61139,0.2251 -12.05431,0.9157 l -11.71439,1.2557 -4.74203,4.558 c -2.60812,2.507 -5.86703,5.3467 -7.24203,6.3105 -2.43957,1.71 -2.27463,1.7392 6.82272,1.2067 7.59606,-0.4445 10.54044,-1.1154 15.89745,-3.6223 z m -124.87622,-5.0354 c -3.2101,-6.124 -3.29762,-6.1963 -6.79796,-5.6171 -1.95029,0.3227 -5.57099,0.61 -8.04599,0.6384 l -4.5,0.052 3.5,3.0359 c 5.62798,4.8816 18.03391,10.7079 18.79796,8.8281 0.16388,-0.4032 -1.16542,-3.5248 -2.95401,-6.9369 z m 51.44199,6.064 c 1.54907,-0.5578 1.37286,-0.9485 -1.32861,-2.9458 -1.713,-1.2665 -3.1932,-2.1505 -3.28932,-1.9646 -0.0961,0.1859 -1.21889,1.8272 -2.49504,3.6472 l -2.32028,3.3091 3.82366,-0.7014 c 2.10301,-0.3857 4.62732,-0.9907 5.60959,-1.3445 z m 50.53697,-4.0266 c 2.75138,-2.1749 5.22452,-4.3135 5.49585,-4.7525 0.27134,-0.439 -1.64191,-0.9279 -4.25167,-1.0864 -5.5202,-0.3353 -8.24547,1.4654 -9.90248,6.5431 -0.99456,3.0478 -0.91379,3.25 1.29761,3.25 1.297,0 4.60931,-1.7794 7.36069,-3.9542 z m -149.14798,-1.1408 c 4.30379,-1.7685 7.99159,-3.3496 8.19511,-3.5135 0.20352,-0.164 0.0782,-1.8537 -0.27843,-3.7548 -0.58069,-3.0954 -12.54673,-20.6662 -14.59995,-21.4384 -0.9467,-0.3561 -2.35589,3.7432 -4.49298,13.07 -1.27351,5.558 -1.34703,7.9388 -0.41108,13.3134 0.81486,4.6792 1.51358,6.4016 2.45102,6.0419 0.72119,-0.2767 4.83253,-1.9501 9.13631,-3.7186 z m 136.61482,1.095 c 0.61299,-2.344 0.58069,-2.3537 -2.77107,-0.8265 -1.86413,0.8493 -2.22236,1.3975 -1.29706,1.9847 2.12344,1.3475 3.51661,0.9509 4.06813,-1.1582 z m -30.06419,-3.1744 c -0.5291,-0.5291 -2.7088,-0.8188 -4.84378,-0.6438 l -3.88178,0.3182 4.5,2.256 c 3.94991,1.9801 4.54202,2.0588 4.84378,0.6438 0.18908,-0.8867 -0.0891,-2.0451 -0.61822,-2.5742 z m 9.33331,2.6934 c 1.68015,-1.2818 1.73946,-1.6159 0.44113,-2.4846 -2.52985,-1.6928 -4,-1.1541 -4,1.4656 0,2.8717 0.82213,3.1071 3.55887,1.019 z m 9.94113,-3.519 c 0.33992,-0.55 -0.33508,-1 -1.5,-1 -1.16492,0 -1.83992,0.45 -1.5,1 0.33992,0.55 1.01492,1 1.5,1 0.48508,0 1.16008,-0.45 1.5,-1 z m -17.5,-4.7602 c 0,-0.4181 -1.17594,-2.0284 -2.6132,-3.5784 l -2.61319,-2.8182 -1.88681,3.1026 c -1.03774,1.7064 -1.8868,3.3167 -1.8868,3.5784 0,0.2617 2.025,0.4758 4.5,0.4758 2.475,0 4.5,-0.3421 4.5,-0.7602 z m 22.5,-2.3431 c 7.74071,-2.4865 8.1366,-2.7876 8.68245,-6.6043 l 0.45874,-3.2077 -13.81378,0.2077 -13.81379,0.2076 -0.007,3.9356 c -0.005,2.664 0.69148,4.6788 2.15439,6.236 2.50449,2.6659 6.16769,2.4922 16.3388,-0.7749 z m 68.63864,-0.1298 c 4.90339,-2.5703 6.54198,-4.0566 7.99266,-7.25 1.00363,-2.2093 1.83466,-4.8199 1.84674,-5.8013 0.018,-1.4663 -0.4726,-1.2879 -2.75115,1 -1.52521,1.5314 -4.34234,4.1385 -6.26028,5.7934 -3.43698,2.9657 -8.62736,9.491 -7.54932,9.491 0.30441,0 3.32902,-1.4549 6.72135,-3.2331 z m -104.63864,1.2331 c 0.33992,-0.55 0.14148,-1 -0.44098,-1 -0.58246,0 -1.05902,0.45 -1.05902,1 0,0.55 0.19844,1 0.44098,1 0.24254,0 0.7191,-0.45 1.05902,-1 z m 67.52202,-3.6957 c 1.63789,-2.5827 2.97798,-5.0126 2.97798,-5.3999 0,-0.3872 -3.77248,1.3884 -8.38329,3.9458 l -8.3833,4.6498 4.1333,0.5999 c 2.27331,0.3298 4.7057,0.6673 5.40531,0.75 0.69962,0.083 2.61212,-1.963 4.25,-4.5456 z m 12.97798,3.2 c 11.94626,-1.1255 13.35811,-1.8227 16.81169,-8.3023 l 3.08906,-5.7957 -11.20038,1.3125 c -12.13349,1.4218 -12.70842,1.7363 -17.17609,9.3946 -2.91515,4.997 -2.91661,5.0145 -0.37215,4.4886 1.29133,-0.2669 5.27287,-0.7608 8.84787,-1.0977 z m 288.70317,-3.9273 c 9.7034,-8.7242 14.008,-22.3489 10.8973,-34.4914 -3.1882,-12.4447 -10.9365,-21.2342 -25.52198,-28.9517 -7.50382,-3.9704 -29.55847,-11.1339 -34.27861,-11.1339 -1.41347,0 0.0826,2.7827 6.58602,12.25 9.19008,13.3785 21.09565,36.204 24.64515,47.25 2.32924,7.2487 9.60774,19.4647 11.6108,19.4872 0.62801,0.01 3.3556,-1.9775 6.06132,-4.4102 z m -423.67179,2.423 c 1.28905,0 1.63683,-0.5527 1.25837,-2 -0.64045,-2.449 -0.48801,-2.4496 -5.32959,0.02 -4.76079,2.4288 -5.09005,3.4557 -0.83516,2.6047 1.71875,-0.3437 3.92662,-0.625 4.90638,-0.625 z m 40.48822,-5.5878 -1.69602,-4.441 -4.9168,2.6761 c -2.70424,1.4718 -4.73127,2.8616 -4.50451,3.0884 1.43938,1.4393 12.15581,5.0055 12.45554,4.1449 0.1968,-0.5651 -0.40539,-3.0259 -1.33821,-5.4684 z m -61.15797,4.0878 c -0.31659,-0.825 -0.97746,-1.5 -1.46862,-1.5 -0.49115,0 -0.89301,0.675 -0.89301,1.5 0,0.825 0.66088,1.5 1.46862,1.5 0.89459,0 1.24363,-0.5862 0.89301,-1.5 z m 12.78706,-3.1474 c 8.04219,-4.2261 8.42267,-5.8065 2.15941,-8.9695 -2.30555,-1.1643 -5.81877,-3.0768 -7.80716,-4.25 -1.98839,-1.1732 -3.77052,-2.1331 -3.96028,-2.1331 -0.67486,0 -2.54066,6.3369 -2.54066,8.629 0,3.0958 2.95497,10.371 4.21235,10.371 0.54735,0 4.1187,-1.6413 7.93634,-3.6474 z m 24.26456,1.3933 c 1.83259,-0.9492 1.81151,-1.0692 -0.5,-2.8462 -2.50908,-1.9289 -7.47136,-2.4666 -9.702,-1.0514 -0.96853,0.6145 -1.03239,1.492 -0.25703,3.5313 0.94483,2.4851 1.34821,2.6566 4.78876,2.0355 2.06636,-0.3731 4.61798,-1.1242 5.67027,-1.6692 z m 33.74639,1.0041 c 0.84805,-0.6875 2.73032,-2.8625 4.18282,-4.8334 l 2.64092,-3.5835 -2.42681,-2.2799 c -2.42511,-2.2783 -2.42962,-2.2786 -6.48539,-0.4165 -3.72694,1.7111 -4.00783,2.1085 -3.43748,4.8633 0.91773,4.4328 2.20616,7.5 3.15042,7.5 0.45849,0 1.52748,-0.5625 2.37552,-1.25 z m -75.34238,-6.8217 c 0.90661,-5.1881 -2.39505,-23.3645 -5.23015,-28.7932 -2.75339,-5.2722 -4.05629,-2.6034 -4.28025,8.7672 -0.21928,11.1329 1.69727,20.3465 4.96336,23.861 2.56338,2.7583 3.5386,1.9358 4.54704,-3.835 z m 211.18274,0.7516 c 24.0798,-8.8996 31.03161,-12.7115 39.22229,-21.5072 13.79164,-14.8104 24.71085,-36.6007 24.7659,-49.4227 0.0145,-3.3746 -1.02326,-3.4124 -7.747,-0.2821 -3.67785,1.7123 -5.57161,3.2876 -6.29929,5.2402 -2.20212,5.909 -6.17477,12.7977 -14.4419,25.0429 -7.14599,10.5845 -22.34256,21.3042 -39.25,27.6869 -3.9875,1.5054 -7.25,2.9007 -7.25,3.1008 0,0.4797 -2.85263,11.4217 -3.55299,13.6283 -0.64742,2.0398 0.0519,1.8723 14.55299,-3.4871 z m -117.76864,1.7501 c -0.33634,-1.7595 -0.81541,-2.2459 -1.51894,-1.5424 -0.70354,0.7036 -0.62393,1.5141 0.25241,2.5701 1.71709,2.0689 1.8395,1.9696 1.26653,-1.0277 z m 41.1535,-1.2509 2.88486,-2.1791 h -4.01828 c -3.48189,0 -4.08148,0.3306 -4.4917,2.4765 -0.54447,2.8482 0.0764,3.8631 1.64825,2.694 0.60061,-0.4468 2.3902,-1.7929 3.97687,-2.9914 z m -81.01333,-1.4615 c 1.51173,-1.1054 1.19383,-1.229 -2.3033,-0.8955 -2.2314,0.2128 -3.80804,0.7899 -3.50364,1.2824 0.80142,1.2968 3.77542,1.0986 5.80694,-0.3869 z m 133.62847,-3.2176 c 2.21018,-2.2803 2.86786,-3.5 1.8873,-3.5 -2.16395,0 -4.5793,2.143 -5.35371,4.75 -0.88998,2.9961 -0.51958,2.8625 3.46641,-1.25 z m -83,-1.3905 c 0,-0.4899 -1.60232,-1.0777 -3.5607,-1.3063 -3.45998,-0.404 -5.04691,0.2559 -3.74545,1.5574 0.97808,0.978 7.30615,0.7605 7.30615,-0.2511 z m -44.0362,-1.0901 c 1.58696,-0.8493 1.70472,-1.5485 0.87946,-5.2214 -0.52407,-2.3325 -1.07298,-4.361 -1.21981,-4.5078 -0.14682,-0.1469 -3.29568,1.8242 -6.99747,4.3801 -4.76135,3.2875 -6.34952,4.8888 -5.42825,5.4731 1.81098,1.1487 10.5466,1.0638 12.76607,-0.124 z m -73.63819,-8.7694 c -0.1595,-4.8125 -0.29801,-8.9499 -0.30781,-9.1942 -0.0566,-1.4132 -5.0178,6.6547 -5.0178,8.16 0,1.4243 4.64866,9.7842 5.44069,9.7842 0.0962,0 0.0444,-3.9375 -0.11508,-8.75 z m 137.46285,6.2376 c 0.15865,-0.1271 -1.7258,-1.178 -4.18767,-2.3352 -2.46187,-1.1572 -6.02608,-3.4649 -7.92047,-5.1282 -4.08096,-3.5831 -4.56791,-3.6323 -9.75548,-0.9858 -5.90292,3.0114 -4.30471,4.3422 9.57516,7.9732 5.77447,1.5105 10.75635,1.7035 12.28846,0.476 z m -93.38603,-2.2376 c -1.00518,-1.5125 -2.63193,-4.3076 -3.61501,-6.2114 -1.37276,-2.6584 -1.78742,-2.9774 -1.78742,-1.375 0,4.5957 1.30931,8.1727 3.35369,9.1622 3.50468,1.6964 3.98024,1.3306 2.04874,-1.5758 z m 16.4184,-1.5485 c 2.92646,-1.7608 6.86805,-4.4751 8.7591,-6.0318 3.37637,-2.7793 3.40908,-2.8797 1.81687,-5.5751 -3.79073,-6.4172 -17.2686,-11.2833 -25.27823,-9.1265 l -4.37055,1.1769 0.6373,4.6496 c 0.68877,5.0252 4.55963,13.3214 7.92483,16.9849 2.36602,2.5758 2.97681,2.455 10.51068,-2.078 z m 130.79866,2.7988 c 3.12073,-0.4787 4.40265,-1.2534 5.28744,-3.1953 0.64237,-1.4099 0.9967,-2.7347 0.7874,-2.944 -0.53377,-0.5337 -10.58071,3.6636 -14.19433,5.93 l -3,1.8816 3.5,-0.5202 c 1.925,-0.2861 5.35377,-0.8046 7.61949,-1.1521 z m -103.61949,-0.3778 c 0,-0.4827 -0.675,-1.4378 -1.5,-2.1225 -1.2532,-1.04 -1.5,-0.8956 -1.5,0.8776 0,1.22 0.63782,2.1224 1.5,2.1224 0.825,0 1.5,-0.3949 1.5,-0.8775 z m -58,-3.6225 c -3.67995,-3.7967 -5.33194,-4.436 -4.82332,-1.8666 0.26532,1.3404 6.08259,5.3666 7.75389,5.3666 0.25397,0 -1.06479,-1.575 -2.93057,-3.5 z m 51.81805,1 c 1.75658,-3.8552 -1.48522,-9.4995 -4.00745,-6.9772 -0.6965,0.6965 1.33938,9.4772 2.19736,9.4772 0.36906,0 1.18359,-1.125 1.81009,-2.5 z m 79.31321,-2.1383 c 3.80804,-2.001 8.00351,-4.9215 9.32326,-6.49 2.8866,-3.4305 4.76155,-11.6912 4.34802,-19.1567 l -0.30254,-5.4619 -9.5,4.8538 c -5.225,2.6696 -12.76771,6.4144 -16.76158,8.3218 -3.99387,1.9075 -7.51301,4.1233 -7.82033,4.9242 -0.30731,0.8008 0.2604,4.5166 1.26158,8.2571 1.51596,5.6639 2.23835,6.9173 4.32033,7.4959 5.0683,1.4086 8.36707,0.8103 15.13126,-2.7442 z m 44.71952,1.5405 c 2.81915,-0.9827 3.14922,-1.5139 3.14922,-5.0681 v -3.9702 l -2.75,1.9626 c -2.60819,1.8615 -5.93844,8.1735 -4.31236,8.1735 0.42015,0 2.18106,-0.494 3.91314,-1.0978 z m 229.6837,-6.8142 c -3.48563,-8.8942 -9.14948,-19.0863 -17.94974,-32.3004 -11.67073,-17.5242 -12.17802,-17.857 -30.08474,-19.7328 -4.95,-0.5186 -15.70232,-1.6663 -23.89404,-2.5506 -8.19172,-0.8842 -16.49597,-1.4719 -18.45389,-1.3059 -2.95246,0.2503 -1.77619,0.7872 6.89404,3.1468 13.26047,3.6089 19.08213,6.8002 39.72692,21.7772 21.37147,15.5042 32.22479,24.1979 39.66979,31.7762 3.26855,3.3271 6.07814,5.9139 6.24354,5.7485 0.16539,-0.1654 -0.80295,-3.1169 -2.15188,-6.559 z m -296.85616,4.5161 c -0.29462,-0.7677 -1.08899,-3.2427 -1.76528,-5.5 -1.37718,-4.5966 -1.58933,-4.684 -6.44516,-2.6551 -4.22294,1.7645 -4.33125,2.8001 -0.57272,5.4764 5.0723,3.6118 9.68052,5.0172 8.78316,2.6787 z m -104.52395,-5.7374 -0.34564,-6.1369 -3.03368,3.0337 -3.03369,3.0336 3.37932,3.0722 c 1.85863,1.6897 3.37932,3.0861 3.37932,3.1033 0,0.017 -0.15554,-2.7305 -0.34563,-6.1059 z m 151.75631,-1.497 c 5.58467,-4.8122 12.425,-14.0633 14.58979,-19.7317 1.61272,-4.2229 1.59437,-4.5467 -0.53857,-9.5049 -1.21451,-2.8232 -2.53116,-5.1331 -2.92591,-5.1331 -0.39475,0 -1.29261,2.5875 -1.99523,5.75 -1.51888,6.8365 -3.67707,11.3134 -8.48422,17.5994 -1.9561,2.5578 -5.13154,6.7101 -7.05654,9.2272 -1.925,2.5172 -3.5,5.4537 -3.5,6.5257 0,1.8088 0.19789,1.8454 2.75,0.5086 1.5125,-0.7923 4.73481,-3.1508 7.16068,-5.2412 z m 44.80108,0.049 c 11.10668,-6.2112 27.70022,-23.6457 33.88115,-35.5983 l 1.59986,-3.0938 -3.34639,2.3575 c -3.42494,2.4128 -18.01095,13.5315 -27.84022,21.2222 -3.02161,2.3641 -7.29661,6.8078 -9.5,9.8748 -2.20339,3.0669 -5.0684,7.0077 -6.3667,8.7572 l -2.36053,3.1809 3.85833,-1.6121 c 2.12208,-0.8866 6.6556,-3.1764 10.0745,-5.0884 z m -130.71176,5.1404 c 0,-1.0555 -1.91911,-1.4989 -2.48992,-0.5754 -0.34546,0.559 0.0734,1.0163 0.9309,1.0163 0.85746,0 1.55902,-0.1984 1.55902,-0.4409 z m 6.49511,-0.5511 c 0.33722,-0.5457 0.15246,-1.7832 -0.41058,-2.75 -0.56304,-0.9669 -1.0374,-1.2323 -1.05412,-0.5897 -0.0167,0.6425 -0.30355,1.88 -0.6374,2.75 -0.65868,1.7164 1.10067,2.21 2.1021,0.5897 z m 93.32821,-5.3529 c 0.48465,-2.4808 -0.89226,-2.0005 -5.32332,1.8568 l -4,3.4821 4.5,-1.842 c 2.475,-1.013 4.6455,-2.5867 4.82332,-3.4969 z m -177.82332,3.4674 c 0,-0.4827 -0.66188,-1.4269 -1.47084,-2.0983 -0.80895,-0.6713 -2.83395,-3.2786 -4.5,-5.7938 -2.02402,-3.0558 -3.0174,-3.9357 -2.99372,-2.6518 0.0379,2.0545 1.25922,4.434 4.46456,8.698 1.93915,2.5796 4.5,3.6301 4.5,1.8459 z m 77.36344,-4.9975 c 1.45011,-3.2313 2.63656,-6.4618 2.63656,-7.179 0,-1.8444 -2.29121,-7.96 -2.95089,-7.8763 -0.30201,0.038 -3.36775,3.3008 -6.81275,7.25 l -6.26363,7.1803 3.49895,3.25 c 5.11506,4.7512 6.77979,4.3094 9.89176,-2.625 z m 19.5238,2.3211 c 0.26949,-0.2694 -0.56048,-2.6176 -1.84437,-5.218 l -2.33435,-4.7281 -0.87036,3 c -0.47871,1.65 -1.26183,4.6722 -1.74028,6.7158 l -0.86991,3.7158 3.58465,-1.4977 c 1.97156,-0.8238 3.80514,-1.7183 4.07462,-1.9878 z m 101.11276,-4.7109 c 0,-0.5123 -1.4625,-0.01 -3.25,1.1168 -2.21529,1.3962 -3.33453,2.9397 -3.51552,4.8482 l -0.26552,2.7998 3.51552,-3.9166 c 1.93354,-2.1541 3.51552,-4.3358 3.51552,-4.8482 z m -221.21456,-4.0284 c 2.30832,-3.8087 3.38692,-7.0625 3.8685,-11.67 l 0.66777,-6.3888 -6.91086,3.8155 c -11.44889,6.321 -10.99281,5.1745 -7.13098,17.9257 l 2.08645,6.8892 2.10919,-2.6452 c 1.16006,-1.4548 3.54952,-5.0217 5.30993,-7.9264 z m 34.54054,-6.7068 c 0.47316,-4.9742 2.08258,-11.2247 4.23178,-16.4349 0.70851,-1.7176 0.25344,-1.6305 -4.05114,0.7754 -9.969,5.5717 -19.4732,13.0607 -19.49028,15.3576 -0.009,1.209 2.29102,4.9707 5.11113,8.3594 l 5.12748,6.1613 4.27393,-4.3594 c 3.73114,-3.8057 4.34037,-5.0579 4.7971,-9.8594 z m 173.92402,12.608 c 1.01302,-0.769 1.75,-2.6507 1.75,-4.4682 0,-5.3952 -2.82738,-3.3878 -4.38072,3.1102 -0.72233,3.0217 -0.031,3.3786 2.63072,1.358 z m -77.37062,-2.6389 c 4.15612,-1.8858 4.35125,-2.1604 3.8277,-5.3867 -0.30342,-1.8697 -1.49237,-5.3531 -2.64212,-7.7409 -1.14975,-2.3878 -1.87384,-3.554 -1.60909,-2.5915 0.26475,0.9625 0.0455,1.75 -0.48725,1.75 -0.79282,0 -1.54157,-6.3713 -1.08704,-9.25 0.0651,-0.4125 -0.28143,-0.75 -0.77015,-0.75 -0.48871,0 -2.78785,3.6507 -5.1092,8.1127 -4.50642,8.6619 -4.52183,9.2544 -0.40671,15.6373 1.76404,2.7362 2.68261,2.7605 8.28386,0.2191 z m 70.95052,-4.4725 c -0.30744,-0.3074 -1.34919,0.6926 -2.315,2.2222 l -1.75601,2.7812 2.315,-2.2222 c 1.27325,-1.2222 2.06346,-2.4737 1.75601,-2.7812 z m -108.6261,-6.2385 c 3.61493,-4.2746 4.49331,-5.9555 3.79452,-7.2612 -1.4513,-2.7118 -13.02944,-13.0536 -15.8904,-14.1936 -3.43399,-1.3683 -9.10792,-2.7096 -9.10792,-2.153 0,2.9532 5.6867,22.0027 8.04078,26.9352 l 3.08387,6.4617 2.68767,-2.1135 c 1.47823,-1.1624 4.80439,-4.6165 7.39148,-7.6756 z m 127.50219,6.3625 c 4.84431,-2.6899 5.35265,-3.3478 7.72617,-10 4.80555,-13.4681 7.09056,-29.6206 4.19028,-29.6206 -2.00938,0 -3.27511,1.9223 -4.60916,7 -1.48201,5.6409 -7.16445,17.0076 -11.63083,23.2654 -2.97184,4.1638 -3.31996,5.2732 -2.75782,8.7887 0.35384,2.2128 0.92517,3.8934 1.26961,3.7346 0.34444,-0.1588 2.95973,-1.5844 5.81175,-3.1681 z m -150.61061,-5.2223 c -1.06779,-3.244 -2.60724,-7.6983 -3.42099,-9.8983 -0.81376,-2.2 -1.80025,-6.5875 -2.1922,-9.75 -0.63547,-5.1273 -0.96177,-5.75 -3.01338,-5.75 -1.47502,0 -3.39629,1.3833 -5.35326,3.8541 -5.21717,6.5873 -12.11555,18.4446 -12.11555,20.825 0,2.0441 0.32457,2.1985 3.25,1.5459 6.78176,-1.5128 13.10005,-0.7024 18.78585,2.4096 3.00528,1.6449 5.58494,2.9168 5.73256,2.8263 0.14763,-0.09 -0.60523,-2.8186 -1.67303,-6.0626 z m 117.65363,-3.635 c 2.2665,-3.9948 4.44045,-9.0318 4.83101,-11.1933 l 0.71011,-3.93 -4.89506,2.8354 c -8.1878,4.7426 -7.86177,4.1886 -8.25353,14.0246 -0.35149,8.8248 -0.32103,8.9662 1.56405,7.2633 1.05739,-0.9552 3.77693,-5.0052 6.04342,-9 z m -14.01581,-9.0921 c 2.50742,-2.4582 -3.50041,-16.1998 -9.66442,-22.1053 -2.64136,-2.5305 -3.47268,-2.7823 -7.40612,-2.2432 -2.43693,0.334 -6.23149,1.2277 -8.43235,1.986 -4.98493,1.7174 -15.09905,10.3202 -15.90402,13.5274 -0.3552,1.4153 0.26045,4.4875 1.50846,7.5276 1.15973,2.825 2.88142,8.3909 3.82599,12.3686 l 1.7174,7.2322 16.56093,-8.5422 c 9.10851,-4.6982 17.11587,-9.0862 17.79413,-9.7511 z m 33.92908,10.0788 c -0.27741,-0.6875 -0.50439,-0.125 -0.50439,1.25 0,1.375 0.22698,1.9375 0.50439,1.25 0.27741,-0.6875 0.27741,-1.8125 0,-2.5 z m -99.67845,-2.7802 c -1.63023,-3.0461 -2.30852,-1.7765 -0.80908,1.5144 0.6873,1.5085 1.40833,2.2666 1.6023,1.6847 0.19396,-0.5819 -0.16299,-2.0215 -0.79322,-3.1991 z m 11.57317,-4.2198 c 1.36218,-2.6125 2.28652,-4.75 2.05408,-4.75 -0.91171,0 -6.61018,9.4357 -6.59577,10.9215 0.0135,1.3872 0.13955,1.3967 1.04016,0.079 0.56366,-0.825 2.13935,-3.6375 3.50153,-6.25 z m 136.25851,-10.6224 c 12.38859,-9.7356 17.18449,-15.0782 17.18449,-19.1433 0,-2.379 -29.55301,-0.2326 -33.91488,2.4631 -0.60076,0.3713 -1.08512,3.583 -1.08512,7.195 0,6.0768 -2.75205,19.8177 -5.04948,25.212 -0.89188,2.0941 -0.41957,1.9334 4.27339,-1.4543 2.90185,-2.0947 11.26807,-8.5173 18.5916,-14.2725 z m -213.52106,9.6224 c 0.87128,-2.6125 1.39251,-4.75 1.15827,-4.75 -0.67245,0 -3.45272,7.0771 -3.45272,8.7888 0,2.2205 0.50118,1.3383 2.29445,-4.0388 z m 174.48468,-2 c 5.1284,-8.9899 7.22087,-13.9595 7.22087,-17.1492 v -2.4635 l -7.5,3.0546 -7.5,3.0547 v 7.0557 c 0,6.548 1.57767,13.6977 3.02255,13.6977 0.34142,0 2.48189,-3.2625 4.75658,-7.25 z m -221.27092,1.2455 c 3.98993,-2.2025 7.73581,-4.5846 8.32418,-5.2935 0.58838,-0.7089 2.25699,-5.0944 3.70804,-9.7455 1.45104,-4.651 3.51877,-9.9798 4.59494,-11.8416 l 1.95668,-3.3852 -4.03227,0.6448 c -3.97679,0.6359 -5.32032,1.1202 -15.93811,5.745 -7.62126,3.3196 -8.25326,4.676 -8.05191,17.281 0.10127,6.3392 0.57421,10.5995 1.17667,10.5995 0.55404,0 4.27184,-1.802 8.26178,-4.0045 z m 21.49097,2.5055 c 1.90916,-2.3004 12.85596,-9.7734 19.00082,-12.9712 5.06266,-2.6347 11.87924,-8.9838 10.80187,-10.0612 -0.39798,-0.398 -26.24064,11.6843 -31.05187,14.5178 -1.25395,0.7385 -1.75,2.3038 -1.75,5.5221 0,4.6701 0.87901,5.5472 2.99918,2.9925 z m 97.1109,-3.251 c 1.25026,-2.0625 3.76196,-5.5963 5.58156,-7.8529 1.8196,-2.2567 3.30836,-4.7943 3.30836,-5.6393 0,-1.7003 -3.58046,-6.5504 -4.2505,-5.7578 -1.24641,1.4745 -9.7495,18.4056 -9.7495,19.4129 0,0.9937 1.89308,3.5871 2.61844,3.5871 0.12014,0 1.24138,-1.6875 2.49164,-3.75 z m -2.31187,-15.0898 3.5092,-7.3399 -2.9037,-2.384 c -3.39026,-2.7834 -11.12421,-5.9013 -17.10856,-6.8971 -5.60938,-0.9334 -14.08117,0.9333 -19.149,4.2193 l -4.12106,2.6722 8.95623,4.2182 c 6.56769,3.0932 10.8709,6.0164 16.13553,10.9609 l 7.1793,6.7427 1.99642,-2.4262 c 1.09804,-1.3344 3.57557,-5.7292 5.50564,-9.7661 z m 81.38814,1.3604 c -0.3209,-2.9156 -3.54767,-10.0218 -4.92206,-10.8397 -0.42036,-0.2501 -5.46282,-0.7854 -11.20546,-1.1894 l -10.44118,-0.7346 2.473,2.939 c 2.52578,3.0017 6.8797,11.2697 8.94878,16.9934 l 1.15288,3.1892 7.15385,-3.7541 c 6.56511,-3.4451 7.12803,-3.9886 6.84019,-6.6038 z m -140.85419,2.481 c -0.58325,-0.5865 -3.33216,2.9612 -3.33216,4.3004 0,0.5058 0.86126,-0.1427 1.91392,-1.4412 1.05266,-1.2984 1.69086,-2.585 1.41824,-2.8592 z m -5.11522,-14.8122 c 3.14432,-1.4791 5.73182,-3.0057 5.75,-3.3924 0.0529,-1.126 -6.89836,-2.8162 -14.34513,-3.488 -7.68818,-0.6936 -6.38181,-1.5207 -14.51646,9.191 -4.02588,5.3013 -7.10535,10.7029 -7.10535,12.4633 0,0.5844 5.5125,-1.8955 12.25,-5.511 6.7375,-3.6155 14.82262,-7.7838 17.96694,-9.2629 z m 150.80123,6.0989 c -0.98369,-2.5914 -2.2902,-4.8789 -2.90335,-5.0833 -0.61315,-0.2044 -1.11482,-0.1658 -1.11482,0.086 0,0.6655 5.11261,9.7093 5.48885,9.7093 0.17482,0 -0.48698,-2.1203 -1.47068,-4.7118 z m -123.4593,2.1799 c -1.96733,-1.488 -3.55887,-1.9065 -3.55887,-0.9359 0,0.4859 3.81869,2.2979 5,2.3726 0.275,0.017 -0.37351,-0.6292 -1.44113,-1.4367 z m 66.69926,-7.9863 9.75812,-7.8617 -5.63314,-2.2918 c -3.09823,-1.2605 -6.04512,-2.0372 -6.54865,-1.726 -2.37319,1.4667 -9.83446,17.3026 -9.83446,20.8728 0,0.903 -0.2824,1.1102 12.25813,-8.9933 z m -125.27845,4.558 c 1.11117,-2.1781 2.00628,-4.3156 1.98911,-4.75 -0.0384,-0.9723 -4.95653,6.9148 -4.96367,7.9601 -0.0116,1.6921 1.06797,0.5271 2.97456,-3.2101 z m 198.42661,0.4601 c 3.00605,-1.375 6.09965,-2.5 6.87465,-2.5 0.77499,0 2.22357,-0.9 3.21906,-2 1.79063,-1.9786 1.74688,-1.9998 -4.09501,-1.9889 -10.05841,0.019 -13.40499,0.902 -13.40499,3.538 0,2.3118 0.90837,5.4509 1.57735,5.4509 0.19986,0 2.82288,-1.125 5.82894,-2.5 z m -81.81069,-18.1114 c -0.24023,-0.626 -1.93501,-1.3764 -3.76619,-1.6675 -4.33907,-0.6899 -5.36568,0.7004 -6.91372,9.3628 -1.13416,6.3463 -1.08275,7.0741 0.63362,8.9706 1.85578,2.0506 1.89592,2.0069 6.17549,-6.7318 2.36916,-4.8378 4.11102,-9.3081 3.8708,-9.9341 z m 151.64569,10.8004 c -2.95475,-0.2021 -4.83904,0.1482 -5.37923,1 -1.96404,3.097 -0.7112,3.4927 4.53248,1.4315 l 5.39454,-2.1205 z m 110.0001,1.028 c -1.96779,-1.5147 -14.48975,-6.0376 -25.24139,-9.1172 -13.22596,-3.7882 -60.40842,-4.7355 -72.25,-1.4505 -2.95517,0.8199 -1.98683,3.2261 1.5,3.7274 15.79716,2.2711 29.72521,3.6386 37.25,3.6573 9.98355,0.025 45.18868,2.6025 53,3.8806 7.82283,1.2801 8.24418,1.2289 5.74139,-0.6976 z m -395.79104,-2.5864 c 4.97731,-1.8533 11.63605,-4.1259 14.79721,-5.0504 5.11048,-1.4945 6.35034,-2.4234 11.18547,-8.3805 13.31623,-16.406 37.3957,-32.7775 55.56697,-37.7797 6.72284,-1.8507 17,-6.0177 17,-6.8929 0,-1.2897 -12.59228,-6.6378 -19.13013,-8.1248 -8.10973,-1.8446 -14.96521,-1.1437 -25.69273,2.6268 -6.42935,2.2597 -20.4806,10.5107 -24.83766,14.5849 -1.69753,1.5873 -5.66232,4.461 -8.81065,6.386 -5.74494,3.5127 -15.06654,12.3122 -18.69213,17.6452 -3.09319,4.5499 -8.06489,14.5637 -8.98878,18.1048 -2.32931,8.9281 -2.59271,10.25 -2.04226,10.25 0.32726,0 4.66737,-1.5162 9.64469,-3.3694 z m 119.30832,-1.0002 c 0.59383,-1.3034 1.38174,-4.3839 1.75091,-6.8457 l 0.67121,-4.4759 -8.95909,-1.2243 c -4.92749,-0.6734 -10.70567,-0.9305 -12.84039,-0.5712 -9.3158,1.5675 -20.1019,6.3105 -23.9034,10.5111 -1.6337,1.8053 -1.19723,1.7365 3.95798,-0.6236 4.54863,-2.0825 7.4503,-2.6772 13.4983,-2.7666 7.16175,-0.106 8.26244,0.1736 15.63496,3.9709 4.36197,2.2467 8.19612,4.1547 8.52033,4.24 0.32422,0.085 1.07535,-0.9114 1.66919,-2.2147 z m 38.09809,1.4793 c 1.03091,-0.6532 1.06791,-1.0382 0.15404,-1.603 -0.66262,-0.4095 -1.92945,-0.017 -2.82105,0.875 -1.34935,1.3494 -1.37495,1.6158 -0.15404,1.603 0.80536,-0.01 2.07483,-0.4021 2.82105,-0.875 z m 29.14324,-1.3823 c 0,-1.4121 -10.19571,-11.7274 -11.59148,-11.7274 -1.84713,0 -13.40852,6.909 -13.40852,8.0128 0,1.848 4.41285,3.1862 12.85395,3.8977 10.70827,0.9028 12.14605,0.8811 12.14605,-0.1831 z m 4.95373,-3.9198 c -3.4771,-5.0788 -10.18044,-11.7855 -11.16899,-11.1745 -0.94042,0.5812 2.89764,4.3669 4.42729,4.3669 0.4983,0 0.62789,0.45 0.28797,1 -0.33992,0.55 -0.16944,1 0.37885,1 0.54828,0 2.45059,2.0243 4.22734,4.4984 3.66665,5.1057 5.3209,5.3826 1.84754,0.3092 z m 10.60959,1.5887 c -0.7278,-2.8998 -6.9437,-11.6266 -10.8556,-15.2406 -1.79281,-1.6564 -3.16629,-2.1449 -4.67977,-1.6645 -2.01276,0.6388 -1.88193,0.9339 2.16492,4.8837 2.36892,2.3121 5.88213,6.537 7.80713,9.3887 3.8323,5.6771 6.66372,7.0171 5.56332,2.6327 z m 21.70569,1.6037 h 3.97563 l -0.52669,-8.75 c -0.67122,-11.151 -4.01982,-22.25 -6.71293,-22.25 -1.93423,0 -17.44792,5.3694 -19.79052,6.8497 -0.99237,0.627 -0.60801,2.1002 1.68559,6.4604 1.6341,3.1065 3.26291,7.7951 3.61956,10.4191 1.20581,8.8714 0.951,8.6111 7.73603,7.9019 3.32074,-0.3471 7.82673,-0.6311 10.01333,-0.6311 z m 9.59144,-4.75 c -1.55153,-5.9471 -1.69791,-6.0292 -1.7815,-1 -0.0577,3.4728 0.30272,4.75 1.34044,4.75 1.14745,0 1.23195,-0.7184 0.44106,-3.75 z m 31.13955,0.9377 12.5,-2.7387 0.0632,-5.9745 c 0.0713,-6.7456 -0.89288,-10.3669 -4.14572,-15.5703 -3.14001,-5.0228 -8.16126,-7.1127 -18.38172,-7.6505 -8.82055,-0.4641 -22.65019,0.9608 -24.18076,2.4914 -0.49458,0.4945 0.26435,3.6547 1.75625,7.3129 3.24688,7.9616 5.00079,14.0103 5.85497,20.192 l 0.65634,4.75 6.68872,-0.037 c 3.6788,-0.02 12.31373,-1.2692 19.18873,-2.7755 z m 11.26903,2.1564 c -0.67703,-0.2739 -2.02703,-0.2906 -3,-0.037 -0.97297,0.2535 -0.41903,0.4777 1.23097,0.498 1.65,0.02 2.44606,-0.187 1.76903,-0.4609 z m -213.56439,-3.121 c 2.50494,-2.1285 3.52739,-4.1423 4.68289,-9.2231 0.81304,-3.575 1.1384,-6.8475 0.72302,-7.2723 -1.52083,-1.5553 -13.85106,3.3104 -20.85689,8.2304 -3.9061,2.7431 -7.35652,5.3994 -7.66761,5.9027 -0.3111,0.5034 1.47524,1.2213 3.96964,1.5953 2.4944,0.3741 6.2023,1.2928 8.23979,2.0416 5.40918,1.9879 7.33451,1.763 10.90916,-1.2746 z m 229.29536,1.1975 c 0,-1.2577 -0.66209,-1.438 -3.25,-0.8852 -5.88434,1.2569 -6.58974,2.4017 -1.5,2.4342 3.67459,0.024 4.75,-0.3271 4.75,-1.549 z m -127.5561,-6.8477 6.74043,-4.4271 -5.34216,-3.0656 c -2.9382,-1.6861 -6.89686,-3.5843 -8.79704,-4.2181 -3.40193,-1.1347 -3.52835,-1.0725 -8.25,4.0625 -2.63732,2.8682 -4.79513,5.5321 -4.79513,5.9198 0,0.7417 10.70821,5.8891 12.60173,6.0576 0.60595,0.054 4.13493,-1.8942 7.84217,-4.3291 z m -116.69931,-11.7379 c 4.17055,-2.8143 12.34666,-7.5581 18.16912,-10.5419 9.14279,-4.6854 16.97176,-10.7409 15.62615,-12.0865 -0.23028,-0.2303 -5.26876,1.8981 -11.19662,4.7298 -12.57974,6.0092 -21.72707,12.6261 -34.00025,24.5949 -8.03907,7.8396 -8.26745,8.1598 -2.51211,3.5221 3.48198,-2.8059 9.74315,-7.4041 13.91371,-10.2184 z m 241.00541,13.5348 c 4.32474,-1.159 2.11689,-9.3672 -4.11578,-15.3014 -4.12155,-3.9242 -5.3584,-3.5845 -3.74984,1.0298 0.61359,1.7602 1.11562,5.8331 1.11562,9.0511 0,5.4048 0.17149,5.8497 2.25,5.8371 1.2375,-0.01 3.2625,-0.285 4.5,-0.6166 z m -179.18297,-7.0748 12.43462,0.205 -0.0161,-3.5 c -0.0277,-6.0027 -0.83168,-6.4563 -8.17871,-4.6137 -3.53902,0.8876 -8.43083,1.618 -10.87069,1.6231 -4.37521,0.01 -10.72969,2.9691 -16.91968,7.8809 -2.47549,1.9643 -2.46145,1.9646 4.3162,0.085 5.24949,-1.4557 9.63475,-1.8388 19.2344,-1.6805 z m -14.56703,-10.1358 2.5,-1.9677 -5.29627,1.0459 c -4.60826,0.9101 -5.93979,1.768 -10.25,6.6039 -2.72455,3.0569 -4.95373,5.9129 -4.95373,6.3467 0,0.7183 11.95394,-7.2702 18,-12.0288 z m 48.89395,6.5908 4.9439,-6.25 -3.66892,-0.7937 c -2.01791,-0.4365 -7.21124,-1.1394 -11.54074,-1.5619 l -7.87181,-0.7681 0.51115,6.3679 c 0.28114,3.5023 0.74196,6.5987 1.02406,6.8808 0.42179,0.4218 3.36866,1.0302 10.93343,2.2574 0.39876,0.065 2.94978,-2.6949 5.66893,-6.1324 z m -67.60517,-0.5888 c 3.38959,-4.7181 3.41594,-4.8274 1.05541,-4.3761 -2.40638,0.46 -5.34419,4.6738 -5.34419,7.6653 0,2.3555 0.51992,1.9567 4.28878,-3.2892 z m 99.71122,1.374 c 0,-0.2556 -1.0125,-0.9554 -2.25,-1.5551 -2.16063,-1.0471 -2.17289,-1.0286 -0.30887,0.4648 2.04026,1.6346 2.55887,1.8555 2.55887,1.0903 z m 21,0.087 c 0,-0.2076 -0.7875,-0.9951 -1.75,-1.75 -1.58606,-1.2438 -1.62143,-1.2085 -0.37756,0.3776 1.30637,1.6657 2.12756,2.1955 2.12756,1.3724 z m -11,-6.3448 c 0,-1.0028 0.65252,-1.212 2.25,-0.7214 3.90519,1.1994 -5.21198,-5.5593 -11.65392,-8.6392 -4.18867,-2.0026 -6.36763,-2.5507 -7.5,-1.8867 -2.58453,1.5155 -5.09608,3.6424 -5.09608,4.3155 0,0.344 2.5875,1.9458 5.75,3.5597 3.1625,1.6138 7.29422,4.0911 9.1816,5.505 3.2068,2.4024 3.55071,2.463 5.25,0.9251 1.00012,-0.9051 1.8184,-2.2812 1.8184,-3.058 z m -120,-0.3827 c 3.1549,-0.7177 7.68261,-4.5456 6.62619,-5.6021 -0.43633,-0.4363 -10.95265,4.7588 -13.62619,6.7315 -1.17793,0.8691 -0.96322,0.9521 1,0.3868 1.375,-0.3959 4.075,-1.0782 6,-1.5162 z m 49.98333,-2.6005 c 2.89687,-0.5028 3.14942,-0.7294 1.5,-1.346 -3.00851,-1.1248 -11.78711,0.01 -13.48333,1.7431 -1.34471,1.3739 -0.98236,1.4639 3.5,0.87 2.75,-0.3643 6.5675,-0.9345 8.48333,-1.2671 z m 103.62052,-8.5649 c 0.97525,-0.9753 -4.10873,-8.359 -7.10909,-10.3249 -3.70985,-2.4308 -14.05186,-1.3561 -25.92352,2.6938 -10.5244,3.5903 -10.59402,3.699 -4.50375,7.0295 2.93268,1.6037 7.26568,4.4223 9.62889,6.2635 l 4.29676,3.3475 11.46094,-4.1603 c 6.30352,-2.2882 11.77092,-4.4703 12.14977,-4.8491 z m -137.60385,7.2305 c 1.925,-0.5658 6.16721,-3.4567 9.42714,-6.4242 l 5.92714,-5.3954 -6.92714,2.4084 c -9.42606,3.2773 -11.22808,4.3458 -12.86558,7.6282 -1.59622,3.1997 -1.08288,3.4059 4.43844,1.783 z m 71,-2.7571 c 0,-1.0745 -15.22925,-8.5913 -21.65629,-10.6889 -4.8414,-1.5802 -5.31469,-1.5792 -7.75,0.017 -3.05264,2.0001 -3.00774,1.7681 -1.06803,5.5191 1.43356,2.7722 1.90149,2.9549 7.75,3.0264 3.42338,0.042 9.59932,0.6684 13.72432,1.3923 4.125,0.7239 7.8375,1.3646 8.25,1.4239 0.4125,0.059 0.75,-0.251 0.75,-0.6894 z m -49.56572,-2.2152 c 2.23614,-1.1067 5.64072,-3.3446 7.56572,-4.9731 3.30193,-2.7933 3.36674,-2.9624 1.14523,-2.9878 -2.85128,-0.033 -11.32646,4.1064 -15.36237,7.5024 l -2.93631,2.4707 h 2.761 c 1.51855,0 4.59058,-0.9055 6.82673,-2.0122 z m 14.56572,-1.4287 c 0,-2.4082 -1.61831,-2.6247 -4.02393,-0.5383 l -2.28209,1.9792 h 3.15301 c 2.07862,0 3.15301,-0.491 3.15301,-1.4409 z m 44.50165,-0.8091 c 1.91047,-1.2375 3.47916,-2.5526 3.48597,-2.9224 0.0246,-1.3384 -12.84026,-4.492 -21.18668,-5.1935 l -5.69906,-0.479 8.69906,4.5433 c 4.78448,2.4988 9.12656,4.9389 9.64906,5.4225 1.25271,1.1593 1.0683,1.2093 5.05165,-1.3709 z m 86.49835,-3.642 12.5,-0.608 -5,-2.5959 c -7.95652,-4.1308 -25.8889,-7.5763 -32.52467,-6.2491 -3.40857,0.6817 -3.36418,1.8768 0.30039,8.0878 2.04748,3.4702 2.09971,3.4902 7.14342,2.7345 2.79447,-0.4187 10.70586,-1.0349 17.58086,-1.3693 z m -150.25,-4.6801 c 5.0875,-1.021 9.25,-2.21 9.25,-2.6421 0,-1.3116 -11.84341,-0.8781 -15.28212,0.5593 -3.35923,1.4042 -7.76477,5.5916 -4.71788,4.4843 0.825,-0.2999 5.6625,-1.3805 10.75,-2.4015 z m 84.75,-2.8114 c 10.39515,-3.6971 12.97089,-4.3594 18,-4.6281 2.71364,-0.1451 2.41422,-0.434 -3.13685,-3.0267 -3.37526,-1.5765 -9.95707,-3.6528 -14.62624,-4.6139 -8.34746,-1.7182 -8.65974,-1.7108 -18.67965,0.4455 -5.60465,1.2061 -14.49771,3.8835 -19.76236,5.9498 l -9.5721,3.7569 7.3886,0.8617 c 4.06373,0.4739 11.4386,1.9126 16.3886,3.1971 4.95,1.2845 10.125,2.1732 11.5,1.9749 1.375,-0.1983 7,-1.9611 12.5,-3.9172 z m -48.72804,-5.6938 c 15.08094,-6.898 25.79409,-10.1387 37.72804,-11.4128 7.70018,-0.8221 22.96007,2.2672 31.65433,6.4083 3.45018,1.6433 6.37424,2.8866 6.4979,2.763 0.64175,-0.6418 -3.38344,-7.2303 -6.76276,-11.0694 -9.13295,-10.3756 -19.88649,-13.8749 -35.88756,-11.6783 -4.67605,0.642 -10.07691,1.6662 -12.00191,2.2761 -8.49064,2.6903 -20.97961,7.3131 -26.5,9.809 -3.3,1.492 -9.27357,4.195 -13.27459,6.0065 l -7.27459,3.2937 2.11233,2.2485 c 2.02204,2.1523 8.31486,4.0632 14.20881,4.3145 1.52457,0.065 5.79957,-1.2666 9.5,-2.9591 z m -29.41943,-0.097 c -1.49933,-0.7257 -2.70661,-0.7145 -4,0.037 -1.54125,0.8957 -1.18041,1.0704 2.14747,1.0393 3.49003,-0.032 3.72621,-0.1697 1.85253,-1.0766 z"
       id="path1" />
  </g>
</svg>
