<svg width="1299.1898" height="753.31421" viewBox="0 0 1299.1898 753.31421" xmlns="http://www.w3.org/2000/svg">
  <g transform="translate(1363.5479,281.69006)">
    <path fill="#000000" stroke="#000000" stroke-width="1" stroke-linecap="round" stroke-linejoin="round"
       d="m -1352.6417,470.31087 -4.8798,-0.81382 -2.7632,-1.0865 -2.7632,-1.08646 0.4283,-1.21397 0.4284,-1.21393 1.3589,0.16326 1.359,0.16326 5.8556,1.17051 5.8559,1.1705 11.2235,-0.50839 11.2235,-0.50838 11.7115,-2.622 11.7116,-2.62216 10.7355,-3.44108 10.7357,-3.44108 8.7836,-3.65097 8.7835,-3.65096 8.2957,-4.0793 8.2957,-4.07931 1.7715,-1.33733 1.7713,-1.33733 -0.1791,-1.31006 -0.1791,-1.3099 0.1156,-2.04332 0.1156,-2.04347 4.0531,-6.03601 4.0531,-6.03584 6.0679,-5.67639 6.0679,-5.67622 8.1783,-6.3583 8.1783,-6.3583 13.1755,-8.30076 13.1755,-8.30076 19.0312,-10.08098 19.0312,-10.08098 10.7356,-4.81713 10.7356,-4.81696 16.5914,-6.79439 16.5912,-6.79439 20.4952,-6.8067 20.4952,-6.80654 27.0521,-8.17407 27.0518,-8.17422 15.1984,-11.36091 15.1986,-11.36091 9.5117,-6.01986 9.512,-6.02003 11.9312,-6.34368 11.9314,-6.34368 -0.2561,-1.38321 -0.2562,-1.38306 -2.4399,-0.69175 -2.4398,-0.69192 -7.584,-1.67288 -7.5838,-1.67304 -6.0796,-3.01246 -6.0796,-3.01246 -6.2082,-6.29005 -6.2081,-6.2899 -2.5755,-5.493 -2.5754,-5.49283 0.026,-9.27168 0.026,-9.27167 3.1727,-6.5372 3.1726,-6.53736 4.896,-5.35682 4.8959,-5.35683 6.5458,-4.82688 6.5458,-4.82689 6.9274,-3.46762 6.9273,-3.46778 7.712,-2.45062 7.7122,-2.45078 5.7911,-1.02766 5.7909,-1.02765 h 8.7088 8.7089 l -0.5924,-1.54371 -0.5925,-1.5437 v -0.36234 -0.36217 l -9.0276,-4.66098 -9.0276,-4.66113 -7.06,-6.94388 -7.0598,-6.94387 -2.5535,-5.57749 -2.5535,-5.57762 -0.5056,-5.57602 -0.5056,-5.57616 1.1543,-5.560463 1.1544,-5.56046 2.9225,-5.84823 2.9224,-5.84839 6.7132,-7.18844 6.7133,-7.1886 5.6727,-3.00311 5.6726,-3.00328 5.3009,-1.55698 5.301,-1.55714 h 3.5834 3.5832 l 0.5414,-9.0276 0.5411,-9.0276 4.0625,-12.19952 4.0625,-12.19952 3.8866,-7.2459304 3.8868,-7.24577004 4.8508,-6.09621996 4.8508,-6.0960596 5.4222,-4.95548 5.4221,-4.95552 9.481,-6.31189 9.4812,-6.31176 9.2949,-4.40301 9.2948,-4.40304 9.6543,-3.49469 9.6543,-3.49471 9.7994,-5.25208 9.7995,-5.25199 8.7837,-2.93163 8.7837,-2.93164 9.6805,-1.6432 9.6805,-1.6432 12.2785,0.49163 12.2787,0.49178 8.3584,2.86239 8.3586,2.86238 6.6043,3.69347 6.6043,3.69331 6.8876,6.49555 6.8876,6.49555 5.9003,7.31976 5.9005,7.31976 0.088,0.1862 0.088,0.18621 13.1518,-3.04786 13.1518,-3.04799 15.1276,-0.0662 15.1273,-0.0662 6.3437,1.72849 6.3438,1.72848 8.0609,3.84267 8.0608,3.84282 4.6267,3.14153 4.6265,3.14167 6.8319,5.09323 6.8316,5.0933096 8.5517,1.04348 8.5519,1.04332 6.0876,2.54597 6.0877,2.54596996 1.2737,0.17189004 1.2738,0.17173 2.8051,-6.52252 2.805,-6.5223996 5.8214,-8.60498 5.8212,-8.60482 5.7572,-6.60803 5.756,-6.60801 7.2785,-6.45847 7.2786,-6.45861 8.7839,-5.83334 8.7826,-5.83335 9.7599,-4.67227 9.76,-4.67215 8.7839,-2.91654 8.7825,-2.91655 15.616,-4.93443 15.6159,-4.93434 15.6145,-4.39433 15.616,-4.394157 15.6146,-4.9863 15.616,-4.98614 10.2473,-3.48023 10.2486,-3.48033 9.7585,-3.8527 9.76,-3.85281 13.6638,-6.59097 13.6625,-6.59082 8.7839,-5.47903 8.784,-5.47889 6.8319,-5.43499 6.832,-5.43513 5.6485,-6.56336 5.6487,-6.56352 2.5984,-5.38398 2.5985,-5.38398 0.3302,-6.83177 0.3301,-6.83175 -2.2458,-3.86926 -2.2444,-3.86932 -4.5453,-2.81023 -4.5452,-2.81012 -24.7228,11.67745 -24.721,11.67745 -6.9558,2.50143 -6.9558,2.50143 -7.5834,1.56647 -7.5847,1.56647 -4.3024,-0.64541 -4.304,-0.64524 -1.4608,-2.22837 -1.4593,-2.22836 1.3761,-3.26436 1.3761,-3.26419 4.8502,-4.51703 4.8503,-4.51698 4.1098,-2.59412 4.1098,-2.59422 8.5154,-3.74721 8.514,-3.74721 8.7714,-2.2545 8.7713,-2.2545 11.712,-0.013 11.7121,-0.013 5.6592,1.57774 5.6598,1.57775 26.5468,-12.47527 26.5469,-12.47543 19.52,-9.03049 19.5184,-9.0304 23.302802,-11.5785 23.3013,-11.5783 0.8534,0.5273 0.8535,0.5274 v 0.9142 0.9144 l -22.2043,11.0916 -22.202802,11.09176 -26.8392,12.46759 -26.8393,12.46775 -18.4115,8.6514 -18.4131,8.6514 -1.1069,0.0314 -1.107,0.0315 1.9521,1.45198 1.9521,1.45215 3.6091,3.47296 3.6075,3.47296 1.6512,4.32182 1.6495,4.32183 -0.5224,5.75898 -0.5207,5.75908 -3.6982,7.16611 -3.6966,7.1662 -9.8223,9.80354 -9.8236,9.80355 -8.3726,5.54677 -8.3725,5.54678 -13.0993,6.78837 -13.0979,6.78838 -15.681,6.31417 -15.6795,6.31418 -19.5343,6.3481 -19.5327,6.348077 -15.5367,4.56253 -15.5367,4.56246 -16.1031,4.9045 -16.1031,4.90449 -0.9759,0.74044 -0.976,0.74044 -5.5813,2.05666 -5.5811,2.05656 -9.0436,4.54182 -9.0421,4.54181 -7.0051,4.72612 -7.0036,4.72628 -6.1131,5.64042 -6.113,5.64059 -5.7836,7.78058 -5.7836,7.78067 -3.7938,7.54732 -3.7954,7.54725 -4.9626,12.4413196 -4.9639,12.4413404 -1.2546,2.39417 -1.2543,2.39402 7.2435,7.24376 7.2446,7.24376 5.5525,7.48984 5.5542,7.48984 2.8707,6.34107 2.8691,6.3409 0.3916,8.78368 0.3917,8.78368 -2.1902,5.85582 -2.1901,5.8557 -6.4645,6.34375 -6.4624,6.34377 -4.38,2.147133 -4.3786,2.14729 -5.8469,1.53835 -5.8465,1.53834 -5.4045,0.57966 -5.4044,0.57966 -1.7938,4.33681 -1.7938,4.33682 -4.6133,7.01341 -4.6131,7.01325 -6.2973,5.99791 -6.2972,5.99774 -5.8255,3.76178 -5.8254,3.76177 -7.962,3.90384 -7.9622,3.90384 -0.088,4.39184 -0.088,4.39184 -2.2781,6.45379 -2.2782,6.45374 -3.6434,5.48907 -3.6434,5.48907 -4.6665,4.16044 -4.6664,4.16061 -5.5388,3.31769 -5.5388,3.31771 -9.4715,3.23431 -9.4716,3.23416 -11.3559,1.14344 -11.356,1.14344 -10.317,-1.08827 -10.317,-1.08811 -8.3039,-2.08275 -8.3038,-2.0826 -7.1097,4.58948 -7.1098,4.58964 -12.6873,6.18621 -12.6876,6.18617 -9.7596,2.96236 -9.7596,2.96235 -6.7731,1.14511 -6.773,1.1451 -8.7635,-0.56783 -8.7635,-0.56782 -6.1376,-3.02149 -6.1376,-3.0215 -3.3284,-3.88849 -3.3282,-3.88834 -7.3358,2.8247 -7.3357,2.8247 -9.1402,5.66799 -9.1402,5.66784 -13.0642,6.22015 -13.0644,6.22032 -8.4068,3.39243 -8.4068,3.39227 -12.1796,3.4008 -12.1796,3.40064 -10.832,1.12924 -10.8321,1.12909 -5.2423,-1.03662 -5.2422,-1.03645 -6.8806,4.63661 -6.8807,4.63661 -8.9751,5.0536 -8.975,5.0536 -13.9601,6.18726 -13.9601,6.1871 -12.6875,4.23153 -12.6873,4.23154 -6.3439,4.56678 -6.3437,4.56693 -15.5317,9.97431 -15.5317,9.97416 -20.0908,12.24157 -20.0909,12.24142 -19.0313,11.22202 -19.0312,11.22185 -14.6394,8.27094 -14.6394,8.27094 -19.5193,10.75107 -19.5192,10.75107 -14.2919,7.02565 -14.2917,7.02565 -9.6193,3.27554 -9.6192,3.27553 -7.3197,0.0537 -7.3197,0.0537 -11.3412,5.59495 -11.3412,5.59496 -11.1059,4.34228 -11.1059,4.34245 -8.7837,2.54772 -8.7835,2.54756 -11.7116,2.36266 -11.7116,2.3625 -10.2475,0.46615 -10.2475,0.46618 z m 135.2752,-37.07038 11.3282,-3.81212 12.0949,-6.03528 12.0948,-6.03512 8.2957,-4.65688 8.2957,-4.65672 15.6154,-8.56147 15.6153,-8.56147 17.5674,-10.00302 17.5672,-10.00302 15.1275,-8.99779 15.1274,-8.99779 20.0072,-12.24072 20.0072,-12.24088 12.9801,-8.38389 12.9802,-8.38389 1.6593,-1.17502 1.6591,-1.17489 -10.7355,3.24295 -10.7356,3.24295 -16.1088,4.94851 -16.1089,4.9485 -20.9777,7.29896 -20.9777,7.2988 -10.7355,4.38183 -10.7355,4.38198 -16.5914,7.73542 -16.5913,7.73541 -16.3522,8.91238 -16.3521,8.91238 -9.7229,6.13324 -9.7229,6.13324 -7.9944,5.85568 -7.9944,5.85584 -8.5199,8.29568 -8.5197,8.29568 -2.549,5.09132 -2.5489,5.09131 v 1.41503 1.4151 l 1.22,0.49232 1.2199,0.49223 4.3918,0.0626 4.3919,0.0626 z m 267.3087,-145.65944 11.2235,-4.94838 5.8558,-2.93854 5.8557,-2.93839 9.5156,-5.93573 9.5157,-5.93556 -0.04,-0.51805 -0.04,-0.51805 -4.0645,-2.59652 -4.0648,-2.59637 -5.8986,2.97659 -5.8986,2.97658 -10.0765,5.71945 -10.0766,5.71961 -7.0027,4.52967 -7.0028,4.52984 -8.2957,6.37806 -8.2956,6.37806 -0.9718,0.84855 -0.972,0.84838 9.7556,-3.51541 9.7555,-3.51541 z m 76.6863,-26.14687 10.6621,-1.92601 11.7743,-3.8874 11.7741,-3.88724 11.161,-5.02618 11.1609,-5.02602 9.2715,-4.89666 9.2717,-4.89665 0.976,-0.96495 0.9759,-0.96479 -1.9519,0.54586 -1.9519,0.54586 -8.1967,1.16122 -8.1967,1.16121 -7.4994,-0.57832 -7.4995,-0.57832 -6.6914,-2.42882 -6.6913,-2.42882 -10.4452,5.34288 -10.445,5.34271 -6.1827,3.99612 -6.1827,3.99611 -9.2948,7.36621 -9.2947,7.36621 -1.4291,1.2959 -1.4291,1.29606 h 7.8461 7.8461 z m -24.301,-4.17359 4.9344,-4.14792 4.2788,-3.30826 4.2789,-3.30843 -1.5335,0.52695 -1.5336,0.52695 -7.9966,2.52611 -7.9966,2.5261 -4.492,2.28275 -4.4918,2.28292 3.2865,2.10385 3.2864,2.10385 1.5223,0.0168 1.5222,0.0168 z m -14.3228,-4.26167 v -0.37425 h -1.952 -1.9519 v 0.88462 0.88462 l 1.9519,-0.51037 1.952,-0.51053 z m -9.2049,-8.94057 0.067,-4.66109 2.3732,-4.84304 2.3733,-4.84288 5.9526,-5.86662 5.9527,-5.86661 7.7108,-4.59499 7.7108,-4.59484 9.1656,-3.04854 9.1656,-3.04854 5.543,0.32386 5.543,0.32369 -5.111,-7.37335 -5.1111,-7.37334 -2.932,-5.80218 -2.9318,-5.80217 -1.9986,-5.97597 -1.9984,-5.97598 -0.6263,-3.91604 -0.6261,-3.91605 -4.5366,-0.60173 -4.5365,-0.6019 -8.2881,1.01336 -8.288,1.01336 -7.3197,1.94293 -7.3197,1.94294 -11.2204,5.538 -11.2204,5.53785 -8.0259,7.91828 -8.0259,7.91829 -2.6975,5.79285 -2.6976,5.79286 -0.3544,8.48813 -0.3546,8.48799 2.4231,5.2925 2.423,5.29267 3.772,4.19622 3.7719,4.19621 5.5876,3.62489 5.5875,3.62488 7.5878,2.00535 7.588,2.00535 2.44,0.41504 2.4398,0.41504 0.488,0.13228 0.488,0.13228 z m 21.2577,2.24605 5.464,-2.41643 9.8616,-3.38674 9.8616,-3.3869 4.776,-3.06478 4.7761,-3.06479 3.0202,-3.43989 3.0202,-3.43973 2.0226,-4.16308 2.0226,-4.16309 -0.6116,-2.43686 -0.6116,-2.43686 -1.7677,-2.18302 -1.7677,-2.18301 -6.1289,0.0868 -6.1289,0.0868 -8.2026,2.82734 -8.2026,2.82735 -6.8157,4.11814 -6.8158,4.11813 -4.3129,3.79634 -4.3128,3.79629 -3.1039,4.83701 -3.1039,4.83706 -0.56,5.42579 -0.56,5.42567 h 6.3588 6.3589 z m 182.6721,-16.51962 8.8043,-2.37777 7.5798,-3.01108 7.5798,-3.01093 6.0629,-3.03474 6.063,-3.03475 7.1445,-4.42437 7.1445,-4.42437 -1.2138,-0.7501 -1.2138,-0.75027 -10.0995,-2.67692 -10.0995,-2.67692 -9.4946,1.2239 -9.4947,1.2239 -9.4963,-1.00422 -9.4962,-1.00407 -8.559,3.75792 -8.559,3.75807 -11.1046,6.38724 -11.1045,6.38739 -0.5296,0.52957 -0.5294,0.52942 2.3457,2.49702 2.3457,2.49686 3.0241,1.86902 3.0238,1.86885 5.2884,1.49126 5.2884,1.49143 10.2476,-0.47677 10.2476,-0.47677 z m -132.2996,-4.49845 2.4037,-1.25564 -2.1597,-0.79895 -2.1598,-0.79894 v -0.93246 -0.93262 l 2.2949,-2.75872 2.295,-2.75873 1.1209,-2.13178 1.121,-2.13178 v -0.53229 -0.5323 l -3.9985,-2.03985 -3.9983,-2.03984 -0.4208,0.42067 -0.4208,0.42083 1.0034,2.63867 1.0032,2.63883 v 2.41522 2.41522 l -2.0634,4.10904 -2.0633,4.10888 -2.5462,3.39224 -2.5461,3.39224 4.3655,-2.52615 4.3655,-2.52615 z m 45.4844,2.52695 7.8738,-1.38578 5.5226,-1.44213 5.5225,-1.44213 5.5403,-4.93787 5.5403,-4.93804 0.095,-6.38457 0.095,-6.38473 -3.4158,-0.0153 -3.4159,-0.0153 -9.2477,-1.95158 -9.2476,-1.95175 -3.9278,2.98514 -3.9279,2.98522 -6.8041,3.37367 -6.8042,3.3735 h -1.0774 -1.0773 l -2.3661,2.52104 -2.366,2.52103 -6.9136,4.31065 -6.9137,4.3108 h -0.8326 -0.8327 l 2.8665,-3.03195 2.8665,-3.0321 5.2235,-2.97315 5.2235,-2.97315 -1.6075,-0.89962 -1.6074,-0.89945 -6.4709,0.69293 -6.471,0.69294 1.6349,1.19554 1.6349,1.19554 v 0.51064 0.51049 l -1.7079,0.46793 -1.7079,0.46794 -1.7417,3.02551 -1.7417,3.02552 3.6937,2.43827 3.6935,2.43826 5.3679,1.43751 5.3678,1.43766 8.2956,0.0628 8.2956,0.0628 z m 32.6286,-10.50226 v -0.8419 l -2.4399,1.59871 -2.4399,1.5987 v 0.35491 0.35475 l 2.4399,-1.11171 2.4399,-1.11172 z m 13.492,-6.21234 9.8763,-5.41543 2.999,-2.99905 2.9991,-2.99912 -0.2885,-0.28846 -0.2886,-0.28862 -4.4321,0.82811 -4.4323,0.82794 -8.7425,0.69615 -8.7424,0.69615 -0.7171,1.0792 -0.717,1.0791 -0.015,3.65986 -0.015,3.65992 h 0.5223 0.5223 l 2.436,-1.59626 2.436,-1.5961 0.7015,0.75381 0.7015,0.7538 -1.2404,0.44256 -1.2405,0.44256 -1.4685,2.83974 -1.4685,2.83957 h 0.3691 0.3691 z m 150.0976,-2.90194 8.6675,-1.48569 6.3438,-2.01314 6.3437,-2.01321 5.78,-3.0705 5.78,-3.07051 5.1055,-4.66617 5.1055,-4.66616 3.0177,-4.70263 3.0176,-4.70263 1.8055,-5.28888 1.8055,-5.28903 0.6646,-4.23787 0.6647,-4.2377 -1.2459,0.51897 -1.2459,0.51897 -8.2957,2.6223 -8.2956,2.6223 -3.7661,3.3858 -3.766,3.38581 -8.9215,4.29176 -8.9214,4.29192 -11.7115,2.85862 -11.7116,2.85877 -5.7911,1.0517 -5.7909,1.05185 -3.9686,0.0366 -3.9686,0.0366 -8.4866,8.16632 -8.4865,8.16632 6.5347,1.58058 6.5346,1.58057 5.8557,0.83244 5.8558,0.83243 8.4118,0.11904 8.4118,0.11892 z m -207.7114,-4.86273 5.1814,-2.37204 2.8904,-2.05823 2.8903,-2.05808 -0.557,-0.9013 -0.557,-0.90129 -3.1144,-0.055 -3.1143,-0.0549 -8.0516,-2.67724 -8.0517,-2.67725 -0.042,2.97643 -0.042,2.97643 -1.4854,3.90384 -1.4851,3.90384 -0.5776,1.86027 -0.5775,1.86043 5.7568,-0.67662 5.7567,-0.67662 z m -18.4819,-1.70318 1.9838,-4.14792 0.207,-2.43984 0.207,-2.44 -0.1519,-2.15818 -0.1518,-2.15833 -3.6749,-0.98959 -3.6748,-0.98943 -4.8648,-3.06575 -4.8647,-3.06576 -5.064,-4.30233 -5.0639,-4.30234 -2.5922,-5.29824 -2.5922,-5.29841 -3.0795,-0.93889 -3.0794,-0.93889 -3.6437,-0.61138 -3.6437,-0.61137 0.6131,3.213 0.6129,3.21314 2.4198,6.83171 2.4196,6.83168 2.265,4.49672 2.2647,4.49673 2.6167,3.10976 2.6167,3.10977 3.6296,1.85164 3.6295,1.85163 2.9372,3.34521 2.937,3.34521 1.8504,1.0745 1.8502,1.07433 4.5487,0.0304 4.5487,0.0297 z m 179.7435,-5.12392 7.989,-6.83168 -7.9767,-0.2845 -7.9767,-0.28449 -6.0719,2.42917 -6.072,2.42917 -4.5975,1.22969 -4.5976,1.22953 v 0.59519 0.59503 l 7.0758,1.70118 7.0758,1.70118 2.9278,1.32142 2.9278,1.32127 0.6537,-0.16016 0.6536,-0.16016 z m -200.0965,6.00715 v -0.33669 l -2.1959,-1.85923 -2.1959,-1.85923 1.8592,2.19592 1.8592,2.19592 h 0.3367 0.3367 z m 118.5121,-2.84814 2.8605,-1.03322 -2.3135,-0.85578 -2.3134,-0.85579 -2.4992,2.61077 -2.499,2.61076 1.952,-0.72176 1.9519,-0.72176 z m -35.7887,-5.59885 0.2548,-3.41584 -0.7951,-1.21151 -0.795,-1.21136 -8.2433,-0.34437 -8.2433,-0.34437 -3.5211,3.13575 -3.521,3.13575 7.4248,1.59776 7.4249,1.59771 2.9279,0.35249 2.9279,0.35265 1.9519,-0.11433 1.9519,-0.11449 z m 19.1263,2.49306 8.6455,-1.40333 0.5219,-0.52181 0.5218,-0.52196 -1.3596,-0.48203 -1.3596,-0.48203 -2.7903,-1.02107 -2.7902,-1.02124 -6.3903,0.65468 -6.3905,0.65468 -3.0189,2.74885 -3.0188,2.74885 4.3918,0.0255 4.3918,0.0255 z m 52.8401,0.43478 0.6032,-0.97584 -7.1332,0.0725 -7.1334,0.0725 -4.3918,0.78151 -4.3919,0.78151 10.9221,0.12212 10.9218,0.12218 z m -23.9111,-2.92784 1.464,-0.94601 h -6.3437 -6.3438 l 1.464,0.94601 1.4639,0.94601 h 3.4159 3.4159 z m -73.9073,-3.97488 3.6382,-2.99889 v -0.90495 -0.90496 h -2.0469 -2.0469 l -7.7493,-4.03157 -7.7493,-4.03157 -4.7426,-4.26411 -4.7427,-4.26411 h -0.9497 -0.9499 l -8.0723,-3.79418 -8.0723,-3.79433 2.0319,-0.64495 2.032,-0.64495 7.0342,2.9933 7.0342,2.99346 0.5061,-0.50612 0.506,-0.50607 h -1.1615 -1.1615 l -8.1547,-7.82871 -8.1548,-7.82886 -2.6685,-3.85059 -2.6684,-3.85074 -2.5734,1.35364 -2.5734,1.35365 -4.1436,4.25864 -4.1435,4.25865 5.2976,3.83846 5.2977,3.83832 8.8834,9.51058 8.8835,9.51045 1.3817,3.30691 1.3816,3.30692 9.1155,2.58686 9.1154,2.58686 2.4004,0.0153 2.4005,0.0153 1.4639,0.94609 1.4639,0.94609 0.5097,0.0153 0.5095,0.0153 z m 113.4338,0.46037 3.9039,-1.28672 -4.8798,0.35325 -4.8798,0.35309 -4.8799,1.5447 -4.8798,1.54454 5.8558,-0.61107 5.8557,-0.61107 z m -81.4927,-0.006 v -0.38349 h -1.464 -1.4638 v 0.94542 0.94525 l 1.4638,-0.56184 1.464,-0.56169 z m 88.3245,0.59251 1.9518,-0.83879 -1.9518,-0.0534 -1.952,-0.0534 -1.4639,0.94623 -1.464,0.94601 1.464,-0.0534 1.4639,-0.0534 z m -41.5597,-1.33173 -0.4067,-0.35573 -5.1238,-0.65391 -5.1237,-0.65376 v 1.00949 1.00964 h 5.5304 5.5304 z m 19.3948,-0.36433 -5.5735,-0.35101 -6.138,0.34742 -6.138,0.34757 11.7115,0.004 11.7115,0.004 z m -34.9289,-1.23178 -1.464,-0.94617 -5.8557,0.1136 -5.8558,0.11345 3.4159,0.71912 3.4159,0.71896 3.9039,0.11345 3.9038,0.1136 z m -20.1279,-0.99926 -0.9992,-0.9991 -5.7837,-0.94711 -5.7839,-0.94711 -1.3826,-0.006 -1.3826,-0.006 0.7185,0.73192 0.7186,0.73192 4.08,1.12414 4.0799,1.12415 3.367,0.096 3.3671,0.0966 z m 80.0906,-5.00442 7.8666,-2.8902 8.2957,-4.47011 8.2957,-4.47011 5.6232,-3.81473 5.6234,-3.8146 6.3951,-5.98244 6.3952,-5.98231 5.3048,-10.78311 5.3048,-10.78311 v -1.58073 -1.58089 l 1.952,-5.67326 1.9519,-5.67342 -0.03,-0.57921 -0.031,-0.57921 -2.4903,4.87984 -2.4903,4.87984 -0.082,1.21992 -0.082,1.21992 h -0.6558 -0.6558 l -6.4622,8.15437 -6.4621,8.15438 -5.9563,5.51441 -5.9562,5.51442 -5.5504,3.76333 -5.5504,3.7635 -5.2591,2.65995 -5.259,2.66001 -10.0197,3.28226 -10.0198,3.2821 -8.5926,1.14348 -8.5927,1.14348 -9.8047,-0.43597 -9.8047,-0.43603 -2.3827,4.95296 -2.3827,4.95311 -0.3742,0.72359 -0.3744,0.72375 22.2227,-0.085 22.2228,-0.085 z m 18.1971,-1.88835 8.2127,-4.96387 0.976,-0.95328 0.976,-0.95312 -2.8945,1.09331 -2.8945,1.09328 -3.4492,1.91997 -3.4493,1.91994 -7.3197,2.87031 -7.3197,2.87041 4.4747,0.0331 4.4746,0.0335 z m 20.7989,-2.92455 7.421,-7.88873 v -0.82892 -0.82908 l -5.1238,3.48831 -5.1237,3.4883 -5.8558,2.74142 -5.8557,2.74142 -3.9039,2.45752 -3.9038,2.45752 7.4623,0.0299 7.4622,0.0312 z m -198.4767,4.02701 -2.0547,-2.88573 -2.3373,-1.83852 -2.3374,-1.83852 -5.4363,-6.36831 -5.4363,-6.36816 -3.71,-2.57095 -3.71,-2.57112 h -0.788 -0.7882 l 0.6462,3.444 0.646,3.44399 2.0271,3.4357 2.0272,3.43571 5.487,4.48826 5.4872,4.48827 4.8797,2.28595 4.8798,2.28594 1.2864,0.01 1.2865,0.01 z m 60.4796,1.95392 v -0.9318 l -3.1719,-0.5448 -3.1719,-0.5448 -3.3096,-0.23131 -3.3097,-0.23148 -0.4118,1.16094 -0.4118,1.16077 4.2094,0.3766 4.2095,0.3766 2.6839,0.17054 2.6839,0.17055 z m 45.8841,-3.9754 1.938,-3.79871 v -1.50288 -1.50288 h -2.3371 -2.3372 l -6.6905,-2.06462 -6.6906,-2.06462 -6.8316,-3.42679 -6.8317,-3.42695 -6.9482,-4.78967 -6.9481,-4.78983 -6.2273,-6.60563 -6.2275,-6.60562 -2.7254,-3.60833 -2.7255,-3.60818 h -3.954 -3.9539 l 7.254,8.0516 7.2541,8.05176 3.973,5.91625 3.9729,5.91625 4.6137,4.54844 4.6136,4.54844 5.2202,3.59528 5.2203,3.59543 4.6499,0.76514 4.6497,0.76515 5.6118,0.058 5.6117,0.058 v 0.976 0.976 l -0.7319,0.0806 -0.7321,0.0806 -2.9278,0.40383 -2.9279,0.40383 -4.2373,0.56512 -4.2372,0.56511 0.5759,0.57581 0.5758,0.57582 9.0292,0.605 9.0292,0.60501 0.7459,-0.34432 0.7459,-0.34433 z m 116.4626,0.41652 13.5127,-3.38896 7.4705,-3.78745 7.4704,-3.78745 1.9108,-1.4356 1.9108,-1.43561 -7.2786,1.83327 -7.2785,1.83343 -8.2957,1.57475 -8.2956,1.57459 -1.8128,0.9655 -1.8127,0.96534 -0.9294,-0.92941 -0.9294,-0.92941 5.182,-2.08663 5.1821,-2.08679 15.6154,-3.82669 15.6153,-3.82669 3.0126,-3.47348 3.0125,-3.47364 4.5514,-9.04915 4.5512,-9.04931 -1e-4,-4.32784 -2e-4,-4.32783 -1.609,-5.91985 -1.6091,-5.91968 -0.7235,-0.81986 -0.7236,-0.81986 -2.9146,4.2357 -2.9147,4.2357 -7.7597,7.41287 -7.7595,7.41286 -5.7804,3.9266 -5.7804,3.92675 -12.6789,10.0073 -12.6787,10.00747 -2.3577,3.54011 -2.3577,3.54012 -5.4291,6.24995 -5.4292,6.25012 6.3142,-0.70114 6.3142,-0.70114 z m -139.8996,3.18891 v -0.32578 l -5.6118,-3.79888 -5.6118,-3.79888 -9.0276,-7.27786 -9.0276,-7.27786 v -0.797 -0.797 h -1.281 -1.2811 l 0.059,5.61176 0.059,5.61176 -0.8116,3.51605 -0.8115,3.51605 4.7173,0.64737 4.7175,0.64736 1.0835,-1.47949 1.0837,-1.4795 h 0.5186 0.5185 l 0.5799,2.31039 0.5798,2.31038 9.0103,1.15551 9.0103,1.15567 0.438,0.43778 0.4378,0.43795 h 0.3253 0.3253 z m -39.048,-2.10255 1.2054,-1.45248 -1.8179,-0.60488 -1.8178,-0.60487 -7.3198,-2.95581 -7.3197,-2.9558 -5.3677,-1.80257 -5.3678,-1.80266 2.4034,2.01633 2.4033,2.01639 4.2747,2.50504 4.2746,2.50505 5.5215,2.2712 5.5215,2.27104 1.1004,0.0237 1.1005,0.0237 z m 3.3034,-8.42931 0.61,-3.0498 v -3.61173 -3.61172 l -2.4855,-2.33513 -2.4856,-2.33497 -3.7815,-4.91078 -3.7814,-4.91079 -2.0791,-5.28806 -2.0792,-5.28806 -1.795,-2.52082 -1.795,-2.52083 -9.4521,-2.83967 -9.4521,-2.83967 -5.5377,-3.31375 -5.5377,-3.31359 -6.4497,-6.36977 -6.4496,-6.36962 -0.6261,3.1306 -0.6261,3.1306 0.01,5.9778 0.01,5.97764 2.3855,5.12392 2.3855,5.12376 h 0.8978 0.898 l 4.5864,-2.56351 4.5864,-2.56335 1.0495,1.04944 1.0496,1.04959 -5.0251,3.12371 -5.025,3.12371 v 1.07413 1.07396 l 6.9188,7.57625 6.9187,7.57625 5.5214,4.21229 5.5214,4.21246 4.8799,1.57361 4.8797,1.57345 9.2716,3.91569 9.2717,3.91552 1.098,0.0451 1.0983,0.0452 z m 147.0041,-1.41601 4.3918,-2.42568 -2.4398,0.64155 -2.44,0.64155 -2.6838,1.3654 -2.6839,1.36539 v 0.4628 0.46296 l 0.7319,-0.0436 0.732,-0.0436 z m -40.9903,-3.67391 9.2716,-2.41803 7.5869,-3.49075 7.587,-3.49059 7.0526,-4.80361 7.0523,-4.80346 5.936,-6.19004 5.936,-6.19004 4.0676,-5.25135 4.0676,-5.25135 v -0.77087 -0.77088 l -3.1719,-0.67085 -3.1718,-0.67085 -3.1719,-1.92616 -3.1719,-1.92633 v -1.38422 -1.38434 h 0.4549 0.4549 l 3.693,1.67584 3.6929,1.67584 2.6466,1.77986 2.6464,1.77985 2.6625,-4.18777 2.6625,-4.18762 2.7268,-7.8668 2.7267,-7.866803 1.114,-10.1884 1.114,-10.18856 -0.5487,-9.75963 -0.5485,-9.75957 -1.996,-6.83168 -1.9959,-6.83184 -3.9154,-7.94434 -3.9154,-7.94434 -5.4735,-6.99536 -5.4735,-6.99536 -7.4639,-6.3827004 -7.4639,-6.38286 -10.7355,-5.26578 -10.7356,-5.26577 -8.7836,-1.93746 -8.7837,-1.9374696 -12.6875,-0.0215 -12.6875,-0.0215 -7.8077,1.48019 -7.8077,1.4801896 -6.3437,2.072 -6.3438,2.07199 -5.8557,2.90013 -5.8558,2.89996 -5.8557,3.47909 -5.8559,3.47898 -4.6006,3.7934904 -4.6007,3.79348 -4.7516,6.0382 -4.7515,6.03836 -0.6761,1.16672 -0.6761,1.16689 5.82,3.95218 5.82,3.95234 0.6587,1.06575 0.6586,1.06574 -1.015,1.01478 -1.0147,1.01493 -6.1099,-4.64658 -6.1098,-4.64643 -2.1874,2.74313 -2.1874,2.74325 -2.9962,7.58235 -2.9962,7.58236 -1.5125,5.66457 -1.5127,5.66458 -0.9523,12.11949 -0.9523,12.11949 1.5135,8.86371 1.5134,8.863553 2.5371,6.83168 2.5372,6.83184 2.9065,4.63576 2.9065,4.63576 h 7.5981 7.5981 l 8.0721,1.53135 8.0719,1.53118 6.1629,2.31973 6.1629,2.31973 5.7089,3.87674 5.7088,3.87673 3.0809,3.50905 3.0809,3.50905 1.5892,3.07296 1.589,3.07289 0.512,5.64677 0.512,5.64684 2.065,0.47379 2.065,0.47378 13.1754,-0.3561 13.1756,-0.3561 z m -24.7826,-1.21167 -0.5924,-1.5437 v -5.7184 -5.71824 l 1.0851,-0.67065 1.0851,-0.67065 0.8519,1.34499 0.8519,1.345 v 4.39184 4.39184 l -0.5885,2.19592 -0.5885,2.19592 h -0.7577 -0.7577 z m 43.332,-17.14585 -2.934,-4.05036 v -0.7719 -0.77191 l 1.1236,-0.69441 1.1236,-0.69441 2.754,3.32075 2.754,3.3206 0.027,2.19592 0.027,2.19592 h -0.9699 -0.9699 z m -120.3747,-25.87918 -0.6507,-0.65066 v -0.8343 -0.83413 l 2.684,-1.15148 2.6839,-1.15149 2.5741,-1.74371 2.574,-1.74388 1.2249,1.47585 1.2248,1.47584 -0.3831,0.3469 -0.383,0.34705 -5.0914,2.55726 -5.0913,2.55742 h -0.3577 -0.3578 z m 73.5933,-39.983393 -2.0228,-2.5715 v -1.39648 -1.39648 l 0.8719,-1.64378 0.8719,-1.64378 -7.6957,-10.73552 -7.6956,-10.73568 -2.5887,-2.10082 -2.5888,-2.10098 0.5982,-1.55894 0.5982,-1.55894 h 1.1739 1.1739 l 3.9806,4.19091 3.9805,4.1909 5.8558,8.901 5.8557,8.90084 3.9038,-0.55732 3.9039,-0.55732 2.9278,-2.11621 2.928,-2.11621 7.3197,-5.43085 7.3197,-5.43084 2.3661,-2.54753 2.366,-2.54753 h 1.2937 1.2939 v 1.70792 l -10e-4,1.70792 -12.6861,10.70204 -12.6869,10.70189 v 3.0354 3.0354 l -2.2588,2.122 -2.2588,2.12199 h -3.0381 -3.0382 z m -84.7356,-3.93062 -1.2199,-0.49223 v -1.38258 -1.38259 h 6.8318 6.8317 v 1.95184 1.952 l -5.6117,-0.0774 -5.6118,-0.0773 z m 167.0808,-0.41461 -0.6557,-1.06105 0.9412,-0.94124 0.9413,-0.94124 6.2348,0.29437 6.2349,0.29436 0.3253,1.70793 0.3254,1.70792 h -6.8458 -6.8456 z m -8.6504,-36.87106 -0.5226,-0.84556 1.6849,-1.47657 1.6849,-1.47674 3.1235,-1.58171 3.1234,-1.58155 h 1.5937 1.5937 l -0.3917,1.21992 -0.3918,1.21992 -4.8133,2.6612 -4.8134,2.66104 -0.6744,0.0234 -0.6744,0.0233 z m -110.7857,-32.2437604 -2.0184,-2.83461 v -1.55723 -1.55723 h 1.3675 1.3675 l 2.0484,3.47156 2.0483,3.4717204 v 0.92012 0.92027 h -1.3975 -1.3975 z m 82.9859,1.9383704 -1.3682,-0.86622 2.6292,-4.4865404 2.6294,-4.48668 h 0.9349 0.9348 v 2.19592 2.19592 l -1.9339,3.17192 -1.934,3.1719104 -0.2583,-0.0153 -0.2583,-0.0153 z m -40.4355,-6.5862704 -0.6506,-0.6505 v -6.66918 -6.66901 h 1.4639 1.464 v 7.31968 7.31968 h -0.8133 -0.8133 z m -22.1541,153.6972634 -1.1186,-4.21251 -5.0363,-4.88781 -5.0362,-4.88765 -7.0761,-3.70535 -7.076,-3.7052 -9.5153,-1.80908 -9.5153,-1.80891 -6.9876,-0.36055 -6.9877,-0.36039 1.7652,2.46679 1.7651,2.46679 6.6865,6.41069 6.6863,6.41069 6.2278,4.2042 6.2278,4.20421 7.9237,3.70675 7.9236,3.7069 6.8317,1.38198 6.8318,1.38197 0.2991,-3.19543 0.299,-3.19542 z m -31.1983,-6.19873 v -0.52239 l 1.6505,-2.64953 1.6506,-2.64954 2.7412,-2.7997 2.7413,-2.79969 v 1.38863 1.38864 l -2.9064,4.58298 -2.9064,4.58282 h -1.4854 -1.4854 z m 133.9506,5.64475 2.6838,-2.55975 v -0.7501 -0.74994 l 2.4262,-3.70321 2.4262,-3.70321 0.7535,-0.976 0.7535,-0.976 6.7048,-7.80768 6.7048,-7.80768 15.2465,-16.0309 15.2466,-16.030913 -0.108,-2.02429 -0.108,-2.02446 -2.5888,-6.83168 -2.5889,-6.83168 0.546,-3.90384 0.546,-3.90384 -3.4486,-4.79032 -3.4486,-4.79015 -2.107,-5.45737 -2.1069,-5.45736 -0.2703,-10.98695 -0.2701,-10.98678 -2.0969,-3.39278 -2.0969,-3.39278 -5.0539,-4.24672 -5.054,-4.24673 -9.2715,-6.1496504 -9.2717,-6.14953 -4.6358,-3.36609 -4.6359,-3.36596 v 1.82201 1.82212 l 6.2948,10.48046 6.2947,10.4806004 3.5419,4.32223 3.5419,4.32239 2.3422,6.63724 2.3425,6.63724 0.021,2.63799 0.021,2.63798 1.1937,2.72986 1.1938,2.72985 4.6742,8.00839 4.6743,8.00839 2.8193,7.11897 2.8193,7.11897 0.6766,7.00851 0.6766,7.00851 -0.6578,2.99509 -0.6578,2.995093 h -0.8984 -0.8985 v -1.464 -1.463843 l 1.22,-0.0153 1.22,-0.0153 -1.0729,-0.71692 -1.073,-0.71709 -0.5726,-6.83168 -0.5726,-6.83168 -2.8533,-6.83184 -2.8536,-6.83168 -3.0002,-4.87984 -3.0002,-4.87979 -3.0565,-5.22248 -3.0563,-5.22244 -0.3691,0.36923 -0.3692,0.36907 1.0894,4.36536 1.0893,4.36537 0.062,15.37128 0.062,15.37144 h 0.1484 0.1484 l 1.1252,-10.0036 1.1252,-10.0036 0.5653,-3.41584 0.5652,-3.41584 0.7907,1.95184 0.7906,1.952 0.068,6.34368 0.069,6.34384 -1.8556,11.22352 -1.8556,11.223523 -5.4098,16.26135 -5.4096,16.26119 -3.9689,7.89377 -3.9691,7.89374 h 1.157 1.157 l -2.131,2.26835 -2.131,2.26824 0.7409,0.74085 0.741,0.74091 -1.464,-0.32534 -1.4639,-0.32517 0.2323,1.18473 0.2322,1.18489 -1.2082,-0.41511 -1.2083,-0.41512 -3.9028,3.44756 -3.9028,3.44756 4.8788,-2.08411 4.8788,-2.08411 z m 61.5793,-0.74534 5.03,-1.4787 1.3553,-0.8585 1.3552,-0.8585 -1.23,-7.90682 -1.23,-7.90699 -2.7797,5.87753 -2.7796,5.87753 -3.0043,4.36655 -3.0042,4.36655 h 0.6286 0.6287 z m -301.9098,-1.36968 v -0.89639 l -6.5877,-2.17425 -6.5876,-2.17426 -1.2201,-0.44962 -1.2199,-0.44963 v 1.98713 1.98713 l 5.6117,1.10704 5.6118,1.10703 0.976,0.34908 0.976,0.34908 1.2199,0.0773 1.2199,0.0774 z m 73.7882,-5.21576 -2.5078,-4.13537 -1.8819,-2.19592 -1.882,-2.19592 h -0.6006 -0.6006 l 1.6263,3.17192 1.6263,3.17176 2.9702,4.34086 2.9703,4.34085 0.3938,-1.18133 0.3938,-1.18133 z m 209.5068,-23.06532 6.7077,-6.32769 4.4112,-5.80033 4.4112,-5.80032 -1.2004,-4.2871 -1.2003,-4.28709 -0.7367,-0.45536 -0.7368,-0.45536 -13.5579,14.38792 -13.5578,14.38792 -2.8948,3.54672 -2.8948,3.54672 -7.5637,8.93388 -7.5637,8.93388 v 0.41933 0.4195 l 14.8346,-10.41755 14.8346,-10.41738 z m -203.2662,25.4603 v -0.78951 l -1.4797,-1.89441 -1.4798,-1.89457 1.1484,2.68392 1.1485,2.68392 h 0.3313 0.3313 z m 242.0653,-4.53973 8.8776,-4.35294 4.6704,-3.42845 4.6703,-3.4283 6.7427,-7.10205 6.7427,-7.1019 4.0489,-7.7618 4.0489,-7.76179 -10.7402,-2.16596 -10.7403,-2.16596 -6.3463,-3.24776 -6.3463,-3.247773 -5.7841,-4.6548 -5.7841,-4.65481 -1.7596,0.94173 -1.7596,0.94173 -1.3837,1.65907 -1.3837,1.65923 -2.0631,5.95784 -2.063,5.957693 -1.2886,3.0811 -1.2884,3.0811 2.2064,7.16658 2.2064,7.16642 0.8617,4.39184 0.8616,4.39184 1.5035,4.79101 1.5034,4.79085 v 4.72475 4.72459 h 0.4544 0.4544 z m 3.9099,-6.2454 -0.033,-1.32696 6.3264,-6.48072 6.3264,-6.48072 v 0.97584 0.976 l -6.2901,6.83168 -6.29,6.83184 z m 15.0944,-17.7044 0.6032,-0.97584 h 0.4304 0.4304 v 0.97584 0.976 h -1.0336 -1.0335 z m -338.6695,24.43386 0.6086,-1.91718 4.335,-3.81581 4.3351,-3.81598 -0.9218,-4.75845 -0.9218,-4.7586 -3.4677,-6.99187 -3.4678,-6.9917 -2.3094,-9.5995 -2.3094,-9.599653 -0.8628,0.25433 -0.8627,0.25433 -3.6037,6.577503 -3.6038,6.57736 -2.4598,8.52369 -2.4596,8.52369 -0.6475,8.57775 -0.6477,8.5779 1.3632,1.13106 1.3629,1.13121 7.2999,1.95941 7.2999,1.95925 0.6663,0.0591 0.6662,0.0591 z m -19.1133,-30.42485 2.0564,-6.47915 2.4842,-5.61709 2.4841,-5.61709 2.9941,-4.351843 2.9942,-4.35192 -0.626,-6.97504 -0.626,-6.97496 -1.0839,-9.10139 -1.0839,-9.10139 -4.8249,0.66363 -4.825,0.66362 -5.6943,2.23149 -5.6942,2.23165 -4.3301,2.97907 -4.3299,2.97923 -5.1879,5.66688 -5.188,5.66705 -2.9664,6.32686 -2.9664,6.32686 -0.4066,8.503453 -0.4065,8.50345 2.9143,6.15281 2.9143,6.15281 5.4718,5.36784 5.4718,5.36784 8.566,4.60855 8.566,4.60871 0.6333,-9.97652 0.633,-9.97642 z m 32.2998,19.22409 v -0.43031 l -0.9758,-0.60327 -0.976,-0.60315 v 1.03357 1.03358 h 0.976 0.9758 z m 47.8942,-3.74448 -2.2593,-2.16878 1.7138,2.71433 1.7138,2.71433 0.5456,-0.54555 0.5455,-0.54555 z m -4.7589,-13.05992 -2.8831,-6.67622 -0.5299,-1.464 -0.5297,-1.46384 -0.077,2.43984 -0.077,2.43992 2.9512,6.2383 2.9513,6.23839 0.538,-0.53801 0.538,-0.53816 z m 10.2075,1.37541 -3.3586,-6.09971 -2.1961,-6.31282 -2.1962,-6.31274 -2.2888,-1.80033 -2.2887,-1.80034 -0.8999,-3.110443 -0.8999,-3.11045 -0.073,4.87984 -0.073,4.879843 0.8837,-1.39641 0.8836,-1.39642 0.6308,3.83626 0.6308,3.83625 3.2654,7.31984 3.2655,7.31968 0.6196,2.13555 0.6195,2.13554 2.6373,0.40207 2.6373,0.40207 0.7797,0.1463 0.7798,0.14615 z m -13.3284,4.75997 v -0.36392 l -2.011,-4.5463 -2.011,-4.54638 -0.9725,-6.03803 -0.9723,-6.03795 -4.4242,-5.39911 -4.4241,-5.399113 -9.8458,-11.00283 -9.8458,-11.00283 -0.6856,0.26715 -0.6856,0.26731 -6.5133,6.11624 -6.5132,6.11608 2.1943,3.90445 2.1944,3.90445 3.3193,-6.60469 3.3192,-6.60469 0.3954,-0.40675 0.3954,-0.40658 0.5621,0.56204 0.5622,0.56221 -3.0738,7.00334 -3.0739,7.00317 0.6753,4.06489 0.6753,4.064723 7.4481,7.22421 7.4482,7.2242 4.3389,2.7794 4.3389,2.77939 h 0.983 0.9829 l -3.4784,-3.65992 -3.4786,-3.65976 -2.1865,-4.00459 -2.1865,-4.00443 0.3955,-1.85125 0.3955,-1.85125 2.2767,4.36996 2.2768,4.36996 5.8735,5.60626 5.8733,5.60626 3.997,1.97852 3.9971,1.9785 0.7319,7.9e-4 0.7319,7.9e-4 z m -45.9844,-11.22248 -0.022,-6.70639 0.6484,-3.45644 0.6484,-3.45644 -2.6595,-5.926333 -2.6596,-5.92618 -1.269,-1.05315 -1.2688,-1.05316 -1.0442,1.95092 -1.044,1.95077 1.4926,7.1398 1.4928,7.139803 2.6123,8.0516 2.6124,8.05176 h 0.2403 0.2402 z m 245.7472,-12.99566 -0.5126,-1.28098 -0.077,1.87059 -0.077,1.87058 0.5897,-0.5896 0.5896,-0.58961 z m 47.5633,-1.0369 1.2842,-3.171923 0.656,-2.76159 0.6559,-2.76159 -2.9659,1.752 -2.9661,1.75216 0.014,1.98543 0.014,1.985433 0.5886,2.19592 0.5884,2.19592 h 0.424 0.4239 z m 60.224,-3.415993 2.005,-4.63577 1.4721,-6.83168 1.4722,-6.83168 -0.4852,-10.24768 -0.485,-10.24752 -1.6463,-7.09892 -1.6462,-7.09899 -3.4053,2.70719 -3.4053,2.70704 -6.5148,5.94148 -6.5148,5.94163 -6.8317,5.7005 -6.8317,5.7005 -6.1404,5.40251 -6.1404,5.40235 2.2366,1.7829 2.2365,1.78274 5.3677,3.68149 5.3679,3.68165 5.2639,2.22159 5.2639,2.221583 6.4476,1.28477 6.4476,1.28478 2.2306,0.0924 2.2306,0.0924 z m 16.0199,3.125903 5.8164,-1.50985 5.126,-2.341153 5.1279,-2.3411 5.2645,-4.97966 5.2646,-4.9796 2.252,-5.07684 2.2504,-5.07667 0.04,-8.29568 0.04,-8.29568 -4.5725,-9.27168 -4.5708,-9.27152 -7.2733,-8.29568 -7.2734,-8.29568 -3.1095,-2.2819 -3.1083,-2.28189 -0.2233,0.32995 -0.2234,0.33 -3.1844,6.60276 -3.1842,6.60292 -3.3968,4.44982 -3.3966,4.44982 1.5016,7.49062 1.5016,7.49046 1.0057,9.10312 1.0057,9.10312 -1.0373,8.46424 -1.0373,8.46424 -0.9908,3.90384 -0.9906,3.90384 -0.4957,1.707923 -0.4958,1.70792 h 3.2767 3.2766 z m -328.4913,-20.937193 -1.0911,-5.36768 -5.8659,-12.01685 -5.866,-12.01686 -5.2814,7.71966 -5.2815,7.71981 -1.8291,1.65533 -1.8292,1.65533 3.0514,3.52878 3.0512,3.52878 4.8799,5.58709 4.8797,5.58696 5.3678,6.28058 5.3678,6.280453 0.7687,-7.386773 0.7688,-7.38677 z m 205.6397,17.32344 -0.4922,-1.22008 v 2.44 2.439843 l 0.4922,-1.21992 0.4923,-1.219923 z m -192.9654,-39.73488 2.1547,-8.26024 1.4919,-3.45136 1.4919,-3.45136 1.412,-3.26042 1.4121,-3.26043 -0.8675,0.53613 -0.8677,0.5363 -4.9699,10.04381 -4.97,10.04397 -2.621,7.80768 -2.6211,7.80768 0.46,6.44019 0.46,6.44003 2.3367,6.53674 2.3367,6.53674 0.6033,-16.39277 0.6033,-16.39261 z m 193.9414,33.87904 -0.4923,-1.21992 v 2.43984 2.44 l 0.4923,-1.22008 0.4923,-1.21992 z m 49.1201,-7.10572 0.01,-3.9338 -2.8128,-1.06179 -2.8127,-1.06178 -0.5647,4.01974 -0.5647,4.01959 -0.6708,3.28408 -0.6708,3.28424 4.0408,-2.30824 4.0407,-2.30824 z m -9.5889,-4.24788 0.3248,-4.05675 -3.1719,-2.02818 -3.1719,-2.02835 v 2.41295 2.41312 l 1.4803,4.27052 1.4802,4.27053 0.5694,1.464 0.5694,1.46384 0.7976,-2.06246 0.7974,-2.06263 z m -295.3409,5.00992 0.7474,-1.70792 -0.2116,-0.90232 -0.2118,-0.90217 -1.3707,-5.26228 -1.3706,-5.26213 1.3024,-5.05922 1.3022,-5.05908 -2.5097,-0.69965 -2.5098,-0.69966 -0.239,0.23909 -0.2391,0.23909 0.855,3.79123 0.855,3.79139 0.6808,9.60077 0.6806,9.60078 h 0.7458 0.7458 z m 311.7691,-0.61516 v -0.3023 l -1.952,-1.76646 -1.9519,-1.76646 v 3.11338 3.11353 l 1.9519,-1.04461 1.952,-1.04461 z m 19.9056,-17.49431 11.3436,-9.56968 3.787,-5.06974 3.787,-5.06959 2.4139,-4.87984 2.4138,-4.87984 1.0508,-4.87984 1.0508,-4.87976 0.578,-3.59041 0.5779,-3.59032 -3.1245,-3.55867 -3.1246,-3.55866 -9.5057,-6.7398104 -9.5058,-6.73965004 -1.4826,-1.48264 -1.4825,-1.48263996 h -1.9579 -1.9578 l -7.1395,1.49460996 -7.1395,1.4946 -6.0312,2.81384004 -6.0309,2.81383 -4.5248,4.1707304 -4.5246,4.17072 -1.9756,2.77426 -1.9755,2.77435 5.0268,6.06989 5.0269,6.06985 4.2257,8.78356 4.2255,8.78368 1.5709,7.02445 1.5709,7.02428 v 6.5858 6.58563 l 2.5944,2.70798 2.5944,2.70798 3.1506,-2.65454 3.1506,-2.6547 z m -321.1774,7.66631 5.668,-5.23115 -3.2281,-2.41723 -3.2281,-2.41723 -3.1234,-1.57918 -3.1234,-1.57917 h -0.5364 -0.5365 v 7.72781 7.72798 l 0.5924,1.5437 0.5924,1.54371 0.6275,-0.0435 0.6277,-0.0435 z m 292.8253,0.66849 -1.1268,-0.71693 -0.1812,-0.976 -0.1813,-0.976 -0.8582,-1.46384 -0.8582,-1.464 -0.03,2.00072 -0.03,2.00072 1.1711,1.1712 1.1712,1.17104 1.0247,-0.0153 1.0249,-0.0153 z m -9.0804,-21.21213 -2.0389,-8.78368 -1.0292,-1.46397 -1.029,-1.46387 0.6657,2.92784 0.6659,2.92784 0.3535,10.1343 0.3536,10.13429 1.741,1.93395 1.7409,1.9341 0.3077,-4.74856 0.3076,-4.74856 z m 9.3614,1.77403 -1.4275,-6.84612 -3.4449,-7.22356 -3.4449,-7.22355 -2.8869,-3.41584 -2.8871,-3.41592 -0.5235,0.50968 -0.5236,0.50976 3.9247,8.68851 3.9248,8.68851 1.9009,8.70993 1.901,8.70978 2.1663,4.05099 2.1665,4.05108 0.2908,-4.4736 0.2908,-4.47353 z m -250.4809,6.37216 2.2992,-7.95717 3.6899,-7.63023 3.6898,-7.63007 4.91,-7.27635 4.91,-7.27636 18.9788,-19.1458304 18.9787,-19.1459796 -1.6369,0.4492 -1.637,0.4492 -4.6445,0.63115 -4.6446,0.63116 -6.7745,2.3041096 -6.7744,2.30412 -7.8012,4.05857 -7.8011,4.05873 -7.1853,6.13079 -7.1853,6.1307804 -4.1043,4.76864 -4.1042,4.76863 -1.9343,3.95408 -1.9343,3.95408 -1.0061,4.8296 -1.0061,4.82944 -0.5946,3.67201 -0.5947,3.67202 5.2539,11.20542 5.2539,11.20542 0.55,0.006 0.5499,0.006 z m -28.5048,-1.12872 4.8395,-6.15806 2.5537,-4.04542 2.5537,-4.04526 1.9676,-7.10034 1.9675,-7.10035 v -8.38004 -8.38004 l 1.06,-5.79094 1.06,-5.7911004 2.9709,-6.83168 2.9707,-6.83168 5.7336,-8.5413696 5.7334,-8.54137 -4.7854,3.43791 -4.7856,3.43806 -7.0114,8.16764 -7.0116,8.1674796 -2.2158,3.27954996 -2.2159,3.27962004 -7.3313,12.6873604 -7.3314,12.68752 -3.5436,7.04378 -3.5436,7.04378 -2.5027,7.45536 -2.5027,7.45536 0.303,0.19248 0.3029,0.19254 4.2688,1.8585 4.2688,1.85851 3.4291,2.72504 3.4291,2.72521 h 0.2646 0.2647 z m 264.1956,-4.08963 -0.5564,-5.85568 -1.0707,-4.87984 -1.0706,-4.87984 -2.4584,-5.36784 -2.4583,-5.36768 -0.8167,5.36768 -0.8169,5.36784 0.5389,4.39184 0.5388,4.39184 1.0393,3.41584 1.0393,3.41584 2.5414,4.09778 2.5414,4.09785 0.7826,-1.16985 0.7825,-1.16994 z m -287.8985,-3.36843 0.6328,-2.8806 2.8291,-7.34729 2.8293,-7.34729 8.494,-14.90308 8.4941,-14.9032304 4.1674,-6.34381004 4.1674,-6.34370996 8.1092,-8.9715496 8.1093,-8.97155 6.8956,-5.66781 6.8957,-5.66797 3.352,-2.67328 3.3519,-2.67338 -4.8798,2.00958 -4.8799,2.00964 -7.3196,4.00644 -7.3197,4.00644 -7.0617,4.72925 -7.0617,4.72924 -6.3913,5.97882 -6.3913,5.9786596 -5.6516,8.44931 -5.6515,8.4491504 -3.1985,7.68285 -3.1983,7.68286 -2.3945,9.34369 -2.3943,9.34369 -0.5753,6.5876 -0.5751,6.58776 h 2.9918 2.992 z m 359.3411,-11.58668 1.1529,-1.33801 -0.5254,-1.36904 -0.5253,-1.36904 h -0.6771 -0.6771 l -2.251,4.63576 -2.2511,4.63592 2.3006,-1.92874 2.3005,-1.92885 z m -106.6158,-3.55997 -0.673,-3.58704 -3.7713,-5.64766 -3.7714,-5.64753 -3.853,-2.54986 -3.8529,-2.54972 7.9234,12.15837 7.9233,12.15837 0.3739,-0.37382 0.3739,-0.37398 z m 109.0699,-5.15188 -0.5142,-2.68392 -0.4186,1.25211 -0.4184,1.25211 0.5493,1.43181 0.5495,1.43165 h 0.3832 0.3833 z m -74.8913,-3.8632 -0.465,-4.59497 -0.9139,-0.914 -0.9138,-0.91384 -0.6328,2.52094 -0.6326,2.52093 1.765,2.98803 1.765,2.98803 h 0.2465 0.2465 z m 84.3719,-5.16456 3.9642,-7.31968 0.014,-0.67491 0.014,-0.67492 -5.8626,-4.51115 -5.8624,-4.5110404 -0.4167,1.28222 -0.4168,1.2821204 -1.018,5.06731 -1.0182,5.0673 1.9082,4.20438 1.908,4.20429 0.022,3.38101 0.022,3.38104 1.3899,-1.42908 1.3899,-1.42909 z m -90.3613,-2.07607 0.5429,-2.07607 -1.4684,-2.24097 -1.4683,-2.24098 -8.8415,-7.6385404 -8.8416,-7.63841 -5.7188,-4.42373 -5.7189,-4.42372 -11.3752,-6.0944396 -11.3752,-6.09459 -0.3099,0.30976 -0.3098,0.30977 3.6199,4.84071 3.6198,4.8407196 12.0534,8.08565 12.0534,8.08578 1.7431,-0.55324 1.7431,-0.55326 3.2807,3.64667 3.2806,3.6467704 5.8557,6.06013 5.8558,6.06013 0.6182,0.0845 0.6181,0.0844 z m -229.3101,-11.23619 5.7238,-6.1178804 6.9637,-4.80055004 6.9638,-4.80056996 7.0382,-3.5331 7.0384,-3.5330696 8.0891,-2.34332 8.089,-2.34333 6.8318,-0.70311 6.8317,-0.70312 6.7399,-4.40077 6.7401,-4.40094 5.3066,-2.34673 5.3066,-2.3469 7.4726,-2.15544 7.4726,-2.15545 16.7661,0.1083 16.7661,0.10829 2.7531,0.6735 2.7531,0.67346 -6.2983,-4.45987 -6.2984,-4.4597 -7.6269,-2.94122 -7.627,-2.94124 -8.0338,-1.98748 -8.0338,-1.98747 -14.2331,-0.56944 -14.233,-0.5694 -8.2141,1.17113 -8.214,1.17118 -8.5056,1.9661 -8.5057,1.96602 -7.5977,5.85325 -7.5976,5.85324 -5.5868,5.29749 -5.5868,5.29766 -4.9941,7.07504 -4.9942,7.07514 -3.2584,6.4283396 -3.2585,6.42819 -1.4385,5.77133 -1.4384,5.7711804 -0.4546,5.36784 -0.4547,5.36773 2.557,-3.35317 2.5569,-3.35327 z m 186.8151,3.30866 -1.414,-2.19592 -4.055,-6.9830004 -4.055,-6.98301004 -4.6469,-4.12519996 -4.6469,-4.12515 -3.1406,-1.3353296 -3.1404,-1.33519 h -3.8776 -3.8776 l -0.6135,-0.99274 -0.6136,-0.99265 4.7038,0.44766 4.7037,0.44766 -3.1872,-2.87089 -3.1873,-2.87088 -1.6926,0.0385 -1.6924,0.0385 -10.0618,2.18999 -10.0617,2.18999 7.1338,2.28463 7.1338,2.2847796 4.8799,2.4334 4.8798,2.43343 6.3437,4.20011996 6.3437,4.20000004 6.3438,5.55901 6.3437,5.5588404 2.9279,1.31089 2.9279,1.31089 0.3563,0.0375 0.3562,0.0382 z m 61.5654,-12.8502404 5.5408,-3.36587004 7.2803,-2.01757996 7.2805,-2.01743 h 2.8377 2.8377 l -3.7941,-3.06512 -3.7941,-3.0651196 -7.8076,-5.05419 -7.8077,-5.0542 -6.0603,-2.65331 -6.0602,-2.65316 -8.0912,-2.04712 -8.0912,-2.04712 -14.1514,0.57962 -14.1515,0.57959 -10.0286,2.34284 -10.0286,2.34281 -0.4491,0.44903 -0.449,0.44904 12.4296,6.00465 12.4296,6.0045 10.2476,8.2313396 10.2476,8.23135 6.7935,6.2692004 6.7935,6.2692 5.2528,-5.67363 5.2527,-5.6735904 z m 60.1075,4.38784 0.6775,-1.0962 -5.3624,-2.45495 -5.3623,-2.45494004 -7.0342,-1.46669 -7.0342,-1.46672996 -0.8285,0.2834 -0.8287,0.28323 9.8562,6.78666 9.8563,6.7867704 2.078,2.81758 2.078,2.81752 0.6134,-4.86964 0.6133,-4.8698104 z m 22.9945,-8.55927 6.0037,-15.3139196 2.9838,-5.9132 2.9839,-5.91337 4.7158,-6.98901 4.7143,-6.98902 5.4298,-5.86395 5.4283,-5.8639 7.5312,-5.64749 7.5312,-5.64765 0.976,-0.92711 0.976,-0.92719 -6.832,3.71663 -6.8316,3.71671 -2.9268,1.96675 -2.928,1.9669 -8.976,7.2087 -8.976,7.2087 -7.0168,7.99947 -7.0168,7.9993 -5.0876,7.80768 -5.0876,7.80768 -3.2372,7.1142296 -3.2371,7.11423 1.8702,1.3248 1.8702,1.3248 4.3918,3.50702 4.3918,3.5070304 0.1752,0.01 0.1753,0.01 z m -253.8356,-9.4016396 8.2216,-2.35232 -8.317,-0.69274 -8.3168,-0.69278 -3.3206,1.39076 -3.3206,1.39088 -7.3197,6.9396096 -7.3197,6.93961 10.7356,-5.28543 10.7355,-5.28527 z m 98.0252,-0.16591 -0.5597,-1.45841 -1.0244,0.63324 -1.0245,0.63309 0.6301,-1.01943 0.63,-1.01944 -2.5441,-4.55184 -2.5441,-4.55184 -3.059,0.6673 -3.0589,0.66729 -1.7962,0.65961 -1.796,0.65944 4.4499,3.64641 4.4499,3.64625 3.6899,1.35459 3.69,1.35444 0.2134,0.0689 0.2133,0.0689 z m -86.504,-3.03519 -0.5896,-0.5896 -1.281,0.51258 -1.281,0.51258 1.8706,0.0773 1.8706,0.0774 z m 53.8825,-5.76661 7.26,-1.69175 -2.3802,-1.2304 -2.3803,-1.23036 -6.3436,-2.5074 -6.3438,-2.50739 -4.3918,-0.99797 -4.3918,-0.9981 -7.9659,-0.0244 -7.9658,-0.0245 -7.1615,1.37507 -7.1617,1.37506 -6.5753,2.48031 -6.5753,2.48046 -4.4042,2.58093 -4.4042,2.5811 v 0.32441 0.32441 l 31.9626,-0.3095 31.9628,-0.30967 z m 15.4663,-4.2296 1.2552,-0.79648 -8.5749,-2.61686 -8.5749,-2.61686 -0.976,0.0552 -0.9759,0.0552 3.7619,1.98457 3.762,1.98441 1.8293,0.35233 1.8292,0.35232 1.7285,1.00626 1.7285,1.00626 0.976,0.0151 0.9759,0.0151 z m 1.5542,-9.95932 -4.6398,-5.90579 -6.8925,-6.5384 -6.8925,-6.53856 -6.8317,-3.56301 -6.8317,-3.56317 -7.3197,-2.28988 -7.3198,-2.29003 -16.5912,0.0158 -16.5913,0.0158 -7.8966,2.10644 -7.8964,2.10656 -8.0291,3.0963 -8.0291,3.09646 0.4586,0.45858 0.4587,0.45861 5.7073,-1.0906 5.7073,-1.09057 12.1995,-0.57082 12.1995,-0.57082 8.4481,1.13049 8.4481,1.13049 7.6553,2.00293 7.6552,2.00283 7.8077,3.36878 7.8077,3.36862 7.7624,5.74438 7.7624,5.74425 6.3891,1.93536 6.3889,1.93538 1.7728,0.1 1.7727,0.10006 z m 382.695,-153.155607 9.76,-3.14845 23.2037,-10.84893 23.202,-10.84886 -2.2188,-0.93618 -2.2205,-0.93628 -13.1752,0.0149 -13.1768,0.0149 -8.0985,2.08959 -8.0985,2.08956 -7.6636,3.32105 -7.6635,3.32094 -5.3707,3.56432 -5.3692,3.56416 -3.998,4.33806 -3.9996,4.33805 v 1.32319 1.32305 l 0.7324,0.75283 0.7324,0.75283 6.8313,-0.4698 6.8311,-0.46976 z"
       id="path1" /></g></svg>
