<svg width="371" height="266" viewBox="0 0 371 266" fill="none" xmlns="http://www.w3.org/2000/svg">
<path d="M165.088 263.958C165.088 266.194 165.219 259.471 165.619 257.271C166.54 252.209 168.509 245.32 169.875 242.91C171.24 240.5 172.335 235.748 178.917 228.624C185.5 221.5 188.131 220.401 194.875 217.074C202.463 213.33 210.729 209.931 219.267 209.931C227.75 209.931 218.5 209.931 245.5 209.931C272.5 209.931 270.504 210.697 283.134 209.931C292.338 209.373 301.782 209.743 310.756 207.5C314.782 206.493 319.37 204.321 323.028 202.37C328.73 199.329 335.217 195.077 340.125 190.782C355.064 177.711 367.221 152.745 354.829 134.324C349.429 126.298 333.157 121.193 325.497 128.852C322.527 131.822 318.485 137.994 320.634 142.53C323.479 148.537 330.756 151.497 337.047 151.497C349.646 151.497 362.904 142.011 366.835 130.22C372.703 112.616 366.426 91.363 359.958 74.7873C353.817 59.0509 345.071 45.4555 328.271 39.719C313.793 34.7754 288.647 39.0608 280.665 53.4728C277.233 59.6693 277.941 68.9662 282.716 74.3694C288.075 80.4332 300.286 81.5465 305 75.8891C308.355 71.8637 311.68 65.5 312.124 57.1202C312.567 48.7404 313.057 44.1374 309.084 37.7054C300.43 23.6935 287.197 14.2444 272.838 6.51246C259.647 -0.590442 241.58 -0.19816 227.549 4.11885C220.119 6.40516 213.905 9.77442 207.413 14.0352C200.963 18.2676 193.677 23.2925 191.797 31.4364C190.228 38.2348 191.409 44.3131 195.939 49.5974C200.102 54.4552 207.695 53.3886 213.112 51.2691C218.665 49.096 222.968 45.2159 226.638 40.5549C231.721 34.0976 232.291 28.1298 227.701 21.1781C223.295 14.5044 217.649 10.934 210.452 8.03221C203.586 5.26366 196.5 5 188.986 4.76474C181.471 4.52949 176.742 4.08086 168.621 4.4228C160.5 4.76474 153.562 6.51894 146.5 8.03221C132.628 11.0047 122.467 19.9382 115.316 32.6522C108.673 44.4611 106.687 62.2713 119.951 70.266C126.177 74.0189 131.9 72 135.5 68.5C139.1 65 139.027 56.5383 139.1 53.1688C139.44 37.5394 124.72 28.9379 111.516 25.2814C102.918 22.9003 91.9684 24.8952 84.1228 29.0048C71.2767 35.7337 59.5 44.5 53.5758 58.146C47.6516 71.792 47.1542 74.3429 45.7491 83.3359C44.3496 92.2924 46.0425 102.28 48.1427 110.995C49.9664 118.564 55.121 124.889 61.5165 128.928C66.4263 132.029 77.4306 134.141 82.717 130.752C88.3217 127.159 87.8387 121.548 86.9723 115.099C85.6362 105.152 77.9583 98.8199 68.8493 95.3419C57.8066 91.1256 45.2862 92.6824 33.743 95.3419C22.1999 98.0015 18.2319 100 13 106.04C7.7681 112.079 3.00934 128.441 1.63828 141.808C0.833703 149.653 0.742009 157.294 1.63828 165.137C2.55619 173.168 1.03038 172.431 6.95741 188.959C12.8844 205.486 25.097 219.724 37.0485 229.612C49 239.5 60.2453 244.758 74.1304 248.229C88.2088 251.749 105.863 251.363 116 239.5C120.281 234.49 124.712 228.282 126.106 224.141C127.5 220 126.355 215.659 125.08 212.401C119.67 198.575 101.932 196.698 89.6319 193.86C77.0312 190.952 66.3152 187.306 63.5302 173.381C62.1665 166.563 66.1227 159.482 70.5 156C78.1421 149.921 89.8734 147.193 99.5 145.646C111.212 143.763 125.866 144.736 137.694 145.646C145.517 146.248 152.512 148.178 160.984 147.355C169.456 146.533 171.902 145.043 173.701 144.522C175.5 144 176.5 144 182 141C187.5 138 191.759 134.079 195.103 129.5C199.755 123.129 202.701 115.679 202.701 107.652C202.701 101.157 199.585 97.7108 195.103 92.9483C180.122 77.0311 152.48 73.9033 133.895 85.2356C129.38 87.9885 124.293 91.2259 121 95.3419C118.085 98.9857 115.287 103.15 113.188 107.348C109.098 115.529 113.251 121.284 121.927 123.609C135.058 127.129 158.5 123.609 165.847 115.023C173.195 106.436 171.371 108.365 173.826 104.764C176.545 100.777 178.914 96.5536 181.805 92.6824C187.414 85.17 193.732 78.416 203.081 75.8891C212.741 73.2785 216.105 73.1536 233.552 74.5213C251 75.8891 272.496 90.7906 281.197 109.932C285.068 118.45 286.088 129.124 277.625 135.539C271.873 139.9 262.378 145.844 255.5 146.222C246.673 146.706 235.474 144.819 227.549 140.707C219.713 136.64 213.206 124.854 221.318 116.201C229.909 107.037 241.683 105.294 253.613 108.032C259.376 109.354 264.205 110.407 270.102 114.339C276 118.271 278.911 122.918 283.134 127.599C291.622 137.005 293.5 139.501 297.5 147.355C301.5 155.21 305.5 176 305.5 184.095C305.5 192.191 305.284 208.83 299 215C289.105 224.715 273.377 220.309 262.45 215.342C257.404 213.048 249.134 203.353 243.317 199.5C237.5 195.647 234.103 192.109 230.361 189.415C225.627 186.006 220.841 182.071 215.619 179.46C199.192 171.247 175 164.186 160.984 166.162C146.968 168.139 144.891 170.126 137.086 173.001C128.624 176.119 121.183 179.853 113.112 183.943C103.312 188.911 86.7284 199.24 92.8994 212.971C98.4873 225.404 118.961 229.864 131.121 229.764C144.479 229.654 157.702 221.822 169.913 217.112C181.621 212.596 197.286 208.214 209.882 211.413C215.914 212.945 223.021 217.302 228.5 220C233.979 222.698 241.817 227.331 247 229.764C252.183 232.197 258.624 237.967 271.812 244.734C285 251.5 311.308 254.56 332.64 248.913" stroke="black" stroke-width="2" stroke-linecap="square"/>
</svg>
