<svg width="224" height="154" viewBox="0 0 224 154" fill="none" xmlns="http://www.w3.org/2000/svg">
<path d="M1.85181 13.6813C9.2922 1.88906 22.5723 -1.6112 34.1585 8.00147C48.521 19.9175 43.9649 45.8744 41.7348 61.7753C37.0806 94.9615 37.2777 136.248 74.5419 149.776C107.996 161.92 142.473 130.636 149.805 97.9196C157.648 62.9248 131.93 34.0009 99.987 28.8029C78.6301 25.3276 55.3513 30.8008 39.3762 46.3587C22.579 62.7171 17.8285 90.339 34.3014 109.132C55.1494 132.916 94.1242 141.23 122.216 126.835C157.979 108.509 154.966 57.7705 130.078 31.6797C113.415 14.2116 85.8091 9.60665 64.9642 21.7216C41.3415 35.4509 29.38 72.0491 41.306 97.6246C57.1521 131.607 107.942 142.948 135.939 118.5C164.371 93.6711 144.955 48.1188 114.353 36.6956C88.1202 26.9031 58.8239 40.7147 44.8797 64.5784C29.1996 91.413 35.7468 133.865 67.1085 145.129C91.462 153.875 128.144 143.153 142.872 120.639C161.297 92.4734 136.376 46.8052 104.061 46.2849C69.8653 45.7344 36.4808 81.739 61.319 115.328C84.3736 146.505 150.824 142.881 151.52 95.7805C152.536 27.1004 27.3109 22.3712 44.5224 92.8299C51.1022 119.766 74.9946 142.469 102.703 142.916C136.028 143.453 159.773 102.43 141.085 72.5449C119.198 37.5435 72.6134 47.6355 54.3144 80.5114C37.5883 110.562 61.8218 139.776 89.8375 145.645C121.675 152.314 153.537 138.902 176.823 117.541C193.349 102.38 206.323 103.549 221.852 118.574" stroke="black" stroke-width="3" stroke-linecap="round"/>
</svg>
