<svg width="20" height="20" viewBox="0 0 20 20" fill="none" xmlns="http://www.w3.org/2000/svg">
  <path fill-rule="evenodd" clip-rule="evenodd"
    d="M10.0167 0C15.5283 0.00916667 20 4.48583 20 10C20 15.5192 15.52 20 10 20C4.48083 20 0 15.5192 0 10C0 4.48583 4.4725 0.00916667 9.98417 0H10.0167ZM13.095 13.3333H6.90583C7.43833 16.8883 8.77417 19.1667 10 19.1667C11.2267 19.1667 12.5625 16.8883 13.095 13.3333ZM18.5408 13.3333H13.9383C13.5833 15.8208 12.8375 17.835 11.8675 18.9758C14.925 18.3425 17.4267 16.1842 18.5408 13.3333ZM6.0625 13.3333H1.45917C2.57417 16.1842 5.07583 18.3425 8.13333 18.9758C7.16333 17.835 6.4175 15.8208 6.0625 13.3333ZM5.96 7.5H1.18C0.904167 8.47167 0.5625 10.3242 1.18 12.5H5.96C5.80333 10.9883 5.78083 9.22917 5.96 7.5ZM13.2025 7.5H6.79833C6.63583 9 6.61083 10.7725 6.79833 12.5H13.2025C13.3658 10.9908 13.3892 9.225 13.2025 7.5ZM18.8208 7.5H14.0408C14.0925 7.99333 14.2975 10.0158 14.0408 12.5H18.8208C19.4383 10.3233 19.0967 8.47083 18.8208 7.5ZM8.13333 1.02417C5.07583 1.6575 2.57417 3.81583 1.45917 6.66667H6.0625C6.4175 4.17917 7.16333 2.16417 8.13333 1.02417ZM13.095 6.66667C12.5625 3.11167 11.2267 0.833333 10 0.833333C8.77417 0.833333 7.43833 3.11167 6.90583 6.66667H13.095ZM11.8675 1.02417C12.8375 2.16417 13.5833 4.17917 13.9383 6.66667H18.5408C17.4267 3.81583 14.925 1.6575 11.8675 1.02417Z"
    fill="black" />
</svg>