<svg width="224" height="154" viewBox="0 0 224 154" fill="none" xmlns="http://www.w3.org/2000/svg">
<path d="M2 6.80728C4.16121 -0.523619 20.0556 2.17601 24.8148 4.23687C51.3916 15.7453 42.9546 62.1325 43.7185 84.417C44.3923 104.072 48.1373 128.214 63.6 142.127C91.6163 167.335 136.41 139.191 153.963 114.433C197.173 53.4857 90.3148 6.54757 56.4296 64.3513C43.9661 85.6124 44.6578 116.321 65.7185 131.845C86.3495 147.052 147.624 148.363 134.489 106.887C130.646 94.7519 120.545 84.6602 107.763 83.0904C97.4232 81.8205 91.5174 88.0775 90.6518 97.7666C88.5519 121.273 119.431 114.547 112.163 95.5278C109.815 89.3852 89.6573 83.2391 94.237 87.8995C95.8672 89.5584 98.9733 87.112 99.2889 85.7437C101.388 76.6403 89.1962 70.1587 82.7481 68.58C76.7133 67.1024 68.1814 66.906 63.1926 71.8967C54.5641 80.5283 72.1697 81.7742 76.1481 78.7787C82.4317 74.0477 83.5537 65.3763 78.4296 59.0446C67.3447 45.3473 44.1687 45.5735 31.6593 56.723C10.9144 75.2126 34.4327 98.5331 49.1778 109.624C92.9802 142.57 39.0591 101.139 64.4963 119.905C68.8857 123.144 56.9299 111.872 54.1481 107.136C39.1299 81.5698 30.9942 44.7738 59.8518 24.7172C76.9925 12.8042 116.621 19.8841 110.941 47.4363C107.802 62.6623 83.534 91.5156 98.8815 106.804C106.783 114.676 118.139 106.727 120.556 98.5128C126.77 77.3913 99.362 62.0283 82.3407 68.6629C69.311 73.7418 74.1008 88.9333 78.9185 96.6887C85.3644 107.065 97.5736 115.385 109.556 117.252C120.016 118.882 132.532 114.869 141.822 110.453C144.165 109.339 156.346 98.1988 160.563 99.4249C169.073 101.899 173.352 117.635 170.993 124.963C160.662 157.053 108.229 148.14 85.6 140.8C71.7155 136.297 48.1206 124.274 59.5259 105.312C71.1095 86.0533 99.954 82.248 115.015 98.5957C122.905 107.161 124.42 119.564 132.37 127.948C140.781 136.819 154.331 139.912 165.941 140.8C190.177 142.654 207.261 139.197 222 118.744" stroke="black" stroke-width="3" stroke-linecap="round"/>
</svg>
